{
.appVersion = "3260";
.formatVersion = 3;
axes = (
{
name = Weight;
tag = wght;
},
{
name = Width;
tag = wdth;
}
);
date = "2024-09-19 17:54:18 +0000";
familyName = "NeonSky Stencil";
featurePrefixes = (
{
automatic = 1;
code = "languagesystem DFLT dflt;

languagesystem latn dflt;
languagesystem latn NLD;
";
name = Languagesystems;
}
);
features = (
{
automatic = 1;
code = "feature locl;
feature subs;
feature sinf;
feature sups;
feature numr;
feature dnom;
feature frac;
feature lnum;
feature pnum;
feature tnum;
feature onum;
feature case;
feature salt;
";
tag = aalt;
},
{
automatic = 1;
code = "lookup ccmp_Other_1 {
	@CombiningTopAccents = [acutecomb circumflexcomb dieresiscomb dotaccentcomb gravecomb ringcomb tildecomb];
	lookupflag UseMarkFilteringSet @CombiningTopAccents;
	sub i' @CombiningTopAccents by idotless;
	sub j' @CombiningTopAccents by jdotless;
} ccmp_Other_1;
";
tag = ccmp;
},
{
automatic = 1;
code = "script latn;
language NLD;
lookup locl_latn_0 {
	sub iacute j' by jacute;
	sub Iacute J' by Jacute;
} locl_latn_0;
";
tag = locl;
},
{
automatic = 1;
code = "sub zero by zeroinferior;
sub one by oneinferior;
sub two by twoinferior;
sub three by threeinferior;
sub four by fourinferior;
sub five by fiveinferior;
sub six by sixinferior;
sub seven by seveninferior;
sub eight by eightinferior;
sub nine by nineinferior;
";
tag = subs;
},
{
automatic = 1;
code = "sub zero by zeroinferior;
sub one by oneinferior;
sub two by twoinferior;
sub three by threeinferior;
sub four by fourinferior;
sub five by fiveinferior;
sub six by sixinferior;
sub seven by seveninferior;
sub eight by eightinferior;
sub nine by nineinferior;
";
tag = sinf;
},
{
automatic = 1;
code = "sub zero by zerosuperior;
sub one by onesuperior;
sub two by twosuperior;
sub three by threesuperior;
sub four by foursuperior;
sub five by fivesuperior;
sub six by sixsuperior;
sub seven by sevensuperior;
sub eight by eightsuperior;
sub nine by ninesuperior;
";
tag = sups;
},
{
automatic = 1;

glyphs = (
{
color = 3;
glyphname = A;
kernLeft = LCH;
kernRight = A;
lastChange = "2024-10-06 01:36:56 +0000";
layers = (
{
anchors = (
{
name = ogonek;
pos = (109,0);
},
{
name = top;
pos = (380,520);
}
);
layerId = m01;
shapes = (
{
closed = 1;
nodes = (
(80,580,l),
(180,643,l),
(180,700,l),
(15,580,l)
);
},
{
closed = 1;
nodes = (
(180,27,l),
(180,121,l),
(335,-10,l),
(335,60,l),
(180,205,l),
(180,570,l),
(80,526,l),
(80,-30,l)
);
},
{
closed = 1;
nodes = (
(513,538,l),
(578,608,l),
(236,608,l),
(236,538,l)
);
},
{
closed = 1;
nodes = (
(461,-10,l),
(597,82,l),
(597,367,l),
(515,419,l),
(282,419,l),
(217,349,l),
(497,349,l),
(497,60,l),
(364,60,l),
(364,-10,l)
);
}
);
width = 630;
},
{
anchors = (
{
name = ogonek;
pos = (139,0);
},
{
name = top;
pos = (440,550);
}
);
layerId = m002;
shapes = (
{
closed = 1;
nodes = (
(100,550,l),
(260,628,l),
(260,700,l),
(19,550,l)
);
},
{
closed = 1;
nodes = (
(260,41,l),
(260,93,l),
(404,-10,l),
(404,90,l),
(260,235,l),
(260,527,l),
(100,468,l),
(100,-30,l)
);
},
{
closed = 1;
nodes = (
(611,523,l),
(703,623,l),
(308,623,l),
(308,523,l)
);
},
{
closed = 1;
nodes = (
(554,-10,l),
(707,93,l),
(707,371,l),
(607,434,l),
(374,434,l),
(282,334,l),
(547,334,l),
(547,90,l),
(444,90,l),
(444,-10,l)
);
}
);
width = 740;
},
{
anchors = (
{
name = ogonek;
pos = (119,0);
},
{
name = top;
pos = (450,520);
}
);
layerId = m004;
shapes = (
{
closed = 1;
nodes = (
(80,580,l),
(180,641,l),
(180,700,l),
(15,580,l)
);
},
{
closed = 1;
nodes = (
(180,27,l),
(180,148,l),
(385,-10,l),
(385,60,l),
(180,235,l),
(180,545,l),
(80,507,l),
(80,-30,l)
);
},
{
closed = 1;
nodes = (
(673,538,l),
(738,608,l),
(235,608,l),
(235,538,l)
);
},
{
closed = 1;
nodes = (
(621,-10,l),
(757,82,l),
(757,367,l),
(675,419,l),
(362,419,l),
(297,349,l),
(657,349,l),
(657,60,l),
(427,60,l),
(427,-10,l)
);
}
);
width = 790;
},
{
anchors = (
{
name = ogonek;
pos = (73,0);
},
{
name = top;
pos = (286,530);
}
);
layerId = m005;
shapes = (
{
closed = 1;
nodes = (
(60,620,l),
(100,648,l),
(100,700,l),
(19,620,l)
);
},
{
closed = 1;
nodes = (
(100,0,l),
(100,127,l),
(228,-10,l),
(228,20,l),
(100,178,l),
(100,592,l),
(60,568,l),
(60,-30,l)
);
},
{
closed = 1;
nodes = (
(467,558,l),
(495,588,l),
(157,588,l),
(157,558,l)
);
},
{
closed = 1;
nodes = (
(486,-10,l),
(517,23,l),
(517,339,l),
(475,369,l),
(208,369,l),
(180,339,l),
(477,339,l),
(477,20,l),
(258,20,l),
(258,-10,l)
);
}
);
width = 550;
},
{
anchors = (
{
name = ogonek;
pos = (76,0);
},
{
name = top;
pos = (366,530);
}
);
layerId = m006;
shapes = (
{
closed = 1;
nodes = (
(60,620,l),
(100,646,l),
(100,700,l),
(19,620,l)
);
},
{
closed = 1;
nodes = (
(100,0,l),
(100,171,l),
(272,-10,l),
(272,20,l),
(100,221,l),
(100,580,l),
(60,555,l),
(60,-30,l)
);
},
{
closed = 1;
nodes = (
(637,558,l),
(665,588,l),
(175,588,l),
(175,558,l)
);
},
{
closed = 1;
nodes = (
(656,-10,l),
(687,23,l),
(687,339,l),
(645,369,l),
(288,369,l),
(260,339,l),
(647,339,l),
(647,20,l),
(310,20,l),
(310,-10,l)
);
}
);
width = 720;
}
);
unicode = 65;
},
{
color = 3;
glyphname = AE;
kernLeft = LCH;
kernRight = E;
lastChange = "2024-08-28 13:02:09 +0000";
layers = (
{
layerId = m01;
shapes = (
{
closed = 1;
nodes = (
(461,-10,l),
(597,82,l),
(597,367,l),
(515,419,l),
(282,419,l),
(217,349,l),
(497,349,l),
(497,60,l),
(335,60,l),
(198,205,l),
(148,205,l),
(148,135,l),
(293,-10,l)
);
},
{
closed = 1;
nodes = (
(180,27,l),
(180,700,l),
(130,700,l),
(15,580,l),
(80,580,l),
(80,-30,l)
);
},
{
closed = 1;
nodes = (
(853,573,l),
(853,174,l),
(726,60,l),
(640,60,l),
(543,135,l),
(506,135,l),
(506,67,l),
(606,-10,l),
(778,-10,l),
(953,147,l),
(953,593,l),
(904,643,l),
(168,643,l),
(168,573,l)
);
},
{
closed = 1;
nodes = (
(1011,315,l),
(1076,385,l),
(718,385,l),
(653,315,l)
);
}
);
width = 1104;
},
{
layerId = m002;
shapes = (
{
closed = 1;
nodes = (
(524,-25,l),
(677,78,l),
(677,371,l),
(577,434,l),
(314,434,l),
(222,334,l),
(517,334,l),
(517,75,l),
(404,75,l),
(287,220,l),
(188,220,l),
(188,134,l),
(325,-25,l)
);
},
{
closed = 1;
nodes = (
(260,23,l),
(260,715,l),
(163,715,l),
(19,565,l),
(100,565,l),
(100,-69,l)
);
},
{
closed = 1;
nodes = (
(873,558,l),
(873,176,l),
(760,75,l),
(704,75,l),
(607,150,l),
(526,150,l),
(526,64,l),
(642,-25,l),
(844,-25,l),
(1033,145,l),
(1033,595,l),
(971,658,l),
(188,658,l),
(188,558,l)
);
},
{
closed = 1;
nodes = (
(1079,300,l),
(1171,400,l),
(750,400,l),
(658,300,l)
);
}
);
width = 1204;
},
{
layerId = m004;
shapes = (
{
closed = 1;
nodes = (
(601,-10,l),
(737,82,l),
(737,367,l),
(655,419,l),
(322,419,l),
(257,349,l),
(637,349,l),
(637,60,l),
(355,60,l),
(198,265,l),
(148,265,l),
(148,195,l),
(313,-10,l)
);
},
{
closed = 1;
nodes = (
(180,27,l),
(180,700,l),
(130,700,l),
(15,580,l),
(80,580,l),
(80,-30,l)
);
},
{
closed = 1;
nodes = (
(1123,573,l),
(1123,174,l),
(996,60,l),
(830,60,l),
(683,135,l),
(646,135,l),
(646,67,l),
(796,-10,l),
(1048,-10,l),
(1223,147,l),
(1223,593,l),
(1174,643,l),
(168,643,l),
(168,573,l)
);
},
{
closed = 1;
nodes = (
(1401,315,l),
(1466,385,l),
(908,385,l),
(843,315,l)
);
}
);
width = 1494;
},
{
layerId = m005;
shapes = (
{
closed = 1;
nodes = (
(477,-10,l),
(517,31,l),
(517,319,l),
(477,359,l),
(198,359,l),
(170,329,l),
(477,329,l),
(477,20,l),
(282,20,l),
(86,185,l),
(83,185,l),
(83,140,l),
(259,-10,l)
);
},
{
closed = 1;
nodes = (
(100,0,l),
(100,700,l),
(96,700,l),
(19,620,l),
(60,620,l),
(60,-30,l)
);
},
{
closed = 1;
nodes = (
(833,593,l),
(833,148,l),
(730,20,l),
(588,20,l),
(511,65,l),
(496,65,l),
(496,34,l),
(569,-10,l),
(754,-10,l),
(873,133,l),
(873,588,l),
(838,623,l),
(82,623,l),
(82,593,l)
);
},
{
closed = 1;
nodes = (
(995,325,l),
(1023,355,l),
(644,355,l),
(616,325,l)
);
}
);
width = 1064;
},
{
layerId = m006;
shapes = (
{
closed = 1;
nodes = (
(597,-10,l),
(637,31,l),
(637,349,l),
(597,389,l),
(268,389,l),
(240,359,l),
(597,359,l),
(597,20,l),
(272,20,l),
(86,245,l),
(83,245,l),
(83,200,l),
(249,-10,l)
);
},
{
closed = 1;
nodes = (
(100,0,l),
(100,700,l),
(96,700,l),
(19,620,l),
(60,620,l),
(60,-30,l)
);
},
{
closed = 1;
nodes = (
(1093,593,l),
(1093,128,l),
(950,20,l),
(788,20,l),
(631,105,l),
(616,105,l),
(616,74,l),
(769,-10,l),
(974,-10,l),
(1133,113,l),
(1133,588,l),
(1098,623,l),
(82,623,l),
(82,593,l)
);
},
{
closed = 1;
nodes = (
(1355,355,l),
(1383,385,l),
(824,385,l),
(796,355,l)
);
}
);
width = 1414;
}
);
metricLeft = A;
metricRight = E;
unicode = 198;
},
{
color = 1;
glyphname = B;
kernLeft = B;
kernRight = B;
lastChange = "2024-09-19 19:17:07 +0000";
layers = (
{
backgroundImage = {
imagePath = "../reference/@Celes/uppercase/B.png";
locked = 1;
pos = (-160,-118);
scale = (14,14);
};
layerId = m01;
shapes = (
{
closed = 1;
nodes = (
(276,-10,l),
(380,-10,l),
(517,170,l),
(467,170,l),
(333,70,l),
(352,70,l),
(173,261,l),
(40,261,l)
);
},
{
closed = 1;
nodes = (
(30,316,l),
(433,700,l),
(433,641,l),
(172,374,l),
(333,374,l),
(333,484,l),
(433,593,l),
(433,374,l),
(643,374,l),
(578,304,l),
(30,304,l)
);
}
);
width = 660;
},
{
backgroundImage = {
imagePath = "../reference/@Celes/uppercase/B.png";
locked = 1;
scale = (14,14);
};
layerId = m002;
shapes = (
{
closed = 1;
nodes = (
(308,-10,l),
(529,-10,l),
(689,215,l),
(584,215,l),
(391,60,l),
(483,60,l),
(302,204,l),
(67,204,l)
);
},
{
closed = 1;
nodes = (
(30,318,l),
(553,700,l),
(553,623,l),
(248,374,l),
(393,374,l),
(393,418,l),
(553,558,l),
(553,374,l),
(763,374,l),
(671,274,l),
(30,274,l)
);
}
);
width = 780;
},
{
backgroundImage = {
imagePath = "../reference/@Celes/uppercase/B.png";
locked = 1;
pos = (-30,0);
scale = (14,14);
};
layerId = m004;
shapes = (
{
closed = 1;
nodes = (
(278,-10,l),
(579,-10,l),
(739,170,l),
(689,170,l),
(560,80,l),
(348,80,l),
(173,251,l),
(38,251,l)
);
},
{
closed = 1;
nodes = (
(31,318,l),
(523,700,l),
(523,633,l),
(182,364,l),
(423,364,l),
(423,499,l),
(523,581,l),
(523,364,l),
(813,364,l),
(748,294,l),
(31,294,l)
);
}
);
width = 830;
},
{
backgroundImage = {
imagePath = "../reference/@Celes/uppercase/B.png";
locked = 1;
pos = (-60,0);
scale = (14,14);
};
layerId = m005;
shapes = (
{
closed = 1;
nodes = (
(262,-10,l),
(332,-10,l),
(484,190,l),
(470,190,l),
(295,22,l),
(298,22,l),
(91,248,l),
(40,248,l)
);
},
{
closed = 1;
nodes = (
(30,311,l),
(373,700,l),
(373,646,l),
(76,308,l),
(333,308,l),
(333,548,l),
(373,593,l),
(373,308,l),
(560,308,l),
(532,278,l),
(30,278,l)
);
}
);
width = 580;
},
{
backgroundImage = {
imagePath = "../reference/@Celes/uppercase/B.png";
locked = 1;
pos = (40,0);
scale = (14,14);
};
layerId = m006;
shapes = (
{
closed = 1;
nodes = (
(262,-10,l),
(582,-10,l),
(734,190,l),
(710,190,l),
(563,23,l),
(290,23,l),
(98,244,l),
(48,244,l)
);
},
{
closed = 1;
nodes = (
(30,311,l),
(473,700,l),
(473,650,l),
(76,304,l),
(433,304,l),
(433,561,l),
(473,596,l),
(473,304,l),
(770,304,l),
(742,274,l),
(30,274,l)
);
}
);
width = 790;
}
);
unicode = 66;
},
{
color = 1;
glyphname = C;
kernLeft = C;
kernRight = RCH;
lastChange = "2024-09-19 19:16:15 +0000";
layers = (
{
anchors = (
{
name = ogonek;
pos = (327,0);
},
{
name = top;
pos = (241,580);
}
);
backgroundImage = {
imagePath = "../reference/@Celes/uppercase/C.png";
locked = 1;
pos = (-239,-114);
scale = (14,14);
};
layerId = m01;
shapes = (
{
closed = 1;
nodes = (
(329,303,l),
(429,378,l),
(429,610,l),
(329,522,l),
(329,373,l),
(100,373,l),
(35,303,l)
);
},
{
closed = 1;
nodes = (
(247,83,l),
(110,201,l),
(110,257,l),
(35,257,l),
(35,139,l),
(247,-10,l)
);
},
{
closed = 1;
nodes = (
(429,47,l),
(429,315,l),
(329,246,l),
(329,83,l),
(329,52,l),
(329,-10,l)
);
},
{
closed = 1;
nodes = (
(329,580,l),
(429,656,l),
(429,700,l),
(239,580,l)
);
}
);
width = 470;
},
{
anchors = (
{
name = ogonek;
pos = (397,0);
},
{
name = top;
pos = (281,580);
}
);
backgroundImage = {
imagePath = "../reference/@Celes/uppercase/C.png";
locked = 1;
pos = (-40,0);
scale = (14,14);
};
layerId = m002;
shapes = (
{
closed = 1;
nodes = (
(359,288,l),
(519,375,l),
(519,623,l),
(359,512,l),
(359,388,l),
(115,388,l),
(35,288,l)
);
},
{
closed = 1;
nodes = (
(264,131,l),
(170,204,l),
(170,254,l),
(35,254,l),
(35,136,l),
(264,-10,l)
);
},
{
closed = 1;
nodes = (
(519,42,l),
(519,313,l),
(359,237,l),
(359,131,l),
(359,66,l),
(359,-10,l)
);
},
{
closed = 1;
nodes = (
(337,565,l),
(519,678,l),
(519,700,l),
(249,565,l)
);
}
);
width = 560;
},
{
anchors = (
{
name = ogonek;
pos = (477,0);
},
{
name = top;
pos = (341,580);
}
);
backgroundImage = {
imagePath = "../reference/@Celes/uppercase/C.png";
locked = 1;
scale = (14,14);
};
layerId = m004;
shapes = (
{
closed = 1;
nodes = (
(479,303,l),
(579,385,l),
(579,626,l),
(479,529,l),
(479,373,l),
(100,373,l),
(34,303,l)
);
},
{
closed = 1;
nodes = (
(249,87,l),
(110,201,l),
(110,255,l),
(35,254,l),
(35,139,l),
(249,-10,l)
);
},
{
closed = 1;
nodes = (
(579,59,l),
(579,325,l),
(479,252,l),
(479,112,l),
(427,87,l),
(427,-10,l)
);
},
{
closed = 1;
nodes = (
(460,580,l),
(579,674,l),
(579,700,l),
(349,580,l)
);
}
);
width = 620;
},
{
anchors = (
{
name = ogonek;
pos = (307,0);
},
{
name = top;
pos = (251,580);
}
);
backgroundImage = {
imagePath = "../reference/@Celes/uppercase/C.png";
locked = 1;
pos = (-90,0);
scale = (14,14);
};
layerId = m005;
shapes = (
{
closed = 1;
nodes = (
(339,313,l),
(379,340,l),
(379,634,l),
(339,593,l),
(339,343,l),
(80,343,l),
(45,313,l)
);
},
{
closed = 1;
nodes = (
(209,31,l),
(70,158,l),
(70,283,l),
(30,283,l),
(30,141,l),
(209,-10,l)
);
},
{
closed = 1;
nodes = (
(379,36,l),
(379,286,l),
(339,256,l),
(339,47,l),
(339,31,l),
(339,-10,l)
);
},
{
closed = 1;
nodes = (
(339,620,l),
(379,658,l),
(379,700,l),
(280,620,l)
);
}
);
width = 420;
},
{
anchors = (
{
name = ogonek;
pos = (450,0);
},
{
name = top;
pos = (331,580);
}
);
backgroundImage = {
imagePath = "../reference/@Celes/uppercase/C.png";
locked = 1;
pos = (-10,0);
scale = (14,14);
};
layerId = m006;
shapes = (
{
closed = 1;
nodes = (
(499,313,l),
(539,345,l),
(539,643,l),
(499,620,l),
(499,343,l),
(70,343,l),
(33,313,l)
);
},
{
closed = 1;
nodes = (
(239,33,l),
(70,158,l),
(70,268,l),
(30,268,l),
(30,141,l),
(239,-10,l)
);
},
{
closed = 1;
nodes = (
(539,56,l),
(539,281,l),
(499,251,l),
(499,77,l),
(427,33,l),
(427,-10,l)
);
},
{
closed = 1;
nodes = (
(439,620,l),
(539,680,l),
(539,700,l),
(390,620,l)
);
}
);
width = 580;
}
);
unicode = 67;
},
{
color = 1;
glyphname = D;
kernLeft = D;
kernRight = D;
lastChange = "2024-09-19 18:57:30 +0000";
layers = (
{
anchors = (
{
name = top;
pos = (336,600);
}
);
backgroundImage = {
imagePath = "../reference/@Celes/uppercase/D.png";
locked = 1;
pos = (-40,0);
scale = (14,14);
};
layerId = m01;
shapes = (
{
closed = 1;
nodes = (
(197,60,l),
(135,163,l),
(135,417,l),
(232,532,l),
(232,628,l),
(35,414,l),
(35,133,l),
(197,-10,l)
);
},
{
closed = 1;
nodes = (
(445,534,l),
(536,426,l),
(536,553,l),
(445,637,l)
);
},
{
closed = 1;
nodes = (
(390,130,l),
(390,700,l),
(290,700,l),
(290,130,l)
);
},
{
closed = 1;
nodes = (
(260,60,l),
(260,-10,l),
(435,-10,l),
(500,60,l)
);
}
);
width = 570;
},
{
anchors = (
{
name = top;
pos = (386,600);
}
);
backgroundImage = {
imagePath = "../reference/@Celes/uppercase/D.png";
locked = 1;
pos = (-10,0);
scale = (14,14);
};
layerId = m002;
shapes = (
{
closed = 1;
nodes = (
(256,121,l),
(195,165,l),
(195,416,l),
(266,506,l),
(266,632,l),
(35,415,l),
(35,131,l),
(256,-10,l)
);
},
{
closed = 1;
nodes = (
(500,530,l),
(616,373,l),
(616,575,l),
(500,654,l)
);
},
{
closed = 1;
nodes = (
(470,216,l),
(470,700,l),
(310,700,l),
(310,216,l)
);
},
{
closed = 1;
nodes = (
(306,76,l),
(306,-10,l),
(504,-10,l),
(595,76,l)
);
}
);
width = 650;
},
{
anchors = (
{
name = top;
pos = (416,600);
}
);
backgroundImage = {
imagePath = "../reference/@Celes/uppercase/D.png";
locked = 1;
pos = (30,0);
scale = (14,14);
};
layerId = m004;
shapes = (
{
closed = 1;
nodes = (
(239,60,l),
(135,163,l),
(135,417,l),
(274,619,l),
(274,700,l),
(35,414,l),
(35,133,l),
(239,-10,l)
);
},
{
closed = 1;
nodes = (
(541,627,l),
(696,456,l),
(696,573,l),
(541,700,l)
);
},
{
closed = 1;
nodes = (
(470,157,l),
(470,700,l),
(370,700,l),
(370,157,l)
);
},
{
closed = 1;
nodes = (
(312,60,l),
(312,-10,l),
(595,-10,l),
(660,60,l)
);
}
);
width = 730;
},
{
anchors = (
{
name = top;
pos = (306,600);
}
);
backgroundImage = {
imagePath = "../reference/@Celes/uppercase/D.png";
locked = 1;
pos = (-70,0);
scale = (14,14);
};
layerId = m005;
shapes = (
{
closed = 1;
nodes = (
(153,41,l),
(75,153,l),
(75,413,l),
(216,582,l),
(216,623,l),
(35,409,l),
(35,138,l),
(153,-10,l)
);
},
{
closed = 1;
nodes = (
(379,614,l),
(476,502,l),
(476,547,l),
(379,650,l)
);
},
{
closed = 1;
nodes = (
(330,80,l),
(330,700,l),
(290,700,l),
(290,80,l)
);
},
{
closed = 1;
nodes = (
(215,20,l),
(215,-10,l),
(399,-10,l),
(427,20,l)
);
}
);
width = 510;
},
{
anchors = (
{
name = top;
pos = (386,600);
}
);
backgroundImage = {
imagePath = "../reference/@Celes/uppercase/D.png";
locked = 1;
pos = (10,0);
scale = (14,14);
};
layerId = m006;
shapes = (
{
closed = 1;
nodes = (
(184,20,l),
(75,153,l),
(75,403,l),
(270,645,l),
(270,700,l),
(35,409,l),
(35,138,l),
(153,-10,l)
);
},
{
closed = 1;
nodes = (
(496,655,l),
(656,502,l),
(656,547,l),
(496,700,l)
);
},
{
closed = 1;
nodes = (
(410,109,l),
(410,700,l),
(370,700,l),
(370,106,l)
);
},
{
closed = 1;
nodes = (
(278,20,l),
(275,-10,l),
(589,-10,l),
(617,20,l)
);
}
);
width = 690;
}
);
unicode = 68;
},
{
color = 3;
glyphname = Eth;
kernLeft = D;
lastChange = "2024-08-28 13:02:11 +0000";
layers = (
{
layerId = m01;
shapes = (
{
ref = D;
},
{
closed = 1;
nodes = (
(454,305,l),
(519,375,l),
(245,375,l),
(180,305,l)
);
}
);
width = 570;
},
{
layerId = m002;
shapes = (
{
ref = D;
},
{
closed = 1;
nodes = (
(521,260,l),
(613,360,l),
(246,360,l),
(154,260,l)
);
}
);
width = 650;
},
{
layerId = m004;
shapes = (
{
ref = D;
},
{
closed = 1;
nodes = (
(574,305,l),
(639,375,l),
(245,375,l),
(180,305,l)
);
}
);
width = 730;
},
{
layerId = m005;
shapes = (
{
ref = D;
},
{
closed = 1;
nodes = (
(448,325,l),
(476,355,l),
(211,355,l),
(183,325,l)
);
}
);
width = 510;
},
{
layerId = m006;
shapes = (
{
ref = D;
},
{
closed = 1;
nodes = (
(568,325,l),
(596,355,l),
(211,355,l),
(183,325,l)
);
}
);
width = 690;
}
);
metricLeft = D;
metricRight = D;
unicode = 208;
},
{
color = 1;
glyphname = E;
kernLeft = E;
kernRight = E;
lastChange = "2024-09-19 19:17:37 +0000";
layers = (
{
anchors = (
{
name = top;
pos = (321,572);
}
);
backgroundImage = {
imagePath = "../reference/@Celes/uppercase/E.png";
locked = 1;
pos = (40,0);
scale = (14,14);
};
layerId = m01;
shapes = (
{
closed = 1;
nodes = (
(324,-10,l),
(499,147,l),
(499,279,l),
(399,279,l),
(399,174,l),
(272,60,l),
(164,60,l),
(52,135,l),
(52,67,l),
(152,-10,l)
);
},
{
closed = 1;
nodes = (
(85,573,l),
(162,643,l),
(162,700,l),
(35,613,l),
(35,573,l)
);
},
{
closed = 1;
nodes = (
(557,315,l),
(622,385,l),
(264,385,l),
(199,315,l)
);
},
{
closed = 1;
nodes = (
(499,593,l),
(450,643,l),
(218,643,l),
(146,573,l),
(399,573,l),
(399,429,l),
(499,428,l)
);
}
);
width = 650;
},
{
anchors = (
{
name = top;
pos = (351,602);
}
);
backgroundImage = {
imagePath = "../reference/@Celes/uppercase/E.png";
locked = 1;
pos = (70,0);
scale = (14,14);
};
layerId = m002;
shapes = (
{
closed = 1;
nodes = (
(390,-10,l),
(579,145,l),
(579,242,l),
(419,238,l),
(419,176,l),
(306,90,l),
(176,90,l),
(52,150,l),
(52,64,l),
(168,-10,l)
);
},
{
closed = 1;
nodes = (
(97,543,l),
(222,643,l),
(222,700,l),
(35,599,l),
(35,543,l)
);
},
{
closed = 1;
nodes = (
(625,300,l),
(717,400,l),
(276,400,l),
(184,300,l)
);
},
{
closed = 1;
nodes = (
(579,580,l),
(517,643,l),
(270,643,l),
(176,543,l),
(419,543,l),
(419,474,l),
(579,482,l)
);
}
);
width = 750;
},
{
anchors = (
{
name = top;
pos = (371,572);
}
);
backgroundImage = {
imagePath = "../reference/@Celes/uppercase/E.png";
locked = 1;
pos = (130,0);
scale = (14,14);
};
layerId = m004;
shapes = (
{
closed = 1;
nodes = (
(464,-10,l),
(639,147,l),
(639,282,l),
(539,282,l),
(539,174,l),
(412,60,l),
(186,60,l),
(52,135,l),
(52,67,l),
(152,-10,l)
);
},
{
closed = 1;
nodes = (
(106,573,l),
(202,643,l),
(202,700,l),
(35,613,l),
(35,573,l)
);
},
{
closed = 1;
nodes = (
(717,315,l),
(782,385,l),
(294,385,l),
(229,315,l)
);
},
{
closed = 1;
nodes = (
(639,593,l),
(590,643,l),
(266,643,l),
(214,573,l),
(539,573,l),
(539,433,l),
(639,440,l)
);
}
);
width = 810;
},
{
anchors = (
{
name = top;
pos = (291,572);
}
);
backgroundImage = {
imagePath = "../reference/@Celes/uppercase/E.png";
locked = 1;
pos = (10,0);
scale = (14,14);
};
layerId = m005;
shapes = (
{
closed = 1;
nodes = (
(280,-10,l),
(439,123,l),
(439,294,l),
(399,296,l),
(399,138,l),
(256,20,l),
(133,20,l),
(42,95,l),
(42,54,l),
(125,-10,l)
);
},
{
closed = 1;
nodes = (
(60,613,l),
(102,643,l),
(102,700,l),
(35,628,l),
(35,613,l)
);
},
{
closed = 1;
nodes = (
(511,325,l),
(539,355,l),
(250,355,l),
(222,325,l)
);
},
{
closed = 1;
nodes = (
(439,608,l),
(404,643,l),
(163,643,l),
(147,613,l),
(399,613,l),
(399,402,l),
(439,399,l)
);
}
);
width = 580;
},
{
anchors = (
{
name = top;
pos = (391,572);
}
);
backgroundImage = {
imagePath = "../reference/@Celes/uppercase/E.png";
locked = 1;
pos = (110,0);
scale = (14,14);
};
layerId = m006;
shapes = (
{
closed = 1;
nodes = (
(430,-10,l),
(589,123,l),
(589,267,l),
(549,262,l),
(549,138,l),
(406,20,l),
(133,20,l),
(42,95,l),
(42,54,l),
(125,-10,l)
);
},
{
closed = 1;
nodes = (
(65,613,l),
(102,643,l),
(102,700,l),
(35,628,l),
(35,613,l)
);
},
{
closed = 1;
nodes = (
(711,325,l),
(739,355,l),
(250,355,l),
(222,325,l)
);
},
{
closed = 1;
nodes = (
(589,608,l),
(554,643,l),
(162,643,l),
(123,613,l),
(549,613,l),
(549,422,l),
(589,421,l)
);
}
);
width = 770;
}
);
unicode = 69;
},
{
color = 3;
glyphname = F;
kernLeft = LCH;
kernRight = F;
lastChange = "2024-10-06 01:36:56 +0000";
layers = (
{
layerId = m01;
shapes = (
{
closed = 1;
nodes = (
(101,579,l),
(201,650,l),
(201,699,l),
(15,579,l)
);
},
{
closed = 1;
nodes = (
(201,30,l),
(201,587,l),
(101,545,l),
(101,-30,l)
);
},
{
closed = 1;
nodes = (
(503,398,l),
(394,480,l),
(240,480,l),
(240,410,l),
(376,410,l),
(503,348,l)
);
}
);
width = 530;
},
{
layerId = m002;
shapes = (
{
closed = 1;
nodes = (
(121,550,l),
(281,634,l),
(281,700,l),
(15,550,l)
);
},
{
closed = 1;
nodes = (
(281,66,l),
(281,565,l),
(121,498,l),
(121,-30,l)
);
},
{
closed = 1;
nodes = (
(583,411,l),
(458,505,l),
(316,505,l),
(316,405,l),
(416,405,l),
(583,323,l)
);
}
);
width = 610;
},
{
layerId = m004;
shapes = (
{
closed = 1;
nodes = (
(131,579,l),
(231,633,l),
(231,699,l),
(15,579,l)
);
},
{
closed = 1;
nodes = (
(231,30,l),
(231,580,l),
(131,537,l),
(131,-30,l)
);
},
{
closed = 1;
nodes = (
(663,398,l),
(514,480,l),
(274,480,l),
(274,410,l),
(496,410,l),
(663,348,l)
);
}
);
width = 690;
},
{
layerId = m005;
shapes = (
{
closed = 1;
nodes = (
(71,620,l),
(111,659,l),
(111,700,l),
(15,620,l)
);
},
{
closed = 1;
nodes = (
(111,0,l),
(111,605,l),
(71,584,l),
(71,-30,l)
);
},
{
closed = 1;
nodes = (
(423,392,l),
(335,460,l),
(148,460,l),
(148,430,l),
(325,430,l),
(423,367,l)
);
}
);
width = 450;
},
{
layerId = m006;
shapes = (
{
closed = 1;
nodes = (
(71,620,l),
(111,654,l),
(111,700,l),
(15,620,l)
);
},
{
closed = 1;
nodes = (
(111,0,l),
(111,600,l),
(71,578,l),
(71,-30,l)
);
},
{
closed = 1;
nodes = (
(593,392,l),
(445,460,l),
(150,460,l),
(150,430,l),
(435,430,l),
(593,367,l)
);
}
);
width = 620;
}
);
unicode = 70;
},
{
color = 1;
glyphname = G;
kernLeft = D;
kernRight = G;
lastChange = "2024-09-19 19:12:35 +0000";
layers = (
{
backgroundImage = {
imagePath = "../reference/@Celes/uppercase/G.png";
locked = 1;
pos = (-191,-115);
scale = (14,14);
};
layerId = m01;
shapes = (
{
closed = 1;
nodes = (
(136,466,l),
(269,630,l),
(397,630,l),
(462,700,l),
(241,700,l),
(38,466,l)
);
},
{
closed = 1;
nodes = (
(318,72,l),
(138,215,l),
(138,399,l),
(38,401,l),
(38,163,l),
(318,-10,l)
);
},
{
closed = 1;
nodes = (
(525,300,l),
(590,370,l),
(347,370,l),
(282,300,l)
);
},
{
closed = 1;
nodes = (
(369,-10,l),
(469,-10,l),
(469,269,l),
(369,268,l)
);
}
);
width = 600;
},
{
backgroundImage = {
imagePath = "../reference/@Celes/uppercase/G.png";
locked = 1;
pos = (-252,-1);
scale = (14,14);
};
layerId = m002;
shapes = (
{
closed = 1;
nodes = (
(198,468,l),
(318,600,l),
(505,600,l),
(597,700,l),
(253,700,l),
(38,467,l)
);
},
{
closed = 1;
nodes = (
(377,90,l),
(198,217,l),
(198,371,l),
(38,371,l),
(38,161,l),
(377,-10,l)
);
},
{
closed = 1;
nodes = (
(633,285,l),
(725,385,l),
(399,385,l),
(307,285,l)
);
},
{
closed = 1;
nodes = (
(429,-10,l),
(589,-10,l),
(589,215,l),
(429,212,l)
);
}
);
width = 740;
},
{
backgroundImage = {
imagePath = "../reference/@Celes/uppercase/G.png";
locked = 1;
pos = (-98,-11);
scale = (14,14);
};
layerId = m004;
shapes = (
{
closed = 1;
nodes = (
(138,469,l),
(289,630,l),
(597,630,l),
(662,700,l),
(261,700,l),
(38,466,l)
);
},
{
closed = 1;
nodes = (
(317,60,l),
(138,215,l),
(138,384,l),
(38,380,l),
(38,163,l),
(317,-10,l)
);
},
{
closed = 1;
nodes = (
(705,320,l),
(770,390,l),
(377,390,l),
(312,320,l)
);
},
{
closed = 1;
nodes = (
(499,-10,l),
(599,-10,l),
(599,252,l),
(499,248,l)
);
}
);
width = 780;
},
{
backgroundImage = {
imagePath = "../reference/@Celes/uppercase/G.png";
locked = 1;
pos = (-92,3);
scale = (14,14);
};
layerId = m005;
shapes = (
{
closed = 1;
nodes = (
(78,461,l),
(232,670,l),
(401,670,l),
(429,700,l),
(218,700,l),
(38,461,l)
);
},
{
closed = 1;
nodes = (
(250,20,l),
(78,184,l),
(78,405,l),
(38,405,l),
(38,169,l),
(250,-10,l)
);
},
{
closed = 1;
nodes = (
(499,320,l),
(527,350,l),
(283,350,l),
(255,320,l)
);
},
{
closed = 1;
nodes = (
(369,-10,l),
(409,-10,l),
(409,271,l),
(369,270,l)
);
}
);
width = 550;
},
{
backgroundImage = {
imagePath = "../reference/@Celes/uppercase/G.png";
locked = 1;
pos = (31,-134);
scale = (14,14);
};
layerId = m006;
shapes = (
{
closed = 1;
nodes = (
(78,461,l),
(262,670,l),
(561,670,l),
(589,700,l),
(248,700,l),
(38,461,l)
);
},
{
closed = 1;
nodes = (
(280,20,l),
(78,184,l),
(78,389,l),
(38,389,l),
(38,169,l),
(280,-10,l)
);
},
{
closed = 1;
nodes = (
(719,320,l),
(747,350,l),
(323,350,l),
(295,320,l)
);
},
{
closed = 1;
nodes = (
(499,-10,l),
(539,-10,l),
(539,262,l),
(499,259,l)
);
}
);
width = 770;
}
);
unicode = 71;
},
{
color = 3;
glyphname = H;
kernLeft = LCH;
kernRight = H;
lastChange = "2024-10-06 06:06:30 +0000";
layers = (
{
layerId = m01;
shapes = (
{
closed = 1;
nodes = (
(201,509,l),
(201,700,l),
(15,579,l),
(101,579,l),
(101,422,l)
);
},
{
closed = 1;
nodes = (
(201,40,l),
(201,323,l),
(535,700,l),
(426,700,l),
(101,333,l),
(101,-30,l)
);
},
{
closed = 1;
nodes = (
(525,148,l),
(525,371,l),
(445,407,l),
(334,407,l),
(248,337,l),
(425,337,l),
(425,164,l),
(341,32,l),
(341,-20,l)
);
}
);
width = 560;
},
{
layerId = m002;
shapes = (
{
closed = 1;
nodes = (
(281,556,l),
(281,700,l),
(16,549,l),
(121,549,l),
(121,461,l)
);
},
{
closed = 1;
nodes = (
(281,80,l),
(281,362,l),
(679,700,l),
(513,700,l),
(121,384,l),
(121,-32,l)
);
},
{
closed = 1;
nodes = (
(655,146,l),
(655,377,l),
(554,422,l),
(464,422,l),
(339,322,l),
(495,322,l),
(495,165,l),
(411,79,l),
(411,-30,l)
);
}
);
width = 690;
},
{
layerId = m004;
shapes = (
{
closed = 1;
nodes = (
(231,513,l),
(231,700,l),
(15,579,l),
(131,579,l),
(131,466,l)
);
},
{
closed = 1;
nodes = (
(231,40,l),
(231,357,l),
(731,700,l),
(600,700,l),
(131,394,l),
(131,-30,l)
);
},
{
closed = 1;
nodes = (
(735,148,l),
(735,371,l),
(655,427,l),
(397,427,l),
(295,357,l),
(635,357,l),
(635,164,l),
(511,32,l),
(511,-20,l)
);
}
);
width = 770;
},
{
layerId = m005;
shapes = (
{
closed = 1;
nodes = (
(121,481,l),
(121,700,l),
(24,619,l),
(81,619,l),
(81,430,l)
);
},
{
closed = 1;
nodes = (
(121,0,l),
(121,357,l),
(449,700,l),
(398,700,l),
(81,378,l),
(81,-30,l)
);
},
{
closed = 1;
nodes = (
(445,130,l),
(445,361,l),
(411,387,l),
(193,387,l),
(162,357,l),
(405,357,l),
(405,139,l),
(297,10,l),
(297,-20,l)
);
}
);
width = 480;
},
{
layerId = m006;
shapes = (
{
closed = 1;
nodes = (
(121,466,l),
(121,700,l),
(24,619,l),
(81,619,l),
(81,437,l)
);
},
{
closed = 1;
nodes = (
(121,0,l),
(121,379,l),
(619,700,l),
(553,700,l),
(81,396,l),
(81,-30,l)
);
},
{
closed = 1;
nodes = (
(645,150,l),
(645,371,l),
(611,397,l),
(213,397,l),
(169,367,l),
(605,367,l),
(605,159,l),
(447,10,l),
(447,-20,l)
);
}
);
width = 680;
}
);
unicode = 72;
},
{
color = 1;
glyphname = I;
kernLeft = LCH;
kernRight = RCH;
lastChange = "2024-09-19 19:18:01 +0000";
layers = (
{
anchors = (
{
name = top;
pos = (155,600);
}
);
backgroundImage = {
imagePath = "../reference/@Celes/uppercase/I.png";
locked = 1;
pos = (-170,0);
scale = (14,14);
};
layerId = m01;
shapes = (
{
closed = 1;
nodes = (
(225,654,l),
(225,700,l),
(15,580,l),
(98,580,l)
);
},
{
closed = 1;
nodes = (
(125,553,l),
(125,-30,l),
(225,30,l),
(225,606,l)
);
}
);
width = 270;
},
{
anchors = (
{
name = top;
pos = (215,620);
}
);
backgroundImage = {
imagePath = "../reference/@Celes/uppercase/I.png";
locked = 1;
pos = (-110,0);
scale = (14,14);
};
layerId = m002;
shapes = (
{
closed = 1;
nodes = (
(315,645,l),
(315,700,l),
(21,550,l),
(113,550,l)
);
},
{
closed = 1;
nodes = (
(155,493,l),
(155,-30,l),
(315,66,l),
(315,589,l)
);
}
);
width = 370;
},
{
anchors = (
{
name = top;
pos = (205,600);
}
);
backgroundImage = {
imagePath = "../reference/@Celes/uppercase/I.png";
locked = 1;
pos = (-120,0);
scale = (14,14);
};
layerId = m004;
shapes = (
{
closed = 1;
nodes = (
(275,664,l),
(275,700,l),
(35,580,l),
(146,580,l)
);
},
{
closed = 1;
nodes = (
(175,533,l),
(175,-30,l),
(275,30,l),
(275,585,l)
);
}
);
width = 380;
},
{
anchors = (
{
name = top;
pos = (85,600);
}
);
backgroundImage = {
imagePath = "../reference/@Celes/uppercase/I.png";
locked = 1;
pos = (-240,0);
scale = (14,14);
};
layerId = m005;
shapes = (
{
closed = 1;
nodes = (
(125,679,l),
(125,700,l),
(11,620,l),
(68,620,l)
);
},
{
closed = 1;
nodes = (
(85,579,l),
(85,-30,l),
(125,0,l),
(125,630,l)
);
}
);
width = 190;
},
{
anchors = (
{
name = top;
pos = (195,600);
}
);
backgroundImage = {
imagePath = "../reference/@Celes/uppercase/I.png";
locked = 1;
pos = (-130,0);
scale = (14,14);
};
layerId = m006;
shapes = (
{
closed = 1;
nodes = (
(235,662,l),
(235,700,l),
(41,620,l),
(137,620,l)
);
},
{
closed = 1;
nodes = (
(195,558,l),
(195,-30,l),
(235,0,l),
(235,585,l)
);
}
);
width = 340;
}
);
unicode = 73;
},
{
color = 3;
glyphname = J;
kernLeft = J;
kernRight = J;
lastChange = "2024-10-06 01:42:45 +0000";
layers = (
{
anchors = (
{
name = top;
pos = (197,600);
}
);
layerId = m01;
shapes = (
{
closed = 1;
nodes = (
(135,580,l),
(235,635,l),
(235,700,l),
(25,580,l)
);
},
{
closed = 1;
nodes = (
(235,393,l),
(235,559,l),
(135,522,l),
(135,393,l)
);
},
{
closed = 1;
nodes = (
(467,-10,l),
(580,131,l),
(530,131,l),
(429,60,l),
(303,60,l),
(235,182,l),
(235,244,l),
(135,244,l),
(135,137,l),
(225,-10,l)
);
},
{
closed = 1;
nodes = (
(302,280,l),
(367,350,l),
(94,350,l),
(29,280,l)
);
}
);
width = 600;
},
{
anchors = (
{
name = top;
pos = (277,620);
}
);
layerId = m002;
shapes = (
{
closed = 1;
nodes = (
(165,550,l),
(325,601,l),
(325,700,l),
(31,550,l)
);
},
{
closed = 1;
nodes = (
(325,403,l),
(325,523,l),
(165,483,l),
(165,403,l)
);
},
{
closed = 1;
nodes = (
(586,-10,l),
(722,156,l),
(617,156,l),
(516,90,l),
(405,90,l),
(325,182,l),
(325,227,l),
(165,227,l),
(165,136,l),
(284,-10,l)
);
},
{
closed = 1;
nodes = (
(380,265,l),
(472,365,l),
(136,365,l),
(44,265,l)
);
}
);
width = 750;
},
{
anchors = (
{
name = top;
pos = (277,600);
}
);
layerId = m004;
shapes = (
{
closed = 1;
nodes = (
(215,580,l),
(315,626,l),
(315,700,l),
(75,580,l)
);
},
{
closed = 1;
nodes = (
(315,403,l),
(315,538,l),
(215,505,l),
(215,403,l)
);
},
{
closed = 1;
nodes = (
(687,-10,l),
(800,151,l),
(750,151,l),
(649,60,l),
(413,60,l),
(315,182,l),
(315,244,l),
(215,244,l),
(215,137,l),
(335,-10,l)
);
},
{
closed = 1;
nodes = (
(412,280,l),
(477,350,l),
(104,350,l),
(39,280,l)
);
}
);
width = 820;
},
{
anchors = (
{
name = top;
pos = (167,600);
}
);
layerId = m005;
shapes = (
{
closed = 1;
nodes = (
(135,620,l),
(175,640,l),
(175,700,l),
(61,620,l)
);
},
{
closed = 1;
nodes = (
(175,360,l),
(175,564,l),
(135,542,l),
(135,360,l)
);
},
{
closed = 1;
nodes = (
(420,-10,l),
(527,131,l),
(502,131,l),
(403,20,l),
(243,20,l),
(175,153,l),
(175,253,l),
(135,253,l),
(135,140,l),
(215,-10,l)
);
},
{
closed = 1;
nodes = (
(276,290,l),
(304,320,l),
(50,320,l),
(22,290,l)
);
}
);
width = 550;
},
{
anchors = (
{
name = top;
pos = (217,600);
}
);
layerId = m006;
shapes = (
{
closed = 1;
nodes = (
(185,620,l),
(225,640,l),
(225,700,l),
(71,620,l)
);
},
{
closed = 1;
nodes = (
(225,377,l),
(225,567,l),
(185,556,l),
(185,377,l)
);
},
{
closed = 1;
nodes = (
(590,-10,l),
(727,151,l),
(702,151,l),
(573,20,l),
(343,20,l),
(225,153,l),
(225,251,l),
(185,251,l),
(185,140,l),
(315,-10,l)
);
},
{
closed = 1;
nodes = (
(376,290,l),
(404,320,l),
(50,320,l),
(22,290,l)
);
}
);
width = 750;
}
);
unicode = 74;
},
{
color = 3;
glyphname = K;
kernLeft = K;
kernRight = K;
lastChange = "2024-10-06 06:09:38 +0000";
layers = (
{
layerId = m01;
shapes = (
{
closed = 1;
nodes = (
(235,529,l),
(235,700,l),
(25,580,l),
(135,580,l),
(135,401,l)
);
},
{
closed = 1;
nodes = (
(403,240,l),
(581,318,l),
(581,500,l),
(492,570,l),
(317,570,l),
(135,293,l),
(185,293,l),
(342,500,l),
(481,500,l),
(481,356,l),
(303,280,l)
);
},
{
closed = 1;
nodes = (
(303,236,l),
(303,99,l),
(427,-30,l),
(477,-30,l),
(403,107,l),
(403,196,l)
);
}
);
width = 610;
},
{
layerId = m002;
shapes = (
{
closed = 1;
nodes = (
(325,552,l),
(325,700,l),
(31,550,l),
(165,550,l),
(165,344,l)
);
},
{
closed = 1;
nodes = (
(543,210,l),
(761,289,l),
(761,513,l),
(656,595,l),
(398,595,l),
(165,268,l),
(275,268,l),
(449,495,l),
(601,495,l),
(601,335,l),
(383,280,l)
);
},
{
closed = 1;
nodes = (
(383,239,l),
(383,102,l),
(521,-30,l),
(626,-30,l),
(543,113,l),
(543,169,l)
);
}
);
width = 790;
},
{
layerId = m004;
shapes = (
{
closed = 1;
nodes = (
(265,490,l),
(265,700,l),
(25,580,l),
(165,580,l),
(165,358,l)
);
},
{
closed = 1;
nodes = (
(543,238,l),
(841,327,l),
(841,553,l),
(752,620,l),
(437,620,l),
(165,263,l),
(244,263,l),
(462,550,l),
(741,550,l),
(741,377,l),
(443,298,l)
);
},
{
closed = 1;
nodes = (
(443,253,l),
(443,139,l),
(637,-30,l),
(687,-30,l),
(543,147,l),
(543,193,l)
);
}
);
width = 870;
},
{
layerId = m005;
shapes = (
{
closed = 1;
nodes = (
(135,429,l),
(135,700,l),
(21,620,l),
(95,620,l),
(95,379,l)
);
},
{
closed = 1;
nodes = (
(303,240,l),
(481,340,l),
(481,514,l),
(441,550,l),
(239,550,l),
(95,313,l),
(135,313,l),
(264,520,l),
(441,520,l),
(441,359,l),
(263,260,l)
);
},
{
closed = 1;
nodes = (
(263,218,l),
(263,104,l),
(368,-30,l),
(394,-30,l),
(303,104,l),
(303,198,l)
);
}
);
width = 510;
},
{
layerId = m006;
shapes = (
{
closed = 1;
nodes = (
(175,445,l),
(175,700,l),
(21,620,l),
(135,620,l),
(135,382,l)
);
},
{
closed = 1;
nodes = (
(443,251,l),
(741,414,l),
(741,564,l),
(701,600,l),
(359,600,l),
(135,313,l),
(173,313,l),
(374,570,l),
(701,570,l),
(701,436,l),
(403,271,l)
);
},
{
closed = 1;
nodes = (
(403,227,l),
(403,130,l),
(578,-30,l),
(604,-30,l),
(443,154,l),
(443,207,l)
);
}
);
width = 770;
}
);
unicode = 75;
},
{
color = 1;
glyphname = L;
kernLeft = L;
kernRight = L;
lastChange = "2024-10-06 01:38:40 +0000";
layers = (
{
backgroundImage = {
imagePath = "../reference/@Celes/uppercase/L.png";
locked = 1;
pos = (-130,0);
scale = (14,14);
};
layerId = m01;
shapes = (
{
closed = 1;
nodes = (
(242,661,l),
(242,700,l),
(32,580,l),
(142,580,l)
);
},
{
closed = 1;
nodes = (
(242,320,l),
(242,633,l),
(142,544,l),
(142,318,l)
);
},
{
closed = 1;
nodes = (
(272,214,l),
(337,284,l),
(103,284,l),
(38,214,l)
);
},
{
closed = 1;
nodes = (
(280,70,l),
(242,70,l),
(242,188,l),
(142,188,l),
(142,70,l),
(93,70,l),
(28,0,l),
(280,0,l)
);
},
{
closed = 1;
nodes = (
(306,0,l),
(404,95,l),
(306,95,l)
);
}
);
width = 420;
},
{
backgroundImage = {
imagePath = "../reference/@Celes/uppercase/L.png";
locked = 1;
pos = (-80,0);
scale = (14,14);
};
layerId = m002;
shapes = (
{
closed = 1;
nodes = (
(322,641,l),
(322,700,l),
(28,550,l),
(162,550,l)
);
},
{
closed = 1;
nodes = (
(322,360,l),
(322,548,l),
(162,464,l),
(162,361,l)
);
},
{
closed = 1;
nodes = (
(360,209,l),
(452,309,l),
(135,309,l),
(43,209,l)
);
},
{
closed = 1;
nodes = (
(358,100,l),
(322,100,l),
(322,160,l),
(162,160,l),
(162,100,l),
(125,100,l),
(33,0,l),
(358,0,l)
);
},
{
closed = 1;
nodes = (
(411,0,l),
(560,148,l),
(411,148,l)
);
}
);
width = 580;
},
{
backgroundImage = {
imagePath = "../reference/@Celes/uppercase/L.png";
locked = 1;
scale = (14,14);
};
layerId = m004;
shapes = (
{
closed = 1;
nodes = (
(372,669,l),
(372,700,l),
(142,580,l),
(272,580,l)
);
},
{
closed = 1;
nodes = (
(372,316,l),
(372,625,l),
(272,542,l),
(272,316,l)
);
},
{
closed = 1;
nodes = (
(492,214,l),
(557,284,l),
(133,284,l),
(68,214,l)
);
},
{
closed = 1;
nodes = (
(452,70,l),
(372,70,l),
(372,183,l),
(272,183,l),
(272,70,l),
(93,70,l),
(28,0,l),
(452,0,l)
);
},
{
closed = 1;
nodes = (
(512,0,l),
(624,95,l),
(512,95,l)
);
}
);
width = 640;
},
{
backgroundImage = {
imagePath = "../reference/@Celes/uppercase/L.png";
locked = 1;
pos = (-180,0);
scale = (14,14);
};
layerId = m005;
shapes = (
{
closed = 1;
nodes = (
(162,666,l),
(162,700,l),
(48,620,l),
(122,620,l)
);
},
{
closed = 1;
nodes = (
(162,308,l),
(162,638,l),
(122,590,l),
(122,308,l)
);
},
{
closed = 1;
nodes = (
(216,254,l),
(244,284,l),
(69,284,l),
(41,254,l)
);
},
{
closed = 1;
nodes = (
(215,30,l),
(162,30,l),
(162,230,l),
(122,230,l),
(122,30,l),
(59,30,l),
(31,0,l),
(215,0,l)
);
},
{
closed = 1;
nodes = (
(241,0,l),
(301,55,l),
(241,55,l)
);
}
);
width = 330;
},
{
backgroundImage = {
imagePath = "../reference/@Celes/uppercase/L.png";
locked = 1;
pos = (-50,0);
scale = (14,14);
};
layerId = m006;
shapes = (
{
closed = 1;
nodes = (
(292,661,l),
(292,700,l),
(138,620,l),
(252,620,l)
);
},
{
closed = 1;
nodes = (
(292,321,l),
(292,630,l),
(252,585,l),
(252,321,l)
);
},
{
closed = 1;
nodes = (
(426,254,l),
(454,284,l),
(129,284,l),
(101,254,l)
);
},
{
closed = 1;
nodes = (
(406,30,l),
(292,30,l),
(292,212,l),
(252,212,l),
(252,30,l),
(59,30,l),
(31,0,l),
(406,0,l)
);
},
{
closed = 1;
nodes = (
(445,0,l),
(545,55,l),
(445,55,l)
);
}
);
width = 560;
}
);
unicode = 76;
},
{
color = 1;
glyphname = M;
kernLeft = M;
kernRight = M;
lastChange = "2024-09-19 19:32:05 +0000";
layers = (
{
backgroundImage = {
imagePath = "../reference/@Celes/uppercase/M.png";
locked = 1;
pos = (-74,-109);
scale = (14,14);
};
guides = (
{
angle = 47.1211;
pos = (329,35);
}
);
layerId = m01;
shapes = (
{
closed = 1;
nodes = (
(892,0,l),
(957,70,l),
(896,70,l),
(682,560,l),
(608,560,l),
(533,490,l),
(603,490,l),
(812,0,l)
);
},
{
closed = 1;
nodes = (
(239,100,l),
(239,601,l),
(139,535,l),
(139,100,l)
);
},
{
closed = 1;
nodes = (
(239,647,l),
(239,700,l),
(29,580,l),
(139,580,l)
);
},
{
closed = 1;
nodes = (
(632,0,l),
(697,70,l),
(636,70,l),
(422,560,l),
(348,560,l),
(273,490,l),
(343,490,l),
(552,0,l)
);
},
{
closed = 1;
nodes = (
(90,70,l),
(25,0,l),
(310,0,l),
(375,70,l)
);
}
);
width = 980;
},
{
backgroundImage = {
imagePath = "../reference/@Celes/uppercase/M.png";
locked = 1;
pos = (-24,-109);
scale = (14,14);
};
guides = (
{
angle = 47.1211;
pos = (379,35);
}
);
layerId = m002;
shapes = (
{
closed = 1;
nodes = (
(1100,0,l),
(1192,100,l),
(1110,100,l),
(856,575,l),
(766,575,l),
(659,475,l),
(729,475,l),
(978,0,l)
);
},
{
closed = 1;
nodes = (
(319,135,l),
(319,561,l),
(159,493,l),
(159,135,l)
);
},
{
closed = 1;
nodes = (
(319,620,l),
(319,700,l),
(25,550,l),
(159,550,l)
);
},
{
closed = 1;
nodes = (
(750,0,l),
(842,100,l),
(760,100,l),
(516,575,l),
(453,575,l),
(346,475,l),
(389,475,l),
(628,0,l)
);
},
{
closed = 1;
nodes = (
(122,100,l),
(30,0,l),
(378,0,l),
(470,100,l)
);
}
);
width = 1220;
},
{
backgroundImage = {
imagePath = "../reference/@Celes/uppercase/M.png";
locked = 1;
pos = (106,-109);
scale = (14,14);
};
layerId = m004;
shapes = (
{
closed = 1;
nodes = (
(1252,0,l),
(1317,70,l),
(1206,70,l),
(872,560,l),
(748,560,l),
(673,490,l),
(793,490,l),
(1122,0,l)
);
},
{
closed = 1;
nodes = (
(309,108,l),
(309,576,l),
(209,522,l),
(209,108,l)
);
},
{
closed = 1;
nodes = (
(309,657,l),
(309,700,l),
(59,580,l),
(183,580,l)
);
},
{
closed = 1;
nodes = (
(872,0,l),
(937,70,l),
(836,70,l),
(532,560,l),
(418,560,l),
(343,490,l),
(453,490,l),
(752,0,l)
);
},
{
closed = 1;
nodes = (
(90,70,l),
(25,0,l),
(490,0,l),
(555,70,l)
);
}
);
width = 1380;
},
{
backgroundImage = {
imagePath = "../reference/@Celes/uppercase/M.png";
locked = 1;
pos = (-124,-109);
scale = (14,14);
};
layerId = m005;
shapes = (
{
closed = 1;
nodes = (
(846,0,l),
(874,30,l),
(814,30,l),
(600,560,l),
(523,560,l),
(491,530,l),
(565,530,l),
(774,0,l)
);
},
{
closed = 1;
nodes = (
(159,58,l),
(159,599,l),
(119,556,l),
(119,58,l)
);
},
{
closed = 1;
nodes = (
(159,656,l),
(159,700,l),
(45,620,l),
(119,620,l)
);
},
{
closed = 1;
nodes = (
(586,0,l),
(614,30,l),
(554,30,l),
(340,560,l),
(263,560,l),
(231,530,l),
(305,530,l),
(514,0,l)
);
},
{
closed = 1;
nodes = (
(56,30,l),
(28,0,l),
(244,0,l),
(272,30,l)
);
}
);
width = 900;
},
{
backgroundImage = {
imagePath = "../reference/@Celes/uppercase/M.png";
locked = 1;
pos = (26,-109);
scale = (14,14);
};
layerId = m006;
shapes = (
{
closed = 1;
nodes = (
(1166,0,l),
(1194,30,l),
(1059,30,l),
(745,560,l),
(633,560,l),
(601,530,l),
(715,530,l),
(1024,0,l)
);
},
{
closed = 1;
nodes = (
(219,56,l),
(219,580,l),
(179,555,l),
(179,56,l)
);
},
{
closed = 1;
nodes = (
(219,652,l),
(219,700,l),
(45,620,l),
(133,620,l)
);
},
{
closed = 1;
nodes = (
(856,0,l),
(884,30,l),
(749,30,l),
(435,560,l),
(323,560,l),
(291,530,l),
(405,530,l),
(714,0,l)
);
},
{
closed = 1;
nodes = (
(56,30,l),
(28,0,l),
(374,0,l),
(402,30,l)
);
}
);
width = 1220;
}
);
unicode = 77;
},
{
color = 1;
glyphname = N;
kernLeft = N;
kernRight = N;
lastChange = "2024-09-19 19:44:45 +0000";
layers = (
{
anchors = (
{
name = top;
pos = (397,677);
}
);
annotations = (
{
pos = (620,-24);
text = " contrast";
type = Text;
},
{
angle = -56.39173;
pos = (621,50);
type = Arrow;
}
);
backgroundImage = {
imagePath = "../reference/@Celes/uppercase/N.png";
locked = 1;
pos = (100,0);
scale = (14,14);
};
layerId = m01;
shapes = (
{
closed = 1;
nodes = (
(267,487,l),
(267,700,l),
(127,700,l),
(174,650,l),
(173,487,l)
);
},
{
closed = 1;
nodes = (
(460,-10,l),
(460,100,l),
(397,100,l),
(249,356,l),
(347,356,l),
(404,426,l),
(87,426,l),
(25,356,l),
(171,356,l),
(384,-10,l)
);
},
{
closed = 1;
nodes = (
(267,30,l),
(267,110,l),
(167,230,l),
(167,-30,l)
);
},
{
closed = 1;
nodes = (
(662,119,l),
(662,376,l),
(463,700,l),
(362,700,l),
(562,336,l),
(562,156,l),
(533,100,l),
(533,-10,l)
);
},
{
closed = 1;
nodes = (
(657,630,l),
(703,700,l),
(561,700,l),
(561,630,l)
);
}
);
width = 730;
},
{
anchors = (
{
name = top;
pos = (504,605);
}
);
annotations = (
{
pos = (620,-24);
text = " contrast";
type = Text;
},
{
angle = -56.39173;
pos = (621,50);
type = Arrow;
}
);
backgroundImage = {
imagePath = "../reference/@Celes/uppercase/N.png";
locked = 1;
pos = (150,0);
scale = (14,14);
};
layerId = m002;
shapes = (
{
closed = 1;
nodes = (
(347,510,l),
(347,700,l),
(135,700,l),
(193,633,l),
(193,510,l)
);
},
{
closed = 1;
nodes = (
(606,-10,l),
(606,130,l),
(490,130,l),
(356,341,l),
(436,341,l),
(517,441,l),
(119,441,l),
(30,341,l),
(234,341,l),
(441,-10,l)
);
},
{
closed = 1;
nodes = (
(347,66,l),
(347,110,l),
(187,261,l),
(187,-30,l)
);
},
{
closed = 1;
nodes = (
(832,-10,l),
(832,377,l),
(623,700,l),
(490,700,l),
(672,335,l),
(672,130,l),
(672,130,l),
(672,-10,l)
);
},
{
closed = 1;
nodes = (
(818,615,l),
(883,700,l),
(725,700,l),
(725,615,l)
);
}
);
width = 910;
},
{
anchors = (
{
name = top;
pos = (514,594);
}
);
annotations = (
{
pos = (620,-24);
text = " contrast";
type = Text;
},
{
angle = -56.39173;
pos = (621,50);
type = Arrow;
}
);
backgroundImage = {
imagePath = "../reference/@Celes/uppercase/N.png";
locked = 1;
pos = (210,0);
scale = (14,14);
};
layerId = m004;
shapes = (
{
closed = 1;
nodes = (
(317,486,l),
(317,700,l),
(137,700,l),
(222,620,l),
(222,486,l)
);
},
{
closed = 1;
nodes = (
(582,-10,l),
(582,100,l),
(487,100,l),
(317,376,l),
(457,376,l),
(514,446,l),
(87,446,l),
(25,376,l),
(221,376,l),
(474,-10,l)
);
},
{
closed = 1;
nodes = (
(317,30,l),
(317,172,l),
(217,265,l),
(217,-30,l)
);
},
{
closed = 1;
nodes = (
(872,119,l),
(872,376,l),
(613,700,l),
(524,700,l),
(772,336,l),
(772,197,l),
(624,100,l),
(624,-10,l)
);
},
{
closed = 1;
nodes = (
(887,630,l),
(933,700,l),
(746,700,l),
(749,630,l)
);
}
);
width = 960;
},
{
anchors = (
{
name = top;
pos = (354,594);
}
);
annotations = (
{
pos = (620,-24);
text = " contrast";
type = Text;
},
{
angle = -56.39173;
pos = (621,50);
type = Arrow;
}
);
backgroundImage = {
imagePath = "../reference/@Celes/uppercase/N.png";
locked = 1;
pos = (50,0);
scale = (14,14);
};
layerId = m005;
shapes = (
{
closed = 1;
nodes = (
(187,449,l),
(187,700,l),
(126,700,l),
(147,675,l),
(147,449,l)
);
},
{
closed = 1;
nodes = (
(392,-10,l),
(396,34,l),
(352,34,l),
(189,376,l),
(280,376,l),
(304,406,l),
(53,406,l),
(27,376,l),
(147,376,l),
(333,-10,l)
);
},
{
closed = 1;
nodes = (
(187,0,l),
(187,223,l),
(147,292,l),
(147,-30,l)
);
},
{
closed = 1;
nodes = (
(582,107,l),
(582,367,l),
(433,700,l),
(390,700,l),
(542,363,l),
(542,114,l),
(440,34,l),
(441,-10,l)
);
},
{
closed = 1;
nodes = (
(600,660,l),
(628,700,l),
(496,700,l),
(495,660,l)
);
}
);
width = 660;
},
{
anchors = (
{
name = top;
pos = (484,594);
}
);
annotations = (
{
pos = (620,-24);
text = " contrast";
type = Text;
},
{
angle = -56.39173;
pos = (621,50);
type = Arrow;
}
);
backgroundImage = {
imagePath = "../reference/@Celes/uppercase/N.png";
locked = 1;
pos = (180,0);
scale = (14,14);
};
layerId = m006;
shapes = (
{
closed = 1;
nodes = (
(237,456,l),
(237,700,l),
(176,700,l),
(197,675,l),
(197,453,l)
);
},
{
closed = 1;
nodes = (
(538,-10,l),
(543,25,l),
(482,25,l),
(247,366,l),
(410,366,l),
(434,396,l),
(53,396,l),
(27,366,l),
(197,366,l),
(453,-10,l)
);
},
{
closed = 1;
nodes = (
(237,0,l),
(237,240,l),
(197,282,l),
(197,-30,l)
);
},
{
closed = 1;
nodes = (
(812,107,l),
(812,383,l),
(625,700,l),
(573,700,l),
(772,363,l),
(772,114,l),
(626,25,l),
(626,-10,l)
);
},
{
closed = 1;
nodes = (
(830,660,l),
(858,700,l),
(693,700,l),
(694,660,l)
);
}
);
width = 890;
}
);
unicode = 78;
},
{
color = 1;
glyphname = O;
kernLeft = O;
kernRight = O;
lastChange = "2024-09-19 19:48:33 +0000";
layers = (
{
anchors = (
{
name = top;
pos = (239,630);
}
);
backgroundImage = {
imagePath = "../reference/@Celes/uppercase/O.png";
locked = 1;
pos = (-283,-119);
scale = (14,14);
};
layerId = m01;
shapes = (
{
closed = 1;
nodes = (
(448,120,l),
(448,556,l),
(278,700,l),
(118,700,l),
(42,629,l),
(209,629,l),
(348,496,l),
(348,172,l)
);
},
{
closed = 1;
nodes = (
(271,60,l),
(142,200,l),
(142,480,l),
(42,533,l),
(42,152,l),
(190,-10,l),
(368,-10,l),
(448,60,l)
);
}
);
width = 490;
},
{
anchors = (
{
name = top;
pos = (319,630);
}
);
backgroundImage = {
imagePath = "../reference/@Celes/uppercase/O.png";
locked = 1;
pos = (-253,-119);
scale = (14,14);
};
layerId = m002;
shapes = (
{
closed = 1;
nodes = (
(548,154,l),
(548,558,l),
(363,710,l),
(132,710,l),
(42,610,l),
(263,610,l),
(388,494,l),
(388,224,l)
);
},
{
closed = 1;
nodes = (
(319,90,l),
(202,202,l),
(202,469,l),
(42,553,l),
(42,150,l),
(202,-10,l),
(456,-10,l),
(548,90,l)
);
}
);
width = 590;
},
{
anchors = (
{
name = top;
pos = (329,630);
}
);
backgroundImage = {
imagePath = "../reference/@Celes/uppercase/O.png";
locked = 1;
pos = (-193,-119);
scale = (14,14);
};
layerId = m004;
shapes = (
{
closed = 1;
nodes = (
(628,122,l),
(628,556,l),
(458,700,l),
(118,700,l),
(42,630,l),
(389,630,l),
(528,506,l),
(528,177,l)
);
},
{
closed = 1;
nodes = (
(271,60,l),
(142,200,l),
(142,512,l),
(42,582,l),
(42,152,l),
(190,-10,l),
(548,-10,l),
(628,60,l)
);
}
);
width = 670;
},
{
anchors = (
{
name = top;
pos = (209,630);
}
);
backgroundImage = {
imagePath = "../reference/@Celes/uppercase/O.png";
locked = 1;
pos = (-313,-119);
scale = (14,14);
};
layerId = m005;
shapes = (
{
closed = 1;
nodes = (
(388,69,l),
(388,580,l),
(249,700,l),
(84,700,l),
(49,670,l),
(218,670,l),
(348,555,l),
(348,106,l)
);
},
{
closed = 1;
nodes = (
(209,20,l),
(82,160,l),
(82,604,l),
(42,625,l),
(42,137,l),
(176,-10,l),
(352,-10,l),
(388,20,l)
);
}
);
width = 430;
},
{
anchors = (
{
name = top;
pos = (299,630);
}
);
backgroundImage = {
imagePath = "../reference/@Celes/uppercase/O.png";
locked = 1;
pos = (-223,-119);
scale = (14,14);
};
layerId = m006;
shapes = (
{
closed = 1;
nodes = (
(578,77,l),
(578,572,l),
(430,700,l),
(84,700,l),
(49,670,l),
(408,670,l),
(538,555,l),
(538,115,l)
);
},
{
closed = 1;
nodes = (
(201,20,l),
(82,153,l),
(82,560,l),
(42,594,l),
(42,137,l),
(176,-10,l),
(542,-10,l),
(578,20,l)
);
}
);
width = 620;
}
);
unicode = 79;
},
{
color = 3;
glyphname = Oslash;
kernLeft = O;
kernRight = O;
lastChange = "2024-08-28 12:50:27 +0000";
layers = (
{
layerId = m01;
shapes = (
{
ref = O;
},
{
closed = 1;
nodes = (
(50,-30,l),
(150,-30,l),
(440,720,l),
(340,720,l)
);
}
);
width = 490;
},
{
layerId = m002;
shapes = (
{
ref = O;
},
{
closed = 1;
nodes = (
(44,-60,l),
(204,-60,l),
(566,750,l),
(406,750,l)
);
}
);
width = 490;
},
{
layerId = m004;
shapes = (
{
ref = O;
},
{
closed = 1;
nodes = (
(10,-30,l),
(110,-30,l),
(650,720,l),
(550,720,l)
);
}
);
width = 670;
},
{
layerId = m005;
shapes = (
{
ref = O;
},
{
closed = 1;
nodes = (
(47,-30,l),
(85,-30,l),
(381,710,l),
(343,710,l)
);
}
);
width = 430;
},
{
layerId = m006;
shapes = (
{
ref = O;
},
{
closed = 1;
nodes = (
(37,-30,l),
(75,-30,l),
(571,710,l),
(533,710,l)
);
}
);
width = 620;
}
);
unicode = 216;
},
{
color = 3;
glyphname = OE;
kernLeft = O;
kernRight = E;
lastChange = "2024-08-28 12:52:55 +0000";
layers = (
{
layerId = m01;
shapes = (
{
closed = 1;
nodes = (
(368,-10,l),
(448,79,l),
(448,600,l),
(348,700,l),
(118,700,l),
(42,629,l),
(42,152,l),
(190,-10,l)
);
},
{
closed = 1;
nodes = (
(142,200,l),
(142,630,l),
(279,630,l),
(348,560,l),
(348,60,l),
(271,60,l)
);
},
{
closed = 1;
nodes = (
(627,-10,l),
(762,147,l),
(762,650,l),
(713,700,l),
(412,700,l),
(362,650,l),
(362,630,l),
(662,630,l),
(662,174,l),
(575,60,l),
(489,60,l),
(392,135,l),
(355,135,l),
(355,67,l),
(455,-10,l)
);
},
{
closed = 1;
nodes = (
(820,315,l),
(885,385,l),
(567,385,l),
(502,315,l)
);
}
);
width = 913;
},
{
layerId = m002;
shapes = (
{
closed = 1;
nodes = (
(366,-25,l),
(508,78,l),
(508,623,l),
(384,715,l),
(132,715,l),
(42,631,l),
(42,150,l),
(202,-25,l)
);
},
{
closed = 1;
nodes = (
(202,202,l),
(202,615,l),
(274,615,l),
(348,558,l),
(348,75,l),
(319,75,l)
);
},
{
closed = 1;
nodes = (
(675,-25,l),
(822,146,l),
(822,652,l),
(760,715,l),
(465,715,l),
(397,647,l),
(397,615,l),
(662,615,l),
(662,175,l),
(586,75,l),
(533,75,l),
(456,150,l),
(375,150,l),
(375,64,l),
(471,-25,l)
);
},
{
closed = 1;
nodes = (
(868,300,l),
(960,400,l),
(579,400,l),
(487,300,l)
);
}
);
width = 993;
},
{
layerId = m004;
shapes = (
{
closed = 1;
nodes = (
(548,-10,l),
(628,79,l),
(628,550,l),
(488,700,l),
(118,700,l),
(42,629,l),
(42,152,l),
(190,-10,l)
);
},
{
closed = 1;
nodes = (
(142,200,l),
(142,630,l),
(419,630,l),
(528,510,l),
(528,60,l),
(271,60,l)
);
},
{
closed = 1;
nodes = (
(927,-10,l),
(1092,147,l),
(1092,650,l),
(1003,700,l),
(571,700,l),
(488,650,l),
(488,630,l),
(992,630,l),
(992,174,l),
(875,60,l),
(709,60,l),
(572,135,l),
(535,135,l),
(535,67,l),
(675,-10,l)
);
},
{
closed = 1;
nodes = (
(1210,315,l),
(1275,385,l),
(777,385,l),
(712,315,l)
);
}
);
width = 1303;
},
{
layerId = m005;
shapes = (
{
closed = 1;
nodes = (
(355,10,l),
(388,57,l),
(388,595,l),
(297,700,l),
(89,700,l),
(42,663,l),
(42,157,l),
(176,10,l)
);
},
{
closed = 1;
nodes = (
(82,181,l),
(82,670,l),
(271,670,l),
(348,583,l),
(348,40,l),
(209,40,l)
);
},
{
closed = 1;
nodes = (
(604,10,l),
(702,122,l),
(702,665,l),
(667,700,l),
(338,700,l),
(303,675,l),
(303,670,l),
(662,670,l),
(662,132,l),
(581,40,l),
(456,40,l),
(378,95,l),
(365,95,l),
(365,66,l),
(448,10,l)
);
},
{
closed = 1;
nodes = (
(814,345,l),
(842,375,l),
(513,375,l),
(485,345,l)
);
}
);
width = 883;
},
{
layerId = m006;
shapes = (
{
closed = 1;
nodes = (
(525,10,l),
(558,47,l),
(558,595,l),
(467,700,l),
(79,700,l),
(42,663,l),
(42,157,l),
(176,10,l)
);
},
{
closed = 1;
nodes = (
(82,181,l),
(82,670,l),
(441,670,l),
(518,583,l),
(518,40,l),
(209,40,l)
);
},
{
closed = 1;
nodes = (
(904,10,l),
(1002,122,l),
(1002,665,l),
(967,700,l),
(508,700,l),
(473,675,l),
(473,670,l),
(962,670,l),
(962,132,l),
(881,40,l),
(666,40,l),
(548,115,l),
(535,115,l),
(535,86,l),
(658,10,l)
);
},
{
closed = 1;
nodes = (
(1164,345,l),
(1192,375,l),
(723,375,l),
(695,345,l)
);
}
);
width = 1223;
}
);
metricLeft = O;
metricRight = E;
unicode = 338;
},
{
color = 1;
glyphname = P;
kernLeft = P;
kernRight = P;
lastChange = "2024-09-19 20:00:42 +0000";
layers = (
{
backgroundImage = {
imagePath = "../reference/@Celes/uppercase/P.png";
locked = 1;
pos = (-185,-116);
scale = (14,14);
};
layerId = m01;
shapes = (
{
closed = 1;
nodes = (
(99,580,l),
(199,642,l),
(199,700,l),
(25,580,l)
);
},
{
closed = 1;
nodes = (
(298,-10,l),
(298,70,l),
(298,70,l),
(199,224,l),
(199,591,l),
(99,521,l),
(99,183,l),
(237,-10,l)
);
},
{
closed = 1;
nodes = (
(433,-10,l),
(433,377,l),
(461,415,l),
(461,519,l),
(333,404,l),
(333,-10,l)
);
},
{
closed = 1;
nodes = (
(500,-10,l),
(662,135,l),
(662,404,l),
(510,519,l),
(510,415,l),
(562,347,l),
(562,151,l),
(471,70,l),
(471,70,l),
(471,-10,l)
);
}
);
width = 690;
},
{
backgroundImage = {
imagePath = "../reference/@Celes/uppercase/P.png";
locked = 1;
pos = (-140,0);
scale = (14,14);
};
layerId = m002;
shapes = (
{
closed = 1;
nodes = (
(119,550,l),
(279,649,l),
(279,700,l),
(27,550,l)
);
},
{
closed = 1;
nodes = (
(352,-10,l),
(352,121,l),
(352,121,l),
(279,225,l),
(279,565,l),
(119,498,l),
(119,182,l),
(279,-10,l)
);
},
{
closed = 1;
nodes = (
(553,-10,l),
(553,374,l),
(579,421,l),
(579,530,l),
(393,408,l),
(393,-10,l)
);
},
{
closed = 1;
nodes = (
(592,-10,l),
(802,133,l),
(802,406,l),
(626,534,l),
(620,406,l),
(642,345,l),
(642,137,l),
(573,121,l),
(573,121,l),
(570,-10,l)
);
}
);
width = 840;
},
{
backgroundImage = {
imagePath = "../reference/@Celes/uppercase/P.png";
locked = 1;
pos = (-70,0);
scale = (14,14);
};
layerId = m004;
shapes = (
{
closed = 1;
nodes = (
(129,580,l),
(229,633,l),
(229,700,l),
(25,580,l)
);
},
{
closed = 1;
nodes = (
(370,-10,l),
(370,70,l),
(328,70,l),
(229,224,l),
(229,586,l),
(129,534,l),
(129,183,l),
(251,-10,l)
);
},
{
closed = 1;
nodes = (
(553,-10,l),
(553,447,l),
(617,467,l),
(617,547,l),
(453,474,l),
(453,-10,l)
);
},
{
closed = 1;
nodes = (
(707,-10,l),
(872,135,l),
(872,424,l),
(692,561,l),
(692,495,l),
(772,367,l),
(772,135,l),
(696,70,l),
(637,70,l),
(637,-10,l)
);
}
);
width = 900;
},
{
backgroundImage = {
imagePath = "../reference/@Celes/uppercase/P.png";
locked = 1;
pos = (-240,0);
scale = (14,14);
};
layerId = m005;
shapes = (
{
closed = 1;
nodes = (
(79,620,l),
(119,660,l),
(119,700,l),
(31,620,l)
);
},
{
closed = 1;
nodes = (
(268,-10,l),
(268,30,l),
(268,30,l),
(119,134,l),
(119,603,l),
(79,571,l),
(79,109,l),
(268,-10,l)
);
},
{
closed = 1;
nodes = (
(346,-10,l),
(346,376,l),
(401,442,l),
(401,477,l),
(306,391,l),
(306,-10,l)
);
},
{
closed = 1;
nodes = (
(378,-10,l),
(582,80,l),
(582,393,l),
(463,480,l),
(463,442,l),
(542,365,l),
(542,90,l),
(378,30,l),
(378,30,l),
(378,-10,l)
);
}
);
width = 620;
},
{
backgroundImage = {
imagePath = "../reference/@Celes/uppercase/P.png";
locked = 1;
pos = (-120,0);
scale = (14,14);
};
layerId = m006;
shapes = (
{
closed = 1;
nodes = (
(129,620,l),
(169,641,l),
(169,700,l),
(21,620,l)
);
},
{
closed = 1;
nodes = (
(423,-10,l),
(423,30,l),
(293,30,l),
(169,211,l),
(169,605,l),
(129,581,l),
(129,186,l),
(260,-10,l)
);
},
{
closed = 1;
nodes = (
(506,-10,l),
(506,450,l),
(598,485,l),
(598,524,l),
(466,471,l),
(466,-10,l)
);
},
{
closed = 1;
nodes = (
(683,-10,l),
(832,119,l),
(832,393,l),
(683,538,l),
(683,491,l),
(792,365,l),
(792,129,l),
(678,30,l),
(545,30,l),
(545,-10,l)
);
}
);
width = 880;
}
);
unicode = 80;
},
{
color = 3;
glyphname = Q;
kernLeft = Q;
kernRight = RCH;
lastChange = "2024-10-06 06:22:45 +0000";
layers = (
{
layerId = m01;
shapes = (
{
closed = 1;
nodes = (
(393,580,l),
(493,634,l),
(493,700,l),
(314,580,l)
);
},
{
closed = 1;
nodes = (
(493,30,l),
(493,580,l),
(393,531,l),
(393,-30,l)
);
},
{
closed = 1;
nodes = (
(130,410,l),
(299,410,l),
(344,385,l),
(344,454,l),
(296,480,l),
(119,480,l),
(30,399,l),
(30,267,l),
(130,210,l)
);
},
{
closed = 1;
nodes = (
(155,-20,l),
(286,80,l),
(285,214,l),
(185,280,l),
(185,280,l),
(185,210,l),
(185,210,l),
(186,90,l),
(105,-20,l)
);
}
);
width = 540;
},
{
layerId = m002;
shapes = (
{
closed = 1;
nodes = (
(453,550,l),
(613,630,l),
(613,700,l),
(356,550,l)
);
},
{
closed = 1;
nodes = (
(613,66,l),
(613,566,l),
(453,494,l),
(453,-30,l)
);
},
{
closed = 1;
nodes = (
(180,395,l),
(346,395,l),
(419,363,l),
(419,472,l),
(369,495,l),
(163,495,l),
(30,401,l),
(30,264,l),
(180,195,l)
);
},
{
closed = 1;
nodes = (
(199,-20,l),
(356,77,l),
(355,216,l),
(205,295,l),
(205,295,l),
(205,195,l),
(205,195,l),
(206,91,l),
(93,-20,l)
);
}
);
width = 660;
},
{
layerId = m004;
shapes = (
{
closed = 1;
nodes = (
(573,580,l),
(673,632,l),
(673,700,l),
(454,580,l)
);
},
{
closed = 1;
nodes = (
(673,30,l),
(673,555,l),
(573,508,l),
(573,-30,l)
);
},
{
closed = 1;
nodes = (
(130,410,l),
(397,410,l),
(525,373,l),
(525,443,l),
(404,480,l),
(119,480,l),
(30,399,l),
(30,267,l),
(130,210,l)
);
},
{
closed = 1;
nodes = (
(195,-20,l),
(376,100,l),
(375,214,l),
(311,280,l),
(177,280,l),
(177,210,l),
(275,210,l),
(276,110,l),
(145,-20,l)
);
}
);
width = 720;
},
{
layerId = m005;
shapes = (
{
closed = 1;
nodes = (
(403,620,l),
(443,659,l),
(443,700,l),
(352,620,l)
);
},
{
closed = 1;
nodes = (
(443,0,l),
(443,595,l),
(403,565,l),
(403,-30,l)
);
},
{
closed = 1;
nodes = (
(80,430,l),
(291,430,l),
(359,379,l),
(360,410,l),
(296,460,l),
(73,460,l),
(40,428,l),
(40,264,l),
(80,230,l)
);
},
{
closed = 1;
nodes = (
(123,-20,l),
(236,88,l),
(235,230,l),
(196,260,l),
(108,260,l),
(108,230,l),
(196,230,l),
(196,96,l),
(98,-20,l)
);
}
);
width = 490;
},
{
layerId = m006;
shapes = (
{
closed = 1;
nodes = (
(583,620,l),
(623,648,l),
(623,700,l),
(492,620,l)
);
},
{
closed = 1;
nodes = (
(623,0,l),
(623,601,l),
(583,565,l),
(583,-30,l)
);
},
{
closed = 1;
nodes = (
(80,430,l),
(411,430,l),
(520,375,l),
(520,407,l),
(426,460,l),
(73,460,l),
(40,428,l),
(40,264,l),
(80,230,l)
);
},
{
closed = 1;
nodes = (
(153,-20,l),
(316,88,l),
(315,230,l),
(281,260,l),
(128,260,l),
(128,230,l),
(276,230,l),
(276,107,l),
(128,-20,l)
);
}
);
width = 670;
}
);
unicode = 81;
},
{
color = 1;
glyphname = R;
kernLeft = LCH;
kernRight = R;
lastChange = "2024-09-19 20:22:03 +0000";
layers = (
{
backgroundImage = {
imagePath = "../reference/@Celes/uppercase/R.png";
locked = 1;
pos = (-263,-157);
scale = (14,14);
};
layerId = m01;
shapes = (
{
closed = 1;
nodes = (
(95,580,l),
(195,648,l),
(195,700,l),
(15,580,l)
);
},
{
closed = 1;
nodes = (
(195,30,l),
(195,557,l),
(95,505,l),
(95,-30,l)
);
},
{
closed = 1;
nodes = (
(371,439,l),
(371,509,l),
(234,426,l),
(234,357,l)
);
},
{
closed = 1;
nodes = (
(551,237,l),
(551,437,l),
(417,506,l),
(417,446,l),
(451,426,l),
(451,266,l),
(416,252,l),
(416,185,l)
);
},
{
closed = 1;
nodes = (
(388,245,l),
(288,203,l),
(288,32,l),
(388,-10,l)
);
},
{
closed = 1;
nodes = (
(454,-10,l),
(520,60,l),
(411,60,l),
(411,-10,l)
);
}
);
width = 590;
},
{
backgroundImage = {
imagePath = "../reference/@Celes/uppercase/R.png";
locked = 1;
pos = (-10,0);
scale = (14,14);
};
layerId = m002;
shapes = (
{
closed = 1;
nodes = (
(115,550,l),
(275,635,l),
(275,700,l),
(16,550,l)
);
},
{
closed = 1;
nodes = (
(275,66,l),
(275,570,l),
(115,482,l),
(115,-30,l)
);
},
{
closed = 1;
nodes = (
(401,394,l),
(401,494,l),
(312,462,l),
(312,351,l)
);
},
{
closed = 1;
nodes = (
(691,230,l),
(691,412,l),
(472,494,l),
(472,394,l),
(531,355,l),
(531,298,l),
(521,273,l),
(521,173,l)
);
},
{
closed = 1;
nodes = (
(508,273,l),
(348,210,l),
(348,30,l),
(508,-12,l)
);
},
{
closed = 1;
nodes = (
(581,-10,l),
(676,90,l),
(546,90,l),
(546,-10,l)
);
}
);
width = 730;
},
{
backgroundImage = {
imagePath = "../reference/@Celes/uppercase/R.png";
locked = 1;
pos = (20,0);
scale = (14,14);
};
layerId = m004;
shapes = (
{
closed = 1;
nodes = (
(135,580,l),
(235,642,l),
(235,700,l),
(15,580,l)
);
},
{
closed = 1;
nodes = (
(235,30,l),
(235,558,l),
(135,519,l),
(135,-30,l)
);
},
{
closed = 1;
nodes = (
(444,410,l),
(444,480,l),
(290,436,l),
(290,366,l)
);
},
{
closed = 1;
nodes = (
(801,267,l),
(801,414,l),
(542,480,l),
(542,410,l),
(701,375,l),
(701,296,l),
(600,259,l),
(600,196,l)
);
},
{
closed = 1;
nodes = (
(548,247,l),
(448,203,l),
(448,32,l),
(548,-10,l)
);
},
{
closed = 1;
nodes = (
(744,-10,l),
(810,60,l),
(604,60,l),
(604,-10,l)
);
}
);
width = 850;
},
{
backgroundImage = {
imagePath = "../reference/@Celes/uppercase/R.png";
locked = 1;
pos = (-50,0);
scale = (14,14);
};
layerId = m005;
shapes = (
{
closed = 1;
nodes = (
(85,620,l),
(125,648,l),
(125,700,l),
(33,620,l)
);
},
{
closed = 1;
nodes = (
(125,0,l),
(125,606,l),
(85,580,l),
(85,-30,l)
);
},
{
closed = 1;
nodes = (
(309,460,l),
(309,490,l),
(163,396,l),
(163,361,l)
);
},
{
closed = 1;
nodes = (
(481,248,l),
(481,430,l),
(359,485,l),
(359,445,l),
(441,415,l),
(441,265,l),
(328,226,l),
(328,194,l)
);
},
{
closed = 1;
nodes = (
(298,225,l),
(258,202,l),
(258,24,l),
(298,-10,l)
);
},
{
closed = 1;
nodes = (
(428,-10,l),
(456,20,l),
(331,20,l),
(331,-10,l)
);
}
);
width = 520;
},
{
backgroundImage = {
imagePath = "../reference/@Celes/uppercase/R.png";
locked = 1;
pos = (90,0);
scale = (14,14);
};
layerId = m006;
shapes = (
{
closed = 1;
nodes = (
(135,620,l),
(175,644,l),
(175,700,l),
(33,620,l)
);
},
{
closed = 1;
nodes = (
(175,0,l),
(175,608,l),
(135,589,l),
(135,-30,l)
);
},
{
closed = 1;
nodes = (
(436,450,l),
(436,480,l),
(226,399,l),
(226,362,l)
);
},
{
closed = 1;
nodes = (
(731,268,l),
(731,430,l),
(508,480,l),
(508,450,l),
(691,399,l),
(691,285,l),
(543,232,l),
(543,200,l)
);
},
{
closed = 1;
nodes = (
(498,219,l),
(458,202,l),
(458,24,l),
(498,-10,l)
);
},
{
closed = 1;
nodes = (
(718,-10,l),
(746,20,l),
(543,20,l),
(543,-10,l)
);
}
);
width = 770;
}
);
unicode = 82;
},
{
color = 1;
glyphname = S;
kernLeft = LCH;
kernRight = S;
lastChange = "2024-09-19 20:27:00 +0000";
layers = (
{
anchors = (
{
name = top;
pos = (342,600);
}
);
backgroundImage = {
imagePath = "../reference/@Celes/uppercase/S.png";
locked = 1;
pos = (-253,-128);
scale = (14,14);
};
layerId = m01;
shapes = (
{
closed = 1;
nodes = (
(105,580,l),
(205,633,l),
(205,700,l),
(15,580,l)
);
},
{
closed = 1;
nodes = (
(205,30,l),
(205,555,l),
(105,514,l),
(105,-30,l)
);
},
{
closed = 1;
nodes = (
(366,410,l),
(366,480,l),
(258,421,l),
(258,344,l)
);
},
{
closed = 1;
nodes = (
(597,107,l),
(597,407,l),
(434,480,l),
(434,410,l),
(497,371,l),
(497,134,l),
(404,30,l),
(404,-20,l)
);
}
);
width = 630;
},
{
anchors = (
{
name = top;
pos = (466,600);
}
);
backgroundImage = {
imagePath = "../reference/@Celes/uppercase/S.png";
pos = (30,0);
scale = (14,14);
};
layerId = m002;
shapes = (
{
closed = 1;
nodes = (
(125,550,l),
(285,634,l),
(285,700,l),
(15,550,l)
);
},
{
closed = 1;
nodes = (
(285,66,l),
(285,542,l),
(125,458,l),
(125,-30,l)
);
},
{
closed = 1;
nodes = (
(462,395,l),
(462,495,l),
(326,441,l),
(326,323,l)
);
},
{
closed = 1;
nodes = (
(737,103,l),
(737,410,l),
(520,495,l),
(520,395,l),
(577,351,l),
(577,135,l),
(484,64,l),
(484,-30,l)
);
}
);
width = 770;
},
{
anchors = (
{
name = top;
pos = (480,600);
}
);
backgroundImage = {
imagePath = "../reference/@Celes/uppercase/S.png";
pos = (100,0);
scale = (14,14);
};
layerId = m004;
shapes = (
{
closed = 1;
nodes = (
(145,580,l),
(245,638,l),
(245,700,l),
(15,580,l)
);
},
{
closed = 1;
nodes = (
(245,30,l),
(245,561,l),
(145,513,l),
(145,-30,l)
);
},
{
closed = 1;
nodes = (
(473,410,l),
(473,480,l),
(305,422,l),
(305,346,l)
);
},
{
closed = 1;
nodes = (
(817,87,l),
(817,407,l),
(545,480,l),
(545,410,l),
(717,364,l),
(717,114,l),
(534,30,l),
(534,-20,l)
);
}
);
width = 850;
},
{
anchors = (
{
name = top;
pos = (292,560);
}
);
backgroundImage = {
imagePath = "../reference/@Celes/uppercase/S.png";
pos = (-70,0);
scale = (14,14);
};
layerId = m005;
shapes = (
{
closed = 1;
nodes = (
(85,620,l),
(125,659,l),
(125,700,l),
(26,620,l)
);
},
{
closed = 1;
nodes = (
(125,0,l),
(125,615,l),
(85,583,l),
(85,-30,l)
);
},
{
closed = 1;
nodes = (
(291,426,l),
(291,456,l),
(155,362,l),
(155,331,l)
);
},
{
closed = 1;
nodes = (
(497,95,l),
(497,396,l),
(347,456,l),
(347,426,l),
(457,362,l),
(457,109,l),
(337,5,l),
(337,-20,l)
);
}
);
width = 520;
},
{
anchors = (
{
name = top;
pos = (422,560);
}
);
backgroundImage = {
imagePath = "../reference/@Celes/uppercase/S.png";
pos = (60,0);
scale = (14,14);
};
layerId = m006;
shapes = (
{
closed = 1;
nodes = (
(135,620,l),
(175,657,l),
(175,700,l),
(26,620,l)
);
},
{
closed = 1;
nodes = (
(175,0,l),
(175,596,l),
(135,578,l),
(135,-30,l)
);
},
{
closed = 1;
nodes = (
(473,449,l),
(473,479,l),
(208,357,l),
(208,327,l)
);
},
{
closed = 1;
nodes = (
(737,109,l),
(737,426,l),
(540,478,l),
(539,448,l),
(697,396,l),
(697,129,l),
(507,5,l),
(507,-20,l)
);
}
);
width = 760;
}
);
unicode = 83;
},
{
color = 3;
glyphname = Germandbls;
kernLeft = LCH;
kernRight = Y;
lastChange = "2024-08-28 12:54:38 +0000";
layers = (
{
layerId = m01;
shapes = (
{
closed = 1;
nodes = (
(185,30,l),
(185,630,l),
(445,630,l),
(445,521,l),
(299,388,l),
(299,307,l),
(473,307,l),
(473,50,l),
(405,50,l),
(252,118,l),
(252,68,l),
(389,-20,l),
(498,-20,l),
(573,64,l),
(573,317,l),
(517,377,l),
(399,377,l),
(545,500,l),
(545,642,l),
(473,700,l),
(135,700,l),
(15,580,l),
(85,580,l),
(85,-30,l)
);
}
);
width = 610;
},
{
layerId = m002;
shapes = (
{
closed = 1;
nodes = (
(215,66,l),
(215,600,l),
(475,600,l),
(475,523,l),
(329,390,l),
(329,292,l),
(513,292,l),
(513,80,l),
(451,80,l),
(292,170,l),
(292,84,l),
(436,-20,l),
(586,-20,l),
(673,78,l),
(673,319,l),
(604,392,l),
(510,392,l),
(645,498,l),
(645,630,l),
(558,700,l),
(118,700,l),
(-32,550,l),
(55,550,l),
(55,-30,l)
);
}
);
width = 610;
},
{
layerId = m004;
shapes = (
{
closed = 1;
nodes = (
(85,30,l),
(85,630,l),
(575,630,l),
(575,541,l),
(269,378,l),
(269,287,l),
(603,287,l),
(603,50,l),
(365,50,l),
(182,168,l),
(182,118,l),
(349,-20,l),
(628,-20,l),
(703,64,l),
(703,287,l),
(647,357,l),
(379,357,l),
(675,490,l),
(675,642,l),
(603,700,l),
(35,700,l),
(-85,580,l),
(-15,580,l),
(-15,-30,l)
);
}
);
width = 610;
},
{
layerId = m005;
shapes = (
{
closed = 1;
nodes = (
(105,0,l),
(105,670,l),
(425,670,l),
(425,521,l),
(258,392,l),
(258,337,l),
(473,337,l),
(473,10,l),
(347,10,l),
(202,81,l),
(202,56,l),
(329,-20,l),
(471,-20,l),
(513,23,l),
(513,322,l),
(471,367,l),
(287,367,l),
(465,506,l),
(465,666,l),
(425,700,l),
(100,700,l),
(20,620,l),
(65,620,l),
(65,-30,l)
);
}
);
width = 550;
},
{
layerId = m006;
shapes = (
{
closed = 1;
nodes = (
(155,0,l),
(155,670,l),
(685,670,l),
(685,521,l),
(388,392,l),
(388,347,l),
(733,347,l),
(733,10,l),
(467,10,l),
(322,101,l),
(322,76,l),
(449,-20,l),
(731,-20,l),
(773,13,l),
(773,342,l),
(741,377,l),
(427,377,l),
(725,506,l),
(725,666,l),
(685,700,l),
(150,700,l),
(20,620,l),
(115,620,l),
(115,-30,l)
);
}
);
width = 810;
}
);
unicode = 7838;
},
{
color = 1;
glyphname = T;
kernLeft = T;
kernRight = RCH;
lastChange = "2024-09-19 20:29:51 +0000";
layers = (
{
backgroundImage = {
imagePath = "../reference/@Celes/uppercase/T.png";
locked = 1;
pos = (-324,-131);
scale = (14,14);
};
layerId = m01;
shapes = (
{
closed = 1;
nodes = (
(310,580,l),
(410,656,l),
(410,700,l),
(231,580,l)
);
},
{
closed = 1;
nodes = (
(410,30,l),
(410,607,l),
(310,549,l),
(310,-30,l)
);
},
{
closed = 1;
nodes = (
(172,410,l),
(276,410,l),
(276,480,l),
(154,480,l),
(28,366,l),
(28,316,l)
);
}
);
width = 450;
},
{
backgroundImage = {
imagePath = "../reference/@Celes/uppercase/T.png";
locked = 1;
pos = (-294,-131);
scale = (14,14);
};
layerId = m002;
shapes = (
{
closed = 1;
nodes = (
(380,550,l),
(540,633,l),
(540,700,l),
(283,550,l)
);
},
{
closed = 1;
nodes = (
(540,66,l),
(540,585,l),
(380,525,l),
(380,-30,l)
);
},
{
closed = 1;
nodes = (
(215,395,l),
(354,395,l),
(354,495,l),
(168,495,l),
(28,378,l),
(28,283,l)
);
}
);
width = 580;
},
{
backgroundImage = {
imagePath = "../reference/@Celes/uppercase/T.png";
locked = 1;
pos = (-214,-131);
scale = (14,14);
};
layerId = m004;
shapes = (
{
closed = 1;
nodes = (
(530,580,l),
(630,637,l),
(630,700,l),
(411,580,l)
);
},
{
closed = 1;
nodes = (
(630,30,l),
(630,585,l),
(530,538,l),
(530,-30,l)
);
},
{
closed = 1;
nodes = (
(212,410,l),
(491,410,l),
(491,480,l),
(194,480,l),
(28,366,l),
(28,316,l)
);
}
);
width = 670;
},
{
backgroundImage = {
imagePath = "../reference/@Celes/uppercase/T.png";
locked = 1;
pos = (-324,-131);
scale = (14,14);
};
layerId = m005;
shapes = (
{
closed = 1;
nodes = (
(340,620,l),
(380,666,l),
(380,700,l),
(289,620,l)
);
},
{
closed = 1;
nodes = (
(380,0,l),
(380,611,l),
(340,579,l),
(340,-30,l)
);
},
{
closed = 1;
nodes = (
(161,430,l),
(306,430,l),
(306,460,l),
(145,460,l),
(28,358,l),
(28,332,l)
);
}
);
width = 420;
},
{
backgroundImage = {
imagePath = "../reference/@Celes/uppercase/T.png";
locked = 1;
pos = (-204,-131);
scale = (14,14);
};
layerId = m006;
shapes = (
{
closed = 1;
nodes = (
(560,620,l),
(600,655,l),
(600,700,l),
(459,620,l)
);
},
{
closed = 1;
nodes = (
(600,0,l),
(600,602,l),
(560,568,l),
(560,-30,l)
);
},
{
closed = 1;
nodes = (
(211,430,l),
(513,430,l),
(513,460,l),
(195,460,l),
(28,358,l),
(28,332,l)
);
}
);
width = 640;
}
);
unicode = 84;
},
{
color = 1;
glyphname = U;
kernLeft = O;
kernRight = O;
lastChange = "2024-09-19 20:51:01 +0000";
layers = (
{
anchors = (
{
name = top;
pos = (334,600);
}
);
backgroundImage = {
imagePath = "../reference/@Celes/uppercase/U.png";
locked = 1;
pos = (-227,-123);
scale = (14,14);
};
layerId = m01;
shapes = (
{
closed = 1;
nodes = (
(127,580,l),
(225,640,l),
(225,710,l),
(30,580,l)
);
},
{
closed = 1;
nodes = (
(236,64,l),
(149,220,l),
(149,491,l),
(225,548,l),
(225,597,l),
(49,491,l),
(49,169,l),
(236,-10,l)
);
},
{
closed = 1;
nodes = (
(444,-10,l),
(625,230,l),
(625,326,l),
(525,326,l),
(525,235,l),
(400,60,l),
(269,60,l),
(269,-10,l)
);
},
{
closed = 1;
nodes = (
(388,273,l),
(388,700,l),
(288,594,l),
(288,213,l)
);
},
{
closed = 1;
nodes = (
(625,356,l),
(625,426,l),
(416,426,l),
(416,356,l)
);
},
{
closed = 1;
nodes = (
(625,462,l),
(480,700,l),
(416,700,l),
(416,630,l),
(437,630,l),
(525,462,l)
);
}
);
width = 660;
},
{
anchors = (
{
name = top;
pos = (444,620);
}
);
backgroundImage = {
imagePath = "../reference/@Celes/uppercase/U.png";
locked = 1;
pos = (-177,-123);
scale = (14,14);
};
layerId = m002;
shapes = (
{
closed = 1;
nodes = (
(185,550,l),
(305,614,l),
(305,710,l),
(31,550,l)
);
},
{
closed = 1;
nodes = (
(360,90,l),
(229,221,l),
(229,441,l),
(305,499,l),
(305,581,l),
(69,441,l),
(69,168,l),
(360,-10,l)
);
},
{
closed = 1;
nodes = (
(613,-10,l),
(805,221,l),
(805,288,l),
(645,288,l),
(645,236,l),
(530,90,l),
(408,90,l),
(408,-10,l)
);
},
{
closed = 1;
nodes = (
(518,269,l),
(518,700,l),
(358,581,l),
(358,173,l)
);
},
{
closed = 1;
nodes = (
(805,341,l),
(805,441,l),
(554,441,l),
(556,341,l)
);
},
{
closed = 1;
nodes = (
(805,463,l),
(645,700,l),
(537,700,l),
(537,639,l),
(583,639,l),
(657,463,l)
);
}
);
width = 840;
},
{
anchors = (
{
name = top;
pos = (444,600);
}
);
backgroundImage = {
imagePath = "../reference/@Celes/uppercase/U.png";
locked = 1;
pos = (-117,-123);
scale = (14,14);
};
layerId = m004;
shapes = (
{
closed = 1;
nodes = (
(166,580,l),
(275,648,l),
(275,710,l),
(30,580,l)
);
},
{
closed = 1;
nodes = (
(316,60,l),
(149,200,l),
(149,421,l),
(275,531,l),
(275,615,l),
(49,431,l),
(49,149,l),
(316,-10,l)
);
},
{
closed = 1;
nodes = (
(654,-10,l),
(875,230,l),
(875,332,l),
(775,332,l),
(775,235,l),
(610,60,l),
(343,60,l),
(343,-10,l)
);
},
{
closed = 1;
nodes = (
(498,233,l),
(498,670,l),
(398,630,l),
(398,173,l)
);
},
{
closed = 1;
nodes = (
(875,366,l),
(875,436,l),
(559,436,l),
(559,366,l)
);
},
{
closed = 1;
nodes = (
(852,484,l),
(718,670,l),
(566,670,l),
(566,600,l),
(626,600,l),
(756,484,l)
);
}
);
width = 910;
},
{
anchors = (
{
name = top;
pos = (294,600);
}
);
backgroundImage = {
imagePath = "../reference/@Celes/uppercase/U.png";
locked = 1;
pos = (-267,-123);
scale = (14,14);
};
layerId = m005;
shapes = (
{
closed = 1;
nodes = (
(106,620,l),
(155,653,l),
(155,710,l),
(49,620,l)
);
},
{
closed = 1;
nodes = (
(190,20,l),
(79,194,l),
(79,501,l),
(155,559,l),
(155,607,l),
(39,518,l),
(39,173,l),
(190,-10,l)
);
},
{
closed = 1;
nodes = (
(416,-10,l),
(555,178,l),
(555,279,l),
(515,281,l),
(515,183,l),
(396,20,l),
(215,20,l),
(215,-10,l)
);
},
{
closed = 1;
nodes = (
(318,261,l),
(318,700,l),
(278,661,l),
(278,237,l)
);
},
{
closed = 1;
nodes = (
(555,326,l),
(555,356,l),
(361,356,l),
(361,326,l)
);
},
{
closed = 1;
nodes = (
(555,402,l),
(429,700,l),
(355,700,l),
(355,670,l),
(408,670,l),
(515,402,l)
);
}
);
width = 590;
},
{
anchors = (
{
name = top;
pos = (424,600);
}
);
backgroundImage = {
imagePath = "../reference/@Celes/uppercase/U.png";
locked = 1;
pos = (-137,-123);
scale = (14,14);
};
layerId = m006;
shapes = (
{
closed = 1;
nodes = (
(150,630,l),
(205,661,l),
(205,710,l),
(39,630,l)
);
},
{
closed = 1;
nodes = (
(274,20,l),
(89,194,l),
(89,480,l),
(205,580,l),
(205,622,l),
(49,492,l),
(49,173,l),
(274,-10,l)
);
},
{
closed = 1;
nodes = (
(606,-10,l),
(815,208,l),
(815,368,l),
(775,368,l),
(775,213,l),
(586,20,l),
(311,20,l),
(311,-10,l)
);
},
{
closed = 1;
nodes = (
(448,221,l),
(448,670,l),
(408,630,l),
(408,197,l)
);
},
{
closed = 1;
nodes = (
(815,386,l),
(815,416,l),
(489,416,l),
(489,386,l)
);
},
{
closed = 1;
nodes = (
(815,448,l),
(627,670,l),
(463,670,l),
(463,640,l),
(606,640,l),
(775,448,l)
);
}
);
width = 850;
}
);
unicode = 85;
},
{
color = 1;
glyphname = V;
kernLeft = N;
kernRight = V;
lastChange = "2024-09-19 21:02:06 +0000";
layers = (
{
backgroundImage = {
imagePath = "../reference/@Celes/uppercase/V.png";
locked = 1;
pos = (-224,-130);
scale = (14,14);
};
layerId = m01;
shapes = (
{
closed = 1;
nodes = (
(130,580,l),
(230,644,l),
(230,700,l),
(71,580,l)
);
},
{
closed = 1;
nodes = (
(230,397,l),
(230,574,l),
(130,507,l),
(130,397,l)
);
},
{
closed = 1;
nodes = (
(266,283,l),
(331,353,l),
(90,353,l),
(25,283,l)
);
},
{
closed = 1;
nodes = (
(230,30,l),
(230,244,l),
(130,244,l),
(130,-30,l)
);
},
{
closed = 1;
nodes = (
(642,244,l),
(373,644,l),
(296,644,l),
(296,574,l),
(518,236,l),
(395,60,l),
(395,-10,l)
);
},
{
closed = 1;
nodes = (
(377,-10,l),
(377,60,l),
(261,60,l),
(326,-10,l)
);
}
);
width = 660;
},
{
backgroundImage = {
imagePath = "../reference/@Celes/uppercase/V.png";
locked = 1;
pos = (50,0);
scale = (14,14);
};
layerId = m002;
shapes = (
{
closed = 1;
nodes = (
(150,550,l),
(310,644,l),
(310,700,l),
(63,550,l)
);
},
{
closed = 1;
nodes = (
(310,409,l),
(310,544,l),
(150,497,l),
(150,409,l)
);
},
{
closed = 1;
nodes = (
(364,268,l),
(456,368,l),
(122,368,l),
(30,268,l)
);
},
{
closed = 1;
nodes = (
(310,66,l),
(310,235,l),
(150,235,l),
(150,-30,l)
);
},
{
closed = 1;
nodes = (
(833,267,l),
(494,644,l),
(405,644,l),
(405,544,l),
(657,267,l),
(554,90,l),
(554,-10,l)
);
},
{
closed = 1;
nodes = (
(524,-10,l),
(524,90,l),
(386,90,l),
(478,-10,l)
);
}
);
width = 860;
},
{
backgroundImage = {
imagePath = "../reference/@Celes/uppercase/V.png";
locked = 1;
pos = (100,0);
scale = (14,14);
};
layerId = m004;
shapes = (
{
closed = 1;
nodes = (
(170,580,l),
(270,644,l),
(270,700,l),
(71,580,l)
);
},
{
closed = 1;
nodes = (
(270,391,l),
(270,574,l),
(170,531,l),
(170,388,l)
);
},
{
closed = 1;
nodes = (
(366,283,l),
(431,353,l),
(90,353,l),
(25,283,l)
);
},
{
closed = 1;
nodes = (
(270,30,l),
(270,246,l),
(170,245,l),
(170,-30,l)
);
},
{
closed = 1;
nodes = (
(912,281,l),
(463,644,l),
(406,644,l),
(406,574,l),
(788,267,l),
(655,60,l),
(655,-10,l)
);
},
{
closed = 1;
nodes = (
(588,-10,l),
(588,60,l),
(401,60,l),
(466,-10,l)
);
}
);
width = 930;
},
{
backgroundImage = {
imagePath = "../reference/@Celes/uppercase/V.png";
locked = 1;
pos = (-40,0);
scale = (14,14);
};
layerId = m005;
shapes = (
{
closed = 1;
nodes = (
(120,620,l),
(160,647,l),
(160,700,l),
(84,620,l)
);
},
{
closed = 1;
nodes = (
(160,366,l),
(160,617,l),
(120,587,l),
(120,366,l)
);
},
{
closed = 1;
nodes = (
(220,303,l),
(248,333,l),
(56,333,l),
(28,303,l)
);
},
{
closed = 1;
nodes = (
(160,0,l),
(160,261,l),
(120,261,l),
(120,-30,l)
);
},
{
closed = 1;
nodes = (
(578,278,l),
(247,647,l),
(247,647,l),
(247,596,l),
(524,277,l),
(380,20,l),
(380,-10,l)
);
},
{
closed = 1;
nodes = (
(351,-10,l),
(351,20,l),
(254,20,l),
(282,-10,l)
);
}
);
width = 600;
},
{
backgroundImage = {
imagePath = "../reference/@Celes/uppercase/V.png";
locked = 1;
pos = (110,0);
scale = (14,14);
};
layerId = m006;
shapes = (
{
closed = 1;
nodes = (
(190,620,l),
(230,627,l),
(230,700,l),
(104,620,l)
);
},
{
closed = 1;
nodes = (
(230,375,l),
(230,597,l),
(190,579,l),
(190,375,l)
);
},
{
closed = 1;
nodes = (
(360,303,l),
(388,333,l),
(56,333,l),
(28,303,l)
);
},
{
closed = 1;
nodes = (
(230,0,l),
(230,268,l),
(190,268,l),
(190,-30,l)
);
},
{
closed = 1;
nodes = (
(858,278,l),
(360,627,l),
(360,627,l),
(360,586,l),
(800,273,l),
(623,20,l),
(623,-10,l)
);
},
{
closed = 1;
nodes = (
(596,-10,l),
(596,20,l),
(424,20,l),
(452,-10,l)
);
}
);
width = 880;
}
);
unicode = 86;
},
{
color = 1;
glyphname = W;
kernLeft = LCH;
kernRight = RCH;
lastChange = "2024-09-19 21:10:06 +0000";
layers = (
{
anchors = (
{
name = top;
pos = (372,600);
}
);
backgroundImage = {
imagePath = "../reference/@Celes/uppercase/W.png";
locked = 1;
pos = (-218,-110);
scale = (14,14);
};
layerId = m01;
shapes = (
{
closed = 1;
nodes = (
(85,580,l),
(185,643,l),
(185,700,l),
(15,580,l)
);
},
{
closed = 1;
nodes = (
(185,30,l),
(185,593,l),
(85,528,l),
(85,-30,l)
);
},
{
closed = 1;
nodes = (
(416,56,l),
(416,700,l),
(366,700,l),
(261,580,l),
(316,580,l),
(316,-20,l)
);
},
{
closed = 1;
nodes = (
(303,-20,l),
(303,50,l),
(227,50,l),
(282,-20,l)
);
},
{
closed = 1;
nodes = (
(649,76,l),
(649,700,l),
(599,700,l),
(494,580,l),
(549,580,l),
(549,-20,l)
);
},
{
closed = 1;
nodes = (
(535,-20,l),
(535,50,l),
(460,50,l),
(515,-20,l)
);
}
);
width = 690;
},
{
anchors = (
{
name = top;
pos = (472,620);
}
);
backgroundImage = {
imagePath = "../reference/@Celes/uppercase/W.png";
locked = 1;
pos = (70,0);
scale = (14,14);
};
layerId = m002;
shapes = (
{
closed = 1;
nodes = (
(105,550,l),
(265,631,l),
(265,700,l),
(18,550,l)
);
},
{
closed = 1;
nodes = (
(265,66,l),
(265,555,l),
(105,488,l),
(105,-30,l)
);
},
{
closed = 1;
nodes = (
(546,69,l),
(546,700,l),
(448,700,l),
(317,550,l),
(386,550,l),
(386,-20,l)
);
},
{
closed = 1;
nodes = (
(376,-20,l),
(376,80,l),
(284,80,l),
(363,-20,l)
);
},
{
closed = 1;
nodes = (
(829,90,l),
(829,700,l),
(731,700,l),
(600,550,l),
(669,550,l),
(669,-20,l)
);
},
{
closed = 1;
nodes = (
(661,-20,l),
(661,80,l),
(567,80,l),
(646,-20,l)
);
}
);
width = 870;
},
{
anchors = (
{
name = top;
pos = (532,600);
}
);
backgroundImage = {
imagePath = "../reference/@Celes/uppercase/W.png";
locked = 1;
pos = (180,0);
scale = (14,14);
};
layerId = m004;
shapes = (
{
closed = 1;
nodes = (
(125,580,l),
(225,632,l),
(225,700,l),
(15,580,l)
);
},
{
closed = 1;
nodes = (
(225,30,l),
(225,562,l),
(125,520,l),
(125,-30,l)
);
},
{
closed = 1;
nodes = (
(576,56,l),
(576,700,l),
(526,700,l),
(371,580,l),
(476,580,l),
(476,-20,l)
);
},
{
closed = 1;
nodes = (
(446,-20,l),
(446,50,l),
(317,50,l),
(372,-20,l)
);
},
{
closed = 1;
nodes = (
(929,76,l),
(929,700,l),
(879,700,l),
(704,580,l),
(829,580,l),
(829,-20,l)
);
},
{
closed = 1;
nodes = (
(809,-20,l),
(809,50,l),
(670,50,l),
(725,-20,l)
);
}
);
width = 980;
},
{
anchors = (
{
name = top;
pos = (332,600);
}
);
backgroundImage = {
imagePath = "../reference/@Celes/uppercase/W.png";
locked = 1;
pos = (-20,0);
scale = (14,14);
};
layerId = m005;
shapes = (
{
closed = 1;
nodes = (
(75,620,l),
(115,644,l),
(115,700,l),
(20,620,l)
);
},
{
closed = 1;
nodes = (
(115,0,l),
(115,589,l),
(75,571,l),
(75,-30,l)
);
},
{
closed = 1;
nodes = (
(346,26,l),
(346,700,l),
(343,700,l),
(253,620,l),
(306,620,l),
(306,-20,l)
);
},
{
closed = 1;
nodes = (
(277,-20,l),
(277,10,l),
(216,10,l),
(240,-20,l)
);
},
{
closed = 1;
nodes = (
(579,29,l),
(579,700,l),
(576,700,l),
(486,620,l),
(539,620,l),
(539,-20,l)
);
},
{
closed = 1;
nodes = (
(507,-20,l),
(507,10,l),
(449,10,l),
(473,-20,l)
);
}
);
width = 620;
},
{
anchors = (
{
name = top;
pos = (472,600);
}
);
backgroundImage = {
imagePath = "../reference/@Celes/uppercase/W.png";
locked = 1;
pos = (-10,0);
scale = (14,14);
};
layerId = m006;
shapes = (
{
closed = 1;
nodes = (
(115,620,l),
(155,661,l),
(155,700,l),
(20,620,l)
);
},
{
closed = 1;
nodes = (
(155,0,l),
(155,595,l),
(115,575,l),
(115,-30,l)
);
},
{
closed = 1;
nodes = (
(496,26,l),
(496,700,l),
(493,700,l),
(353,620,l),
(456,620,l),
(456,-20,l)
);
},
{
closed = 1;
nodes = (
(416,-20,l),
(416,10,l),
(306,10,l),
(330,-20,l)
);
},
{
closed = 1;
nodes = (
(839,29,l),
(839,700,l),
(836,700,l),
(696,620,l),
(799,620,l),
(799,-20,l)
);
},
{
closed = 1;
nodes = (
(758,-20,l),
(758,10,l),
(649,10,l),
(673,-20,l)
);
}
);
width = 880;
}
);
unicode = 87;
},
{
color = 1;
glyphname = X;
kernLeft = X;
kernRight = X;
lastChange = "2024-10-06 06:23:19 +0000";
layers = (
{
backgroundImage = {
imagePath = "../reference/@Celes/uppercase/X.png";
locked = 1;
pos = (-260,-139);
scale = (14,14);
};
layerId = m01;
shapes = (
{
closed = 1;
nodes = (
(178,538,l),
(178,700,l),
(29,538,l)
);
},
{
closed = 1;
nodes = (
(440,210,l),
(209,700,l),
(209,508,l),
(440,-10,l)
);
},
{
closed = 1;
nodes = (
(581,190,l),
(482,190,l),
(482,-10,l)
);
},
{
closed = 1;
nodes = (
(94,-10,l),
(229,196,l),
(229,298,l),
(44,110,l),
(44,-10,l)
);
}
);
width = 610;
},
{
backgroundImage = {
imagePath = "../reference/@Celes/uppercase/X.png";
locked = 1;
pos = (-10,0);
scale = (14,14);
};
layerId = m002;
shapes = (
{
closed = 1;
nodes = (
(223,550,l),
(223,700,l),
(37,550,l)
);
},
{
closed = 1;
nodes = (
(632,140,l),
(247,700,l),
(247,550,l),
(632,-10,l)
);
},
{
closed = 1;
nodes = (
(785,140,l),
(654,140,l),
(654,-10,l)
);
},
{
closed = 1;
nodes = (
(175,-10,l),
(316,163,l),
(316,317,l),
(74,127,l),
(74,-10,l)
);
}
);
width = 820;
},
{
backgroundImage = {
imagePath = "../reference/@Celes/uppercase/X.png";
locked = 1;
pos = (60,0);
scale = (14,14);
};
layerId = m004;
shapes = (
{
closed = 1;
nodes = (
(208,590,l),
(208,700,l),
(29,590,l)
);
},
{
closed = 1;
nodes = (
(642,100,l),
(245,700,l),
(245,590,l),
(642,-10,l)
);
},
{
closed = 1;
nodes = (
(821,100,l),
(698,100,l),
(698,-10,l)
);
},
{
closed = 1;
nodes = (
(94,-10,l),
(291,196,l),
(291,276,l),
(44,80,l),
(44,-10,l)
);
}
);
width = 850;
},
{
backgroundImage = {
imagePath = "../reference/@Celes/uppercase/X.png";
locked = 1;
pos = (-90,0);
scale = (14,14);
};
layerId = m005;
shapes = (
{
closed = 1;
nodes = (
(141,630,l),
(141,700,l),
(60,630,l)
);
},
{
closed = 1;
nodes = (
(430,60,l),
(151,700,l),
(151,619,l),
(430,-10,l)
);
},
{
closed = 1;
nodes = (
(509,60,l),
(447,60,l),
(447,-10,l)
);
},
{
closed = 1;
nodes = (
(52,-10,l),
(210,249,l),
(210,300,l),
(34,59,l),
(34,-10,l)
);
}
);
width = 540;
},
{
backgroundImage = {
imagePath = "../reference/@Celes/uppercase/X.png";
locked = 1;
pos = (50,0);
scale = (14,14);
};
layerId = m006;
shapes = (
{
closed = 1;
nodes = (
(157,635,l),
(157,700,l),
(40,635,l)
);
},
{
closed = 1;
nodes = (
(630,45,l),
(177,700,l),
(177,635,l),
(630,-10,l)
);
},
{
closed = 1;
nodes = (
(789,45,l),
(672,45,l),
(672,-10,l)
);
},
{
closed = 1;
nodes = (
(62,-10,l),
(310,253,l),
(310,294,l),
(34,39,l),
(34,-10,l)
);
}
);
width = 820;
}
);
unicode = 88;
},
{
color = 3;
glyphname = Y;
kernLeft = LCH;
kernRight = Y;
lastChange = "2024-10-06 01:36:56 +0000";
layers = (
{
anchors = (
{
name = top;
pos = (309,600);
}
);
layerId = m01;
shapes = (
{
closed = 1;
nodes = (
(478,-20,l),
(553,64,l),
(553,270,l),
(136,521,l),
(136,451,l),
(453,264,l),
(453,50,l),
(405,50,l),
(252,118,l),
(252,68,l),
(389,-20,l)
);
},
{
closed = 1;
nodes = (
(185,30,l),
(185,700,l),
(135,700,l),
(15,580,l),
(85,580,l),
(85,-30,l)
);
},
{
closed = 1;
nodes = (
(545,500,l),
(545,642,l),
(473,700,l),
(383,700,l),
(289,630,l),
(445,630,l),
(445,492,l),
(349,357,l),
(386,330,l)
);
}
);
width = 580;
},
{
anchors = (
{
name = top;
pos = (419,620);
}
);
layerId = m002;
shapes = (
{
closed = 1;
nodes = (
(636,-20,l),
(723,78,l),
(723,301,l),
(186,564,l),
(186,447,l),
(563,260,l),
(563,80,l),
(509,80,l),
(352,175,l),
(352,89,l),
(516,-20,l)
);
},
{
closed = 1;
nodes = (
(265,66,l),
(265,700,l),
(168,700,l),
(18,550,l),
(105,550,l),
(105,-30,l)
);
},
{
closed = 1;
nodes = (
(715,498,l),
(715,630,l),
(628,700,l),
(509,700,l),
(375,600,l),
(555,600,l),
(555,493,l),
(457,355,l),
(531,301,l)
);
}
);
width = 750;
},
{
anchors = (
{
name = top;
pos = (449,600);
}
);
layerId = m004;
shapes = (
{
closed = 1;
nodes = (
(748,-20,l),
(823,64,l),
(823,260,l),
(176,521,l),
(176,441,l),
(723,214,l),
(723,50,l),
(575,50,l),
(392,168,l),
(392,118,l),
(559,-20,l)
);
},
{
closed = 1;
nodes = (
(225,30,l),
(225,700,l),
(175,700,l),
(15,580,l),
(125,580,l),
(125,-30,l)
);
},
{
closed = 1;
nodes = (
(815,510,l),
(815,642,l),
(743,700,l),
(523,700,l),
(429,630,l),
(715,630,l),
(715,532,l),
(469,367,l),
(506,340,l)
);
}
);
width = 850;
},
{
anchors = (
{
name = top;
pos = (279,600);
}
);
layerId = m005;
shapes = (
{
closed = 1;
nodes = (
(465,-20,l),
(503,15,l),
(503,287,l),
(89,499,l),
(89,469,l),
(463,268,l),
(463,10,l),
(377,10,l),
(232,101,l),
(232,76,l),
(358,-20,l)
);
},
{
closed = 1;
nodes = (
(105,0,l),
(105,700,l),
(100,700,l),
(20,620,l),
(65,620,l),
(65,-30,l)
);
},
{
closed = 1;
nodes = (
(495,484,l),
(495,663,l),
(463,690,l),
(306,690,l),
(265,660,l),
(455,660,l),
(455,489,l),
(335,349,l),
(354,337,l)
);
}
);
width = 540;
},
{
anchors = (
{
name = top;
pos = (399,600);
}
);
layerId = m006;
shapes = (
{
closed = 1;
nodes = (
(715,-20,l),
(753,15,l),
(753,257,l),
(139,499,l),
(139,463,l),
(713,235,l),
(713,10,l),
(537,10,l),
(352,131,l),
(352,106,l),
(518,-20,l)
);
},
{
closed = 1;
nodes = (
(155,0,l),
(155,700,l),
(150,700,l),
(20,620,l),
(115,620,l),
(115,-30,l)
);
},
{
closed = 1;
nodes = (
(745,484,l),
(745,673,l),
(713,700,l),
(426,700,l),
(385,670,l),
(705,670,l),
(705,499,l),
(485,349,l),
(504,337,l)
);
}
);
width = 790;
}
);
unicode = 89;
},
{
color = 3;
glyphname = Z;
kernLeft = Z;
kernRight = Z;
lastChange = "2024-10-06 01:36:56 +0000";
layers = (
{
anchors = (
{
name = top;
pos = (370,600);
}
);
layerId = m01;
shapes = (
{
closed = 1;
nodes = (
(252,-10,l),
(606,700,l),
(184,700,l),
(119,630,l),
(505,630,l),
(221,60,l),
(127,60,l),
(127,281,l),
(210,389,l),
(443,389,l),
(443,31,l),
(543,31,l),
(543,389,l),
(442,459,l),
(194,459,l),
(27,261,l),
(27,51,l),
(120,-10,l)
);
},
{
closed = 1;
nodes = (
(588,0,l),
(653,70,l),
(385,70,l),
(320,0,l)
);
}
);
width = 680;
},
{
anchors = (
{
name = top;
pos = (434,600);
}
);
layerId = m002;
shapes = (
{
closed = 1;
nodes = (
(365,-10,l),
(724,700,l),
(196,700,l),
(104,600,l),
(547,600,l),
(278,90,l),
(187,90,l),
(187,280,l),
(259,374,l),
(553,374,l),
(553,31,l),
(713,31,l),
(713,392,l),
(595,474,l),
(206,474,l),
(27,262,l),
(27,47,l),
(137,-10,l)
);
},
{
closed = 1;
nodes = (
(746,0,l),
(838,100,l),
(507,100,l),
(415,0,l)
);
}
);
width = 870;
},
{
anchors = (
{
name = top;
pos = (509,600);
}
);
layerId = m004;
shapes = (
{
closed = 1;
nodes = (
(372,-10,l),
(876,700,l),
(184,700,l),
(119,630,l),
(729,630,l),
(323,60,l),
(127,60,l),
(127,281,l),
(240,389,l),
(713,389,l),
(713,31,l),
(813,31,l),
(813,389,l),
(685,459,l),
(194,459,l),
(27,301,l),
(27,61,l),
(100,-10,l)
);
},
{
closed = 1;
nodes = (
(928,0,l),
(993,70,l),
(585,70,l),
(520,0,l)
);
}
);
width = 1020;
},
{
anchors = (
{
name = top;
pos = (350,600);
}
);
layerId = m005;
shapes = (
{
closed = 1;
nodes = (
(233,-10,l),
(598,680,l),
(180,680,l),
(152,650,l),
(550,650,l),
(213,20,l),
(77,20,l),
(77,285,l),
(195,409,l),
(453,409,l),
(453,20,l),
(493,20,l),
(493,409,l),
(453,439,l),
(180,439,l),
(37,285,l),
(37,31,l),
(68,-10,l)
);
},
{
closed = 1;
nodes = (
(582,0,l),
(610,30,l),
(381,30,l),
(353,0,l)
);
}
);
width = 640;
},
{
anchors = (
{
name = top;
pos = (510,600);
}
);
layerId = m006;
shapes = (
{
closed = 1;
nodes = (
(323,-10,l),
(828,680,l),
(140,680,l),
(112,650,l),
(760,650,l),
(303,20,l),
(77,20,l),
(77,285,l),
(195,399,l),
(713,399,l),
(713,20,l),
(753,20,l),
(753,399,l),
(713,429,l),
(180,429,l),
(37,285,l),
(37,22,l),
(68,-10,l)
);
},
{
closed = 1;
nodes = (
(902,0,l),
(930,30,l),
(531,30,l),
(503,0,l)
);
}
);
width = 960;
}
);
unicode = 90;
},
{
color = 1;
glyphname = a;
kernLeft = a;
kernRight = a;
lastChange = "2024-09-19 22:11:06 +0000";
layers = (
{
anchors = (
{
name = ogonek;
pos = (382,0);
},
{
name = top;
pos = (373,390);
}
);
backgroundImage = {
imagePath = "../reference/@Celes/lowercase/a.png";
locked = 1;
pos = (-221,-362);
scale = (14,14);
};
layerId = m01;
shapes = (
{
closed = 1;
nodes = (
(133,370,l),
(233,443,l),
(233,490,l),
(68,370,l)
);
},
{
closed = 1;
nodes = (
(233,0,l),
(233,72,l),
(330,-20,l),
(330,50,l),
(233,180,l),
(233,400,l),
(133,323,l),
(133,-120,l)
);
},
{
closed = 1;
nodes = (
(60,-200,l),
(121,-130,l),
(121,-16,l),
(10,-200,l)
);
},
{
closed = 1;
nodes = (
(526,373,l),
(591,443,l),
(273,443,l),
(273,373,l)
);
},
{
closed = 1;
nodes = (
(429,-20,l),
(568,63,l),
(568,259,l),
(491,311,l),
(362,311,l),
(297,241,l),
(468,241,l),
(468,50,l),
(357,50,l),
(357,-20,l)
);
}
);
width = 610;
},
{
anchors = (
{
name = ogonek;
pos = (422,0);
},
{
name = top;
pos = (443,390);
}
);
backgroundImage = {
imagePath = "../reference/@Celes/lowercase/a.png";
locked = 1;
pos = (80,0);
scale = (14,14);
};
layerId = m002;
shapes = (
{
closed = 1;
nodes = (
(143,340,l),
(303,433,l),
(303,490,l),
(62,340,l)
);
},
{
closed = 1;
nodes = (
(303,-1,l),
(303,69,l),
(424,-10,l),
(424,90,l),
(303,214,l),
(303,393,l),
(143,302,l),
(143,-152,l)
);
},
{
closed = 1;
nodes = (
(85,-200,l),
(119,-166,l),
(119,-11,l),
(2,-200,l)
);
},
{
closed = 1;
nodes = (
(634,358,l),
(726,458,l),
(342,458,l),
(342,358,l)
);
},
{
closed = 1;
nodes = (
(540,-10,l),
(688,79,l),
(688,263,l),
(594,326,l),
(454,326,l),
(362,226,l),
(528,226,l),
(528,90,l),
(449,90,l),
(449,-10,l)
);
}
);
width = 750;
},
{
anchors = (
{
name = ogonek;
pos = (382,0);
},
{
name = top;
pos = (473,390);
}
);
backgroundImage = {
imagePath = "../reference/@Celes/lowercase/a.png";
locked = 1;
pos = (140,0);
scale = (14,14);
};
layerId = m004;
shapes = (
{
closed = 1;
nodes = (
(133,370,l),
(233,443,l),
(233,490,l),
(48,370,l)
);
},
{
closed = 1;
nodes = (
(233,0,l),
(233,116,l),
(364,-10,l),
(364,60,l),
(233,215,l),
(233,373,l),
(133,319,l),
(133,-116,l)
);
},
{
closed = 1;
nodes = (
(60,-200,l),
(115,-137,l),
(115,-23,l),
(10,-200,l)
);
},
{
closed = 1;
nodes = (
(726,373,l),
(791,443,l),
(294,443,l),
(296,373,l)
);
},
{
closed = 1;
nodes = (
(637,-10,l),
(768,82,l),
(768,259,l),
(691,311,l),
(422,311,l),
(357,241,l),
(668,241,l),
(668,60,l),
(400,60,l),
(400,-10,l)
);
}
);
width = 810;
},
{
anchors = (
{
name = ogonek;
pos = (346,0);
},
{
name = top;
pos = (363,390);
}
);
backgroundImage = {
imagePath = "../reference/@Celes/lowercase/a.png";
locked = 1;
pos = (30,0);
scale = (14,14);
};
layerId = m005;
shapes = (
{
closed = 1;
nodes = (
(153,410,l),
(193,433,l),
(193,490,l),
(112,410,l)
);
},
{
closed = 1;
nodes = (
(193,0,l),
(193,145,l),
(347,-10,l),
(347,20,l),
(193,192,l),
(193,403,l),
(153,384,l),
(153,-58,l)
);
},
{
closed = 1;
nodes = (
(42,-200,l),
(145,-64,l),
(145,-9,l),
(17,-200,l)
);
},
{
closed = 1;
nodes = (
(500,403,l),
(528,433,l),
(234,433,l),
(233,403,l)
);
},
{
closed = 1;
nodes = (
(488,-10,l),
(528,27,l),
(528,230,l),
(486,261,l),
(318,261,l),
(290,231,l),
(488,231,l),
(488,20,l),
(370,20,l),
(370,-10,l)
);
}
);
width = 560;
},
{
anchors = (
{
name = ogonek;
pos = (456,0);
},
{
name = top;
pos = (473,390);
}
);
backgroundImage = {
imagePath = "../reference/@Celes/lowercase/a.png";
locked = 1;
pos = (140,0);
scale = (14,14);
};
layerId = m006;
shapes = (
{
closed = 1;
nodes = (
(153,410,l),
(193,433,l),
(193,490,l),
(62,410,l)
);
},
{
closed = 1;
nodes = (
(193,0,l),
(193,136,l),
(347,-10,l),
(347,20,l),
(193,185,l),
(193,403,l),
(153,380,l),
(153,-61,l)
);
},
{
closed = 1;
nodes = (
(42,-200,l),
(138,-73,l),
(138,-24,l),
(17,-200,l)
);
},
{
closed = 1;
nodes = (
(720,403,l),
(748,433,l),
(225,433,l),
(225,403,l)
);
},
{
closed = 1;
nodes = (
(688,-10,l),
(728,27,l),
(728,230,l),
(686,261,l),
(398,261,l),
(370,231,l),
(688,231,l),
(688,20,l),
(397,20,l),
(397,-10,l)
);
}
);
width = 780;
}
);
unicode = 97;
},
{
color = 3;
glyphname = ae;
kernLeft = a;
kernRight = e;
lastChange = "2024-08-28 12:56:14 +0000";
layers = (
{
layerId = m01;
shapes = (
{
alignment = -1;
ref = a;
},
{
closed = 1;
nodes = (
(825,-10,l),
(933,105,l),
(933,408,l),
(868,490,l),
(584,490,l),
(447,288,l),
(497,288,l),
(604,420,l),
(833,420,l),
(833,60,l),
(614,60,l),
(549,-10,l)
);
},
{
closed = 1;
nodes = (
(972,193,l),
(1037,263,l),
(645,263,l),
(580,193,l)
);
}
);
width = 1051;
},
{
layerId = m002;
shapes = (
{
alignment = -1;
ref = a;
},
{
closed = 1;
nodes = (
(962,-10,l),
(1083,103,l),
(1083,409,l),
(1006,490,l),
(664,490,l),
(506,273,l),
(615,273,l),
(722,390,l),
(923,390,l),
(923,90,l),
(756,90,l),
(664,-10,l)
);
},
{
closed = 1;
nodes = (
(1110,178,l),
(1202,278,l),
(747,278,l),
(655,178,l)
);
}
);
width = 1221;
},
{
layerId = m004;
shapes = (
{
alignment = -1;
ref = a;
},
{
closed = 1;
nodes = (
(1165,-10,l),
(1273,105,l),
(1273,408,l),
(1208,490,l),
(794,490,l),
(647,288,l),
(697,288,l),
(814,420,l),
(1173,420,l),
(1173,60,l),
(814,60,l),
(749,-10,l)
);
},
{
closed = 1;
nodes = (
(1372,193,l),
(1437,263,l),
(945,263,l),
(880,193,l)
);
}
);
width = 1451;
},
{
layerId = m005;
shapes = (
{
alignment = -1;
ref = a;
},
{
closed = 1;
nodes = (
(817,-10,l),
(863,23,l),
(863,420,l),
(823,460,l),
(527,460,l),
(409,308,l),
(434,308,l),
(544,430,l),
(823,430,l),
(823,20,l),
(590,20,l),
(562,-10,l)
);
},
{
closed = 1;
nodes = (
(966,213,l),
(994,243,l),
(611,243,l),
(583,213,l)
);
}
);
width = 1021;
},
{
layerId = m006;
shapes = (
{
alignment = -1;
ref = a;
},
{
closed = 1;
nodes = (
(1197,-10,l),
(1243,23,l),
(1243,420,l),
(1203,460,l),
(757,460,l),
(599,328,l),
(624,328,l),
(774,430,l),
(1203,430,l),
(1203,20,l),
(780,20,l),
(752,-10,l)
);
},
{
closed = 1;
nodes = (
(1386,213,l),
(1414,243,l),
(821,243,l),
(793,213,l)
);
}
);
width = 1441;
}
);
metricLeft = a;
metricRight = e;
unicode = 230;
},
{
color = 3;
glyphname = b;
kernLeft = b;
kernRight = b;
lastChange = "2024-10-06 06:03:03 +0000";
layers = (
{
layerId = m01;
shapes = (
{
closed = 1;
nodes = (
(411,181,l),
(476,251,l),
(347,251,l),
(347,401,l),
(247,314,l),
(247,251,l),
(129,251,l),
(347,446,l),
(347,700,l),
(182,580,l),
(247,580,l),
(247,430,l),
(29,239,l),
(29,181,l)
);
},
{
closed = 1;
nodes = (
(39,151,l),
(131,-10,l),
(345,-10,l),
(496,135,l),
(446,135,l),
(339,60,l),
(197,60,l),
(148,151,l)
);
}
);
width = 520;
},
{
layerId = m002;
shapes = (
{
closed = 1;
nodes = (
(466,166,l),
(558,266,l),
(447,266,l),
(447,437,l),
(287,299,l),
(287,266,l),
(191,266,l),
(447,496,l),
(447,700,l),
(206,550,l),
(287,550,l),
(287,468,l),
(29,241,l),
(29,166,l)
);
},
{
closed = 1;
nodes = (
(44,137,l),
(170,-10,l),
(461,-10,l),
(614,150,l),
(514,150,l),
(426,90,l),
(278,90,l),
(222,137,l)
);
}
);
width = 640;
},
{
layerId = m004;
shapes = (
{
closed = 1;
nodes = (
(611,191,l),
(676,261,l),
(447,261,l),
(447,403,l),
(347,339,l),
(347,261,l),
(136,261,l),
(447,455,l),
(447,700,l),
(232,580,l),
(347,580,l),
(347,465,l),
(29,249,l),
(29,191,l)
);
},
{
closed = 1;
nodes = (
(48,148,l),
(171,-10,l),
(525,-10,l),
(696,145,l),
(646,145,l),
(519,60,l),
(237,60,l),
(169,148,l)
);
}
);
width = 720;
},
{
layerId = m005;
shapes = (
{
closed = 1;
nodes = (
(415,188,l),
(443,218,l),
(297,218,l),
(297,396,l),
(257,362,l),
(257,218,l),
(79,218,l),
(297,440,l),
(297,700,l),
(216,620,l),
(257,620,l),
(257,444,l),
(30,227,l),
(30,188,l)
);
},
{
closed = 1;
nodes = (
(55,148,l),
(167,-10,l),
(347,-10,l),
(458,125,l),
(432,125,l),
(331,20,l),
(192,20,l),
(104,148,l)
);
}
);
width = 480;
},
{
layerId = m006;
shapes = (
{
closed = 1;
nodes = (
(615,208,l),
(643,238,l),
(397,238,l),
(397,400,l),
(357,366,l),
(357,238,l),
(85,238,l),
(397,443,l),
(397,700,l),
(266,620,l),
(357,620,l),
(357,450,l),
(30,247,l),
(30,208,l)
);
},
{
closed = 1;
nodes = (
(59,167,l),
(197,-10,l),
(517,-10,l),
(658,135,l),
(632,135,l),
(501,20,l),
(222,20,l),
(110,167,l)
);
}
);
width = 690;
}
);
unicode = 98;
},
{
color = 1;
glyphname = c;
kernLeft = c;
kernRight = RxH;
lastChange = "2024-09-19 22:19:33 +0000";
layers = (
{
anchors = (
{
name = ogonek;
pos = (384,0);
},
{
name = top;
pos = (241,390);
}
);
backgroundImage = {
imagePath = "../reference/@Celes/lowercase/c.png";
locked = 1;
pos = (-227,-399);
scale = (14,14);
};
layerId = m01;
shapes = (
{
closed = 1;
nodes = (
(455,449,l),
(455,490,l),
(290,370,l),
(355,370,l)
);
},
{
closed = 1;
nodes = (
(31,204,l),
(355,204,l),
(455,268,l),
(455,393,l),
(355,318,l),
(355,274,l),
(131,274,l)
);
},
{
closed = 1;
nodes = (
(355,161,l),
(355,-30,l),
(455,30,l),
(455,218,l)
);
},
{
closed = 1;
nodes = (
(31,173,l),
(31,-15,l),
(232,-200,l),
(282,-200,l),
(131,-11,l),
(131,173,l)
);
}
);
width = 490;
},
{
anchors = (
{
name = ogonek;
pos = (454,20);
},
{
name = top;
pos = (301,390);
}
);
backgroundImage = {
imagePath = "../reference/@Celes/lowercase/c.png";
locked = 1;
pos = (-10,0);
scale = (14,14);
};
layerId = m002;
shapes = (
{
closed = 1;
nodes = (
(555,427,l),
(555,490,l),
(314,340,l),
(395,340,l)
);
},
{
closed = 1;
nodes = (
(31,189,l),
(395,189,l),
(555,287,l),
(555,393,l),
(395,316,l),
(395,289,l),
(147,289,l)
);
},
{
closed = 1;
nodes = (
(395,156,l),
(395,-30,l),
(555,66,l),
(555,252,l)
);
},
{
closed = 1;
nodes = (
(31,168,l),
(31,-17,l),
(246,-200,l),
(355,-200,l),
(191,-10,l),
(191,168,l)
);
}
);
width = 590;
},
{
anchors = (
{
name = ogonek;
pos = (584,0);
},
{
name = top;
pos = (361,390);
}
);
backgroundImage = {
imagePath = "../reference/@Celes/lowercase/c.png";
locked = 1;
pos = (-10,0);
scale = (14,14);
};
layerId = m004;
shapes = (
{
closed = 1;
nodes = (
(655,432,l),
(655,490,l),
(450,370,l),
(555,370,l)
);
},
{
closed = 1;
nodes = (
(31,204,l),
(555,204,l),
(655,256,l),
(655,366,l),
(555,331,l),
(555,274,l),
(131,274,l)
);
},
{
closed = 1;
nodes = (
(555,158,l),
(555,-30,l),
(655,30,l),
(655,214,l)
);
},
{
closed = 1;
nodes = (
(31,161,l),
(31,-15,l),
(252,-200,l),
(302,-200,l),
(131,9,l),
(131,161,l)
);
}
);
width = 710;
},
{
anchors = (
{
name = ogonek;
pos = (374,0);
},
{
name = top;
pos = (221,390);
}
);
backgroundImage = {
imagePath = "../reference/@Celes/lowercase/c.png";
locked = 1;
pos = (-30,0);
scale = (14,14);
};
layerId = m005;
shapes = (
{
closed = 1;
nodes = (
(405,454,l),
(405,490,l),
(324,410,l),
(365,410,l)
);
},
{
closed = 1;
nodes = (
(41,214,l),
(365,214,l),
(405,239,l),
(405,427,l),
(365,381,l),
(365,244,l),
(80,244,l)
);
},
{
closed = 1;
nodes = (
(365,184,l),
(365,-30,l),
(405,0,l),
(405,209,l)
);
},
{
closed = 1;
nodes = (
(41,191,l),
(41,-39,l),
(225,-200,l),
(251,-200,l),
(81,-22,l),
(81,191,l)
);
}
);
width = 440;
},
{
anchors = (
{
name = ogonek;
pos = (564,0);
},
{
name = top;
pos = (321,390);
}
);
backgroundImage = {
imagePath = "../reference/@Celes/lowercase/c.png";
locked = 1;
pos = (70,0);
scale = (14,14);
};
layerId = m006;
shapes = (
{
closed = 1;
nodes = (
(595,443,l),
(595,490,l),
(464,410,l),
(555,410,l)
);
},
{
closed = 1;
nodes = (
(41,214,l),
(555,214,l),
(595,237,l),
(595,415,l),
(555,385,l),
(555,244,l),
(80,244,l)
);
},
{
closed = 1;
nodes = (
(555,180,l),
(555,-30,l),
(595,0,l),
(595,205,l)
);
},
{
closed = 1;
nodes = (
(41,186,l),
(41,-29,l),
(225,-200,l),
(251,-200,l),
(81,-12,l),
(81,186,l)
);
}
);
width = 640;
}
);
unicode = 99;
},
{
color = 1;
glyphname = d;
kernLeft = b;
kernRight = d;
lastChange = "2024-09-19 22:29:09 +0000";
layers = (
{
backgroundImage = {
imagePath = "../reference/@Celes/lowercase/d.png";
locked = 1;
pos = (-208,-424);
scale = (14,14);
};
layerId = m01;
shapes = (
{
closed = 1;
nodes = (
(254,579,l),
(354,645,l),
(354,699,l),
(168,579,l)
);
},
{
closed = 1;
nodes = (
(354,99,l),
(354,585,l),
(254,530,l),
(254,99,l)
);
},
{
closed = 1;
nodes = (
(190,60,l),
(131,134,l),
(131,266,l),
(228,347,l),
(228,412,l),
(31,260,l),
(31,103,l),
(190,-10,l)
);
},
{
closed = 1;
nodes = (
(421,-10,l),
(486,60,l),
(219,60,l),
(219,-10,l)
);
},
{
closed = 1;
nodes = (
(537,342,l),
(389,419,l),
(389,345,l),
(469,290,l)
);
}
);
width = 560;
},
{
backgroundImage = {
imagePath = "../reference/@Celes/lowercase/d.png";
locked = 1;
pos = (93,-291);
scale = (14,14);
};
layerId = m002;
shapes = (
{
closed = 1;
nodes = (
(304,550,l),
(464,623,l),
(464,700,l),
(198,550,l)
);
},
{
closed = 1;
nodes = (
(464,140,l),
(464,583,l),
(304,521,l),
(304,139,l)
);
},
{
closed = 1;
nodes = (
(236,90,l),
(191,135,l),
(191,263,l),
(270,315,l),
(270,420,l),
(31,263,l),
(31,81,l),
(236,-10,l)
);
},
{
closed = 1;
nodes = (
(519,-10,l),
(611,90,l),
(260,90,l),
(260,-10,l)
);
},
{
closed = 1;
nodes = (
(665,338,l),
(486,432,l),
(486,325,l),
(562,259,l)
);
}
);
width = 690;
},
{
backgroundImage = {
imagePath = "../reference/@Celes/lowercase/d.png";
locked = 1;
pos = (173,-291);
scale = (14,14);
};
layerId = m004;
shapes = (
{
closed = 1;
nodes = (
(384,579,l),
(484,630,l),
(484,699,l),
(268,579,l)
);
},
{
closed = 1;
nodes = (
(484,89,l),
(484,563,l),
(384,537,l),
(384,89,l)
);
},
{
closed = 1;
nodes = (
(280,60,l),
(131,134,l),
(131,266,l),
(340,374,l),
(340,444,l),
(31,280,l),
(31,103,l),
(280,-10,l)
);
},
{
closed = 1;
nodes = (
(611,-10,l),
(676,60,l),
(315,60,l),
(315,-10,l)
);
},
{
closed = 1;
nodes = (
(757,342,l),
(515,444,l),
(515,374,l),
(689,290,l)
);
}
);
width = 780;
},
{
backgroundImage = {
imagePath = "../reference/@Celes/lowercase/d.png";
locked = 1;
pos = (33,-291);
scale = (14,14);
};
layerId = m005;
shapes = (
{
closed = 1;
nodes = (
(254,620,l),
(294,655,l),
(294,700,l),
(198,620,l)
);
},
{
closed = 1;
nodes = (
(294,43,l),
(294,605,l),
(254,582,l),
(254,43,l)
);
},
{
closed = 1;
nodes = (
(193,20,l),
(71,125,l),
(71,295,l),
(221,414,l),
(221,444,l),
(31,305,l),
(31,108,l),
(193,-10,l)
);
},
{
closed = 1;
nodes = (
(375,-10,l),
(403,20,l),
(231,20,l),
(231,-10,l)
);
},
{
closed = 1;
nodes = (
(465,359,l),
(329,444,l),
(329,414,l),
(465,319,l)
);
}
);
width = 500;
},
{
backgroundImage = {
imagePath = "../reference/@Celes/lowercase/d.png";
locked = 1;
pos = (153,-291);
scale = (14,14);
};
layerId = m006;
shapes = (
{
closed = 1;
nodes = (
(374,620,l),
(414,646,l),
(414,700,l),
(268,620,l)
);
},
{
closed = 1;
nodes = (
(414,61,l),
(414,615,l),
(374,589,l),
(374,60,l)
);
},
{
closed = 1;
nodes = (
(239,20,l),
(81,125,l),
(81,295,l),
(327,414,l),
(327,444,l),
(41,305,l),
(41,108,l),
(239,-10,l)
);
},
{
closed = 1;
nodes = (
(585,-10,l),
(613,20,l),
(272,20,l),
(272,-10,l)
);
},
{
closed = 1;
nodes = (
(705,359,l),
(472,444,l),
(472,414,l),
(705,319,l)
);
}
);
width = 740;
}
);
unicode = 100;
},
{
color = 3;
glyphname = eth;
kernLeft = b;
kernRight = d;
lastChange = "2024-08-28 13:01:59 +0000";
layers = (
{
layerId = m01;
shapes = (
{
ref = d;
},
{
closed = 1;
nodes = (
(418,469,l),
(483,539,l),
(195,539,l),
(130,469,l)
);
}
);
width = 560;
},
{
layerId = m002;
shapes = (
{
ref = d;
},
{
closed = 1;
nodes = (
(498,441,l),
(563,511,l),
(275,511,l),
(210,441,l)
);
}
);
width = 690;
},
{
layerId = m004;
shapes = (
{
ref = d;
},
{
closed = 1;
nodes = (
(578,469,l),
(643,539,l),
(255,539,l),
(190,469,l)
);
}
);
width = 780;
},
{
layerId = m005;
shapes = (
{
ref = d;
},
{
closed = 1;
nodes = (
(402,509,l),
(430,539,l),
(151,539,l),
(123,509,l)
);
}
);
width = 500;
},
{
layerId = m006;
shapes = (
{
ref = d;
},
{
closed = 1;
nodes = (
(572,509,l),
(600,539,l),
(221,539,l),
(193,509,l)
);
}
);
width = 740;
}
);
metricLeft = d;
metricRight = d;
unicode = 240;
},
{
color = 1;
glyphname = e;
kernLeft = e;
kernRight = e;
lastChange = "2024-09-19 22:37:49 +0000";
layers = (
{
anchors = (
{
name = top;
pos = (307,390);
}
);
backgroundImage = {
imagePath = "../reference/@Celes/lowercase/e.png";
locked = 1;
pos = (-188,-413);
scale = (14,14);
};
layerId = m01;
shapes = (
{
closed = 1;
nodes = (
(66,288,l),
(147,402,l),
(94,402,l),
(16,288,l)
);
},
{
closed = 1;
nodes = (
(502,292,l),
(502,408,l),
(437,490,l),
(153,490,l),
(105,420,l),
(402,420,l),
(402,292,l)
);
},
{
closed = 1;
nodes = (
(541,193,l),
(606,263,l),
(214,263,l),
(149,193,l)
);
},
{
closed = 1;
nodes = (
(394,-10,l),
(502,163,l),
(402,163,l),
(323,40,l),
(206,40,l),
(141,-10,l)
);
}
);
width = 620;
},
{
anchors = (
{
name = top;
pos = (367,390);
}
);
backgroundImage = {
imagePath = "../reference/@Celes/lowercase/e.png";
locked = 1;
pos = (118,-253);
scale = (14,14);
};
layerId = m002;
shapes = (
{
closed = 1;
nodes = (
(125,273,l),
(201,374,l),
(88,374,l),
(15,273,l)
);
},
{
closed = 1;
nodes = (
(592,314,l),
(592,409,l),
(516,490,l),
(173,490,l),
(98,390,l),
(432,390,l),
(432,314,l)
);
},
{
closed = 1;
nodes = (
(639,178,l),
(731,278,l),
(236,278,l),
(144,178,l)
);
},
{
closed = 1;
nodes = (
(471,-10,l),
(592,154,l),
(432,154,l),
(382,80,l),
(228,80,l),
(136,-10,l)
);
}
);
width = 750;
},
{
anchors = (
{
name = top;
pos = (407,390);
}
);
backgroundImage = {
imagePath = "../reference/@Celes/lowercase/e.png";
locked = 1;
pos = (178,-253);
scale = (14,14);
};
layerId = m004;
shapes = (
{
closed = 1;
nodes = (
(66,288,l),
(200,401,l),
(132,401,l),
(16,288,l)
);
},
{
closed = 1;
nodes = (
(662,304,l),
(662,408,l),
(597,490,l),
(203,490,l),
(146,420,l),
(562,420,l),
(562,304,l)
);
},
{
closed = 1;
nodes = (
(741,193,l),
(806,263,l),
(284,263,l),
(219,193,l)
);
},
{
closed = 1;
nodes = (
(544,-10,l),
(662,159,l),
(562,159,l),
(491,50,l),
(206,50,l),
(141,-10,l)
);
}
);
width = 820;
},
{
anchors = (
{
name = top;
pos = (287,390);
}
);
backgroundImage = {
imagePath = "../reference/@Celes/lowercase/e.png";
locked = 1;
pos = (58,-253);
scale = (14,14);
};
layerId = m005;
shapes = (
{
closed = 1;
nodes = (
(50,299,l),
(178,432,l),
(139,432,l),
(24,299,l)
);
},
{
closed = 1;
nodes = (
(472,291,l),
(472,461,l),
(438,490,l),
(182,490,l),
(152,460,l),
(432,460,l),
(432,291,l)
);
},
{
closed = 1;
nodes = (
(535,223,l),
(563,253,l),
(210,253,l),
(182,223,l)
);
},
{
closed = 1;
nodes = (
(389,-10,l),
(472,191,l),
(432,191,l),
(358,20,l),
(152,20,l),
(124,-10,l)
);
}
);
width = 590;
},
{
anchors = (
{
name = top;
pos = (387,390);
}
);
backgroundImage = {
imagePath = "../reference/@Celes/lowercase/e.png";
locked = 1;
pos = (158,-253);
scale = (14,14);
};
layerId = m006;
shapes = (
{
closed = 1;
nodes = (
(50,299,l),
(204,437,l),
(167,437,l),
(24,299,l)
);
},
{
closed = 1;
nodes = (
(622,287,l),
(622,461,l),
(588,490,l),
(222,490,l),
(183,460,l),
(582,460,l),
(582,287,l)
);
},
{
closed = 1;
nodes = (
(765,223,l),
(793,253,l),
(260,253,l),
(232,223,l)
);
},
{
closed = 1;
nodes = (
(520,-10,l),
(622,199,l),
(582,199,l),
(494,20,l),
(162,20,l),
(134,-10,l)
);
}
);
width = 820;
}
);
unicode = 101;
},
{
color = 1;
glyphname = f;
kernLeft = LxD;
kernRight = f;
lastChange = "2024-09-19 22:40:37 +0000";
layers = (
{
backgroundImage = {
imagePath = "../reference/@Celes/lowercase/f.png";
locked = 1;
pos = (-226,-375);
scale = (14,14);
};
layerId = m01;
shapes = (
{
closed = 1;
nodes = (
(101,370,l),
(201,432,l),
(201,490,l),
(15,370,l)
);
},
{
closed = 1;
nodes = (
(201,-170,l),
(201,380,l),
(101,332,l),
(101,-230,l)
);
},
{
closed = 1;
nodes = (
(503,233,l),
(394,315,l),
(240,315,l),
(240,245,l),
(376,245,l),
(503,183,l)
);
}
);
width = 530;
},
{
backgroundImage = {
imagePath = "../reference/@Celes/lowercase/f.png";
locked = 1;
pos = (-30,0);
scale = (14,14);
};
layerId = m002;
shapes = (
{
closed = 1;
nodes = (
(121,340,l),
(281,425,l),
(281,490,l),
(15,340,l)
);
},
{
closed = 1;
nodes = (
(281,-134,l),
(281,377,l),
(121,298,l),
(121,-230,l)
);
},
{
closed = 1;
nodes = (
(653,246,l),
(528,330,l),
(328,330,l),
(328,230,l),
(486,230,l),
(653,158,l)
);
}
);
width = 680;
},
{
backgroundImage = {
imagePath = "../reference/@Celes/lowercase/f.png";
locked = 1;
pos = (-20,0);
scale = (14,14);
};
layerId = m004;
shapes = (
{
closed = 1;
nodes = (
(141,370,l),
(241,425,l),
(241,490,l),
(15,370,l)
);
},
{
closed = 1;
nodes = (
(241,-170,l),
(241,375,l),
(141,335,l),
(141,-230,l)
);
},
{
closed = 1;
nodes = (
(743,213,l),
(564,315,l),
(314,315,l),
(314,245,l),
(546,245,l),
(743,163,l)
);
}
);
width = 770;
},
{
backgroundImage = {
imagePath = "../reference/@Celes/lowercase/f.png";
locked = 1;
pos = (-60,0);
scale = (14,14);
};
layerId = m005;
shapes = (
{
closed = 1;
nodes = (
(81,410,l),
(121,448,l),
(121,490,l),
(25,410,l)
);
},
{
closed = 1;
nodes = (
(121,-200,l),
(121,400,l),
(81,376,l),
(81,-230,l)
);
},
{
closed = 1;
nodes = (
(453,219,l),
(331,295,l),
(157,295,l),
(157,265,l),
(323,265,l),
(453,194,l)
);
}
);
width = 490;
},
{
backgroundImage = {
imagePath = "../reference/@Celes/lowercase/f.png";
locked = 1;
pos = (50,0);
scale = (14,14);
};
layerId = m006;
shapes = (
{
closed = 1;
nodes = (
(131,410,l),
(171,433,l),
(171,490,l),
(25,410,l)
);
},
{
closed = 1;
nodes = (
(171,-200,l),
(171,390,l),
(131,369,l),
(131,-230,l)
);
},
{
closed = 1;
nodes = (
(713,219,l),
(521,295,l),
(216,295,l),
(216,265,l),
(513,265,l),
(713,194,l)
);
}
);
width = 750;
}
);
unicode = 102;
},
{
color = 1;
glyphname = g;
kernLeft = g;
kernRight = g;
lastChange = "2024-09-19 22:45:50 +0000";
layers = (
{
backgroundImage = {
imagePath = "../reference/@Celes/lowercase/g.png";
locked = 1;
pos = (-206,-379);
scale = (14,14);
};
layerId = m01;
shapes = (
{
closed = 1;
nodes = (
(490,410,l),
(555,480,l),
(130,480,l),
(65,410,l)
);
},
{
closed = 1;
nodes = (
(247,-200,l),
(135,-20,l),
(135,278,l),
(204,371,l),
(128,371,l),
(35,247,l),
(35,-24,l),
(197,-200,l)
);
},
{
closed = 1;
nodes = (
(431,30,l),
(431,371,l),
(331,371,l),
(331,-30,l)
);
}
);
width = 570;
},
{
backgroundImage = {
imagePath = "../reference/@Celes/lowercase/g.png";
locked = 1;
pos = (-10,0);
scale = (14,14);
};
layerId = m002;
shapes = (
{
closed = 1;
nodes = (
(608,380,l),
(700,480,l),
(132,480,l),
(40,380,l)
);
},
{
closed = 1;
nodes = (
(317,-200,l),
(195,-19,l),
(195,257,l),
(273,346,l),
(129,346,l),
(35,248,l),
(35,-26,l),
(210,-200,l)
);
},
{
closed = 1;
nodes = (
(561,66,l),
(561,346,l),
(401,346,l),
(401,-30,l)
);
}
);
width = 720;
},
{
backgroundImage = {
imagePath = "../reference/@Celes/lowercase/g.png";
locked = 1;
pos = (-10,0);
scale = (14,14);
};
layerId = m004;
shapes = (
{
closed = 1;
nodes = (
(690,410,l),
(755,480,l),
(110,480,l),
(45,410,l)
);
},
{
closed = 1;
nodes = (
(277,-200,l),
(135,10,l),
(135,178,l),
(304,375,l),
(215,375,l),
(35,207,l),
(35,-54,l),
(227,-200,l)
);
},
{
closed = 1;
nodes = (
(591,30,l),
(591,375,l),
(491,375,l),
(491,-30,l)
);
}
);
width = 770;
},
{
backgroundImage = {
imagePath = "../reference/@Celes/lowercase/g.png";
locked = 1;
pos = (-30,0);
scale = (14,14);
};
layerId = m005;
shapes = (
{
closed = 1;
nodes = (
(484,450,l),
(512,480,l),
(96,480,l),
(68,450,l)
);
},
{
closed = 1;
nodes = (
(218,-200,l),
(85,30,l),
(85,257,l),
(209,432,l),
(176,432,l),
(45,252,l),
(45,11,l),
(193,-200,l)
);
},
{
closed = 1;
nodes = (
(381,0,l),
(381,432,l),
(341,432,l),
(341,-30,l)
);
}
);
width = 540;
},
{
backgroundImage = {
imagePath = "../reference/@Celes/lowercase/g.png";
locked = 1;
pos = (100,0);
scale = (14,14);
};
layerId = m006;
shapes = (
{
closed = 1;
nodes = (
(754,450,l),
(782,480,l),
(96,480,l),
(68,450,l)
);
},
{
closed = 1;
nodes = (
(228,-200,l),
(85,-20,l),
(85,217,l),
(272,422,l),
(241,422,l),
(45,212,l),
(45,-39,l),
(203,-200,l)
);
},
{
closed = 1;
nodes = (
(571,0,l),
(571,422,l),
(531,422,l),
(531,-30,l)
);
}
);
width = 810;
}
);
unicode = 103;
},
{
color = 3;
glyphname = h;
kernLeft = LCH;
kernRight = h;
lastChange = "2024-10-06 06:05:51 +0000";
layers = (
{
layerId = m01;
shapes = (
{
closed = 1;
nodes = (
(201,384,l),
(201,700,l),
(15,579,l),
(101,579,l),
(101,310,l)
);
},
{
closed = 1;
nodes = (
(201,40,l),
(201,216,l),
(543,480,l),
(409,480,l),
(101,245,l),
(101,-30,l)
);
},
{
closed = 1;
nodes = (
(525,89,l),
(525,237,l),
(477,273,l),
(353,273,l),
(259,203,l),
(425,203,l),
(425,123,l),
(341,35,l),
(341,-17,l)
);
}
);
width = 560;
},
{
layerId = m002;
shapes = (
{
closed = 1;
nodes = (
(281,425,l),
(281,700,l),
(16,549,l),
(121,549,l),
(121,321,l)
);
},
{
closed = 1;
nodes = (
(281,82,l),
(281,227,l),
(676,485,l),
(462,485,l),
(121,262,l),
(121,-30,l)
);
},
{
closed = 1;
nodes = (
(665,85,l),
(665,240,l),
(601,288,l),
(493,288,l),
(345,188,l),
(505,188,l),
(505,125,l),
(421,73,l),
(421,-20,l)
);
}
);
width = 700;
},
{
layerId = m004;
shapes = (
{
closed = 1;
nodes = (
(241,369,l),
(241,700,l),
(15,579,l),
(141,579,l),
(141,321,l)
);
},
{
closed = 1;
nodes = (
(241,40,l),
(241,234,l),
(749,480,l),
(570,480,l),
(141,269,l),
(141,-30,l)
);
},
{
closed = 1;
nodes = (
(765,69,l),
(765,237,l),
(697,293,l),
(520,293,l),
(312,223,l),
(665,223,l),
(665,103,l),
(461,35,l),
(461,-17,l)
);
}
);
width = 800;
},
{
layerId = m005;
shapes = (
{
closed = 1;
nodes = (
(121,352,l),
(121,700,l),
(24,619,l),
(81,619,l),
(81,321,l)
);
},
{
closed = 1;
nodes = (
(121,0,l),
(121,256,l),
(429,480,l),
(366,480,l),
(81,273,l),
(81,-30,l)
);
},
{
closed = 1;
nodes = (
(445,78,l),
(445,250,l),
(414,273,l),
(199,273,l),
(153,243,l),
(405,243,l),
(405,98,l),
(292,5,l),
(292,-20,l)
);
}
);
width = 480;
},
{
layerId = m006;
shapes = (
{
closed = 1;
nodes = (
(171,336,l),
(171,700,l),
(24,619,l),
(131,619,l),
(131,305,l)
);
},
{
closed = 1;
nodes = (
(171,0,l),
(171,243,l),
(659,480,l),
(578,480,l),
(131,270,l),
(131,-30,l)
);
},
{
closed = 1;
nodes = (
(685,88,l),
(685,250,l),
(654,273,l),
(299,273,l),
(231,243,l),
(645,243,l),
(645,108,l),
(432,5,l),
(432,-20,l)
);
}
);
width = 720;
}
);
unicode = 104;
},
{
color = 1;
glyphname = i;
kernLeft = LxH;
kernRight = RxH;
lastChange = "2024-10-06 00:10:39 +0000";
layers = (
{
anchors = (
{
name = top;
pos = (123,390);
}
);
backgroundImage = {
imagePath = "../reference/@Celes/lowercase/i.png";
locked = 1;
pos = (-418,-371);
scale = (14,14);
};
layerId = m01;
shapes = (
{
closed = 1;
nodes = (
(180,435,l),
(180,490,l),
(15,370,l),
(80,370,l)
);
},
{
closed = 1;
nodes = (
(80,292,l),
(80,-30,l),
(180,30,l),
(180,347,l)
);
}
);
width = 225;
},
{
anchors = (
{
name = top;
pos = (183,400);
}
);
backgroundImage = {
imagePath = "../reference/@Celes/lowercase/i.png";
locked = 1;
pos = (-20,0);
scale = (14,14);
};
layerId = m002;
shapes = (
{
closed = 1;
nodes = (
(260,425,l),
(260,490,l),
(19,340,l),
(100,340,l)
);
},
{
closed = 1;
nodes = (
(100,253,l),
(100,-30,l),
(260,66,l),
(260,328,l)
);
}
);
width = 305;
},
{
anchors = (
{
name = top;
pos = (183,390);
}
);
backgroundImage = {
imagePath = "../reference/@Celes/lowercase/i.png";
locked = 1;
pos = (-10,0);
scale = (14,14);
};
layerId = m004;
shapes = (
{
closed = 1;
nodes = (
(240,421,l),
(240,490,l),
(35,370,l),
(140,370,l)
);
},
{
closed = 1;
nodes = (
(140,281,l),
(140,-30,l),
(240,30,l),
(240,326,l)
);
}
);
width = 335;
},
{
anchors = (
{
name = top;
pos = (73,390);
}
);
backgroundImage = {
imagePath = "../reference/@Celes/lowercase/i.png";
locked = 1;
pos = (-60,0);
scale = (14,14);
};
layerId = m005;
shapes = (
{
closed = 1;
nodes = (
(100,437,l),
(100,490,l),
(19,410,l),
(60,410,l)
);
},
{
closed = 1;
nodes = (
(60,359,l),
(60,-30,l),
(100,0,l),
(100,381,l)
);
}
);
width = 145;
},
{
anchors = (
{
name = top;
pos = (133,390);
}
);
backgroundImage = {
imagePath = "../reference/@Celes/lowercase/i.png";
locked = 1;
scale = (14,14);
};
layerId = m006;
shapes = (
{
closed = 1;
nodes = (
(160,440,l),
(160,490,l),
(29,410,l),
(120,410,l)
);
},
{
closed = 1;
nodes = (
(120,334,l),
(120,-30,l),
(160,0,l),
(160,360,l)
);
}
);
width = 235;
}
);
unicode = 105;
},
{
color = 3;
glyphname = j;
kernLeft = j;
kernRight = j;
lastChange = "2024-10-06 01:46:31 +0000";
layers = (
{
anchors = (
{
name = top;
pos = (223,390);
}
);
layerId = m01;
shapes = (
{
closed = 1;
nodes = (
(235,256,l),
(235,490,l),
(25,370,l),
(135,370,l),
(135,256,l)
);
},
{
closed = 1;
nodes = (
(94,226,l),
(29,156,l),
(135,156,l),
(135,88,l),
(225,-10,l),
(447,-10,l),
(538,131,l),
(488,131,l),
(417,60,l),
(288,60,l),
(235,120,l),
(235,156,l),
(302,156,l),
(367,226,l)
);
}
);
width = 550;
},
{
anchors = (
{
name = top;
pos = (313,400);
}
);
layerId = m002;
shapes = (
{
closed = 1;
nodes = (
(325,292,l),
(325,490,l),
(31,340,l),
(165,340,l),
(165,292,l)
);
},
{
closed = 1;
nodes = (
(113,271,l),
(44,171,l),
(165,171,l),
(165,86,l),
(267,-10,l),
(578,-10,l),
(688,171,l),
(581,171,l),
(510,90,l),
(325,90,l),
(325,141,l),
(325,171,l),
(400,171,l),
(492,271,l)
);
}
);
width = 700;
},
{
anchors = (
{
name = top;
pos = (323,390);
}
);
layerId = m004;
shapes = (
{
closed = 1;
nodes = (
(335,316,l),
(335,490,l),
(85,370,l),
(235,370,l),
(235,314,l)
);
},
{
closed = 1;
nodes = (
(94,256,l),
(29,186,l),
(235,186,l),
(235,108,l),
(365,-10,l),
(687,-10,l),
(778,141,l),
(728,141,l),
(657,60,l),
(428,60,l),
(335,140,l),
(335,186,l),
(472,186,l),
(537,256,l)
);
}
);
width = 790;
},
{
anchors = (
{
name = top;
pos = (193,390);
}
);
layerId = m005;
shapes = (
{
closed = 1;
nodes = (
(175,256,l),
(175,490,l),
(61,410,l),
(135,410,l),
(135,258,l)
);
},
{
closed = 1;
nodes = (
(50,206,l),
(22,176,l),
(135,176,l),
(135,93,l),
(231,-10,l),
(398,-10,l),
(493,131,l),
(470,131,l),
(378,20,l),
(261,20,l),
(175,115,l),
(175,176,l),
(276,176,l),
(304,206,l)
);
}
);
width = 520;
},
{
anchors = (
{
name = top;
pos = (283,390);
}
);
layerId = m006;
shapes = (
{
closed = 1;
nodes = (
(265,284,l),
(265,490,l),
(101,410,l),
(225,410,l),
(225,284,l)
);
},
{
closed = 1;
nodes = (
(60,236,l),
(32,206,l),
(225,206,l),
(225,93,l),
(351,-10,l),
(628,-10,l),
(723,131,l),
(700,131,l),
(608,20,l),
(371,20,l),
(265,105,l),
(265,206,l),
(426,206,l),
(454,236,l)
);
}
);
width = 750;
}
);
unicode = 106;
},
{
color = 3;
glyphname = k;
kernLeft = k;
kernRight = k;
lastChange = "2024-10-06 06:12:40 +0000";
layers = (
{
layerId = m01;
shapes = (
{
closed = 1;
nodes = (
(235,338,l),
(235,490,l),
(25,370,l),
(135,370,l),
(135,204,l)
);
},
{
closed = 1;
nodes = (
(538,117,l),
(538,290,l),
(449,360,l),
(307,360,l),
(135,113,l),
(205,113,l),
(332,290,l),
(438,290,l),
(438,147,l),
(275,88,l),
(375,48,l)
);
},
{
closed = 1;
nodes = (
(449,-200,l),
(375,-111,l),
(375,5,l),
(275,45,l),
(275,-99,l),
(399,-200,l)
);
}
);
width = 570;
},
{
layerId = m002;
shapes = (
{
closed = 1;
nodes = (
(325,368,l),
(325,490,l),
(31,340,l),
(165,340,l),
(165,164,l)
);
},
{
closed = 1;
nodes = (
(708,107,l),
(708,310,l),
(631,395,l),
(377,395,l),
(165,98,l),
(264,98,l),
(441,295,l),
(548,295,l),
(548,137,l),
(355,73,l),
(515,33,l)
);
},
{
closed = 1;
nodes = (
(603,-200,l),
(515,-95,l),
(515,-8,l),
(355,32,l),
(355,-87,l),
(494,-200,l)
);
}
);
width = 740;
},
{
layerId = m004;
shapes = (
{
closed = 1;
nodes = (
(275,275,l),
(275,490,l),
(25,370,l),
(175,370,l),
(175,173,l)
);
},
{
closed = 1;
nodes = (
(778,169,l),
(778,290,l),
(689,360,l),
(407,360,l),
(175,93,l),
(252,93,l),
(452,290,l),
(678,290,l),
(678,211,l),
(415,106,l),
(515,66,l)
);
},
{
closed = 1;
nodes = (
(634,-200,l),
(515,-65,l),
(515,22,l),
(415,62,l),
(415,-89,l),
(584,-200,l)
);
}
);
width = 810;
},
{
layerId = m005;
shapes = (
{
closed = 1;
nodes = (
(135,250,l),
(135,470,l),
(21,390,l),
(95,390,l),
(95,195,l)
);
},
{
closed = 1;
nodes = (
(458,120,l),
(458,310,l),
(418,340,l),
(241,340,l),
(95,133,l),
(132,133,l),
(259,310,l),
(418,310,l),
(418,149,l),
(235,91,l),
(275,61,l)
);
},
{
closed = 1;
nodes = (
(367,-200,l),
(275,-82,l),
(275,17,l),
(235,47,l),
(235,-92,l),
(341,-200,l)
);
}
);
width = 490;
},
{
layerId = m006;
shapes = (
{
closed = 1;
nodes = (
(185,251,l),
(185,470,l),
(21,390,l),
(145,390,l),
(145,192,l)
);
},
{
closed = 1;
nodes = (
(688,180,l),
(688,310,l),
(648,340,l),
(331,340,l),
(145,133,l),
(181,133,l),
(349,310,l),
(648,310,l),
(648,199,l),
(395,91,l),
(435,71,l)
);
},
{
closed = 1;
nodes = (
(567,-200,l),
(435,-68,l),
(435,27,l),
(395,47,l),
(395,-87,l),
(541,-200,l)
);
}
);
width = 720;
}
);
unicode = 107;
},
{
color = 1;
glyphname = l;
kernLeft = l;
kernRight = L;
lastChange = "2024-10-06 00:13:40 +0000";
layers = (
{
backgroundImage = {
imagePath = "../reference/@Celes/lowercase/l.png";
locked = 1;
pos = (49,-350);
scale = (14,14);
};
layerId = m01;
shapes = (
{
closed = 1;
nodes = (
(277,319,l),
(277,658,l),
(256,700,l),
(156,700,l),
(177,658,l),
(177,319,l)
);
},
{
closed = 1;
nodes = (
(277,70,l),
(277,190,l),
(386,190,l),
(451,260,l),
(277,260,l),
(177,260,l),
(89,260,l),
(24,190,l),
(177,190,l),
(177,0,l)
);
},
{
closed = 1;
nodes = (
(263,0,l),
(424,0,l),
(489,70,l),
(329,70,l)
);
}
);
width = 510;
},
{
backgroundImage = {
imagePath = "../reference/@Celes/lowercase/l.png";
locked = 1;
pos = (99,-350);
scale = (14,14);
};
layerId = m002;
shapes = (
{
closed = 1;
nodes = (
(387,392,l),
(387,643,l),
(359,700,l),
(198,700,l),
(227,643,l),
(227,394,l)
);
},
{
closed = 1;
nodes = (
(387,100,l),
(387,195,l),
(504,195,l),
(596,295,l),
(387,295,l),
(227,295,l),
(121,295,l),
(29,195,l),
(227,195,l),
(227,0,l)
);
},
{
closed = 1;
nodes = (
(361,0,l),
(572,0,l),
(664,100,l),
(458,100,l)
);
}
);
width = 690;
},
{
backgroundImage = {
imagePath = "../reference/@Celes/lowercase/l.png";
locked = 1;
pos = (149,-350);
scale = (14,14);
};
layerId = m004;
shapes = (
{
closed = 1;
nodes = (
(377,372,l),
(377,658,l),
(356,700,l),
(256,700,l),
(277,658,l),
(277,370,l)
);
},
{
closed = 1;
nodes = (
(377,70,l),
(377,250,l),
(586,250,l),
(651,320,l),
(377,320,l),
(277,320,l),
(89,320,l),
(24,250,l),
(277,250,l),
(277,0,l)
);
},
{
closed = 1;
nodes = (
(382,0,l),
(684,0,l),
(749,70,l),
(443,70,l)
);
}
);
width = 770;
},
{
backgroundImage = {
imagePath = "../reference/@Celes/lowercase/l.png";
locked = 1;
pos = (19,-350);
scale = (14,14);
};
layerId = m005;
shapes = (
{
closed = 1;
nodes = (
(217,324,l),
(217,660,l),
(195,700,l),
(157,700,l),
(177,655,l),
(177,322,l)
);
},
{
closed = 1;
nodes = (
(217,30,l),
(217,240,l),
(350,240,l),
(378,270,l),
(217,270,l),
(177,270,l),
(55,270,l),
(27,240,l),
(177,240,l),
(177,0,l)
);
},
{
closed = 1;
nodes = (
(227,0,l),
(388,0,l),
(416,30,l),
(251,30,l)
);
}
);
width = 440;
},
{
backgroundImage = {
imagePath = "../reference/@Celes/lowercase/l.png";
locked = 1;
pos = (99,-350);
scale = (14,14);
};
layerId = m006;
shapes = (
{
closed = 1;
nodes = (
(297,331,l),
(297,660,l),
(275,700,l),
(237,700,l),
(257,655,l),
(257,332,l)
);
},
{
closed = 1;
nodes = (
(297,30,l),
(297,270,l),
(510,270,l),
(538,300,l),
(297,300,l),
(257,300,l),
(55,300,l),
(27,270,l),
(257,270,l),
(257,0,l)
);
},
{
closed = 1;
nodes = (
(319,0,l),
(618,0,l),
(646,30,l),
(346,30,l)
);
}
);
width = 670;
}
);
unicode = 108;
},
{
color = 1;
glyphname = m;
kernLeft = M;
kernRight = M;
lastChange = "2024-10-06 00:21:35 +0000";
layers = (
{
backgroundImage = {
imagePath = "../reference/@Celes/lowercase/m.png";
locked = 1;
pos = (-82,-438);
scale = (14,14);
};
layerId = m01;
shapes = (
{
closed = 1;
nodes = (
(139,580,l),
(239,645,l),
(239,700,l),
(29,580,l)
);
},
{
closed = 1;
nodes = (
(239,578,l),
(139,519,l),
(139,135,l),
(239,134,l)
);
},
{
closed = 1;
nodes = (
(270,0,l),
(335,70,l),
(90,70,l),
(25,0,l)
);
},
{
closed = 1;
nodes = (
(615,0,l),
(580,70,l),
(531,70,l),
(360,460,l),
(288,460,l),
(288,390,l),
(454,0,l)
);
},
{
closed = 1;
nodes = (
(851,0,l),
(816,70,l),
(767,70,l),
(566,460,l),
(494,460,l),
(494,390,l),
(690,0,l)
);
}
);
width = 870;
},
{
backgroundImage = {
imagePath = "../reference/@Celes/lowercase/m.png";
locked = 1;
pos = (-32,-438);
scale = (14,14);
};
layerId = m002;
shapes = (
{
closed = 1;
nodes = (
(159,550,l),
(319,620,l),
(319,700,l),
(25,550,l)
);
},
{
closed = 1;
nodes = (
(319,561,l),
(159,482,l),
(159,164,l),
(319,168,l)
);
},
{
closed = 1;
nodes = (
(338,0,l),
(430,100,l),
(122,100,l),
(30,0,l)
);
},
{
closed = 1;
nodes = (
(733,0,l),
(683,100,l),
(635,100,l),
(474,480,l),
(354,480,l),
(354,380,l),
(510,0,l)
);
},
{
closed = 1;
nodes = (
(999,0,l),
(949,100,l),
(901,100,l),
(720,480,l),
(600,480,l),
(600,380,l),
(776,0,l)
);
}
);
width = 1020;
},
{
backgroundImage = {
imagePath = "../reference/@Celes/lowercase/m.png";
locked = 1;
pos = (18,-438);
scale = (14,14);
};
layerId = m004;
shapes = (
{
closed = 1;
nodes = (
(239,580,l),
(339,628,l),
(339,700,l),
(89,580,l)
);
},
{
closed = 1;
nodes = (
(339,541,l),
(239,487,l),
(239,137,l),
(339,141,l)
);
},
{
closed = 1;
nodes = (
(420,0,l),
(485,70,l),
(90,70,l),
(25,0,l)
);
},
{
closed = 1;
nodes = (
(855,0,l),
(820,70,l),
(731,70,l),
(490,460,l),
(418,460,l),
(418,390,l),
(654,0,l)
);
},
{
closed = 1;
nodes = (
(1151,0,l),
(1116,70,l),
(1027,70,l),
(766,460,l),
(694,460,l),
(694,390,l),
(950,0,l)
);
}
);
width = 1170;
},
{
backgroundImage = {
imagePath = "../reference/@Celes/lowercase/m.png";
locked = 1;
pos = (-102,-438);
scale = (14,14);
};
layerId = m005;
shapes = (
{
closed = 1;
nodes = (
(149,620,l),
(189,651,l),
(189,700,l),
(75,620,l)
);
},
{
closed = 1;
nodes = (
(189,579,l),
(149,549,l),
(149,95,l),
(189,92,l)
);
},
{
closed = 1;
nodes = (
(274,0,l),
(302,30,l),
(56,30,l),
(28,0,l)
);
},
{
closed = 1;
nodes = (
(584,0,l),
(569,30,l),
(489,30,l),
(298,410,l),
(270,410,l),
(270,380,l),
(456,0,l)
);
},
{
closed = 1;
nodes = (
(820,0,l),
(805,30,l),
(725,30,l),
(514,410,l),
(486,410,l),
(486,380,l),
(692,0,l)
);
}
);
width = 840;
},
{
backgroundImage = {
imagePath = "../reference/@Celes/lowercase/m.png";
locked = 1;
pos = (18,-438);
scale = (14,14);
};
layerId = m006;
shapes = (
{
closed = 1;
nodes = (
(219,620,l),
(259,638,l),
(259,700,l),
(95,620,l)
);
},
{
closed = 1;
nodes = (
(259,565,l),
(219,543,l),
(219,78,l),
(259,74,l)
);
},
{
closed = 1;
nodes = (
(444,0,l),
(472,30,l),
(56,30,l),
(28,0,l)
);
},
{
closed = 1;
nodes = (
(804,0,l),
(789,30,l),
(679,30,l),
(438,430,l),
(410,430,l),
(410,400,l),
(646,0,l)
);
},
{
closed = 1;
nodes = (
(1090,0,l),
(1075,30,l),
(965,30,l),
(704,430,l),
(676,430,l),
(676,400,l),
(932,0,l)
);
}
);
width = 1110;
}
);
unicode = 109;
},
{
color = 1;
glyphname = n;
kernLeft = n;
kernRight = n;
lastChange = "2024-10-06 00:24:09 +0000";
layers = (
{
anchors = (
{
name = top;
pos = (376,380);
}
);
annotations = (
{
pos = (632,40);
type = Arrow;
},
{
pos = (531,114);
type = Arrow;
},
{
pos = (642.909,101.548);
text = "";
type = Text;
}
);
backgroundImage = {
imagePath = "../reference/@Celes/lowercase/n.png";
locked = 1;
pos = (-13,-438);
scale = (14,14);
};
layerId = m01;
shapes = (
{
closed = 1;
nodes = (
(481,-10,l),
(609,59,l),
(609,289,l),
(517,410,l),
(600,410,l),
(665,480,l),
(450,480,l),
(385,410,l),
(449,410,l),
(509,295,l),
(509,124,l),
(408,60,l),
(342,60,l),
(282,-10,l)
);
},
{
closed = 1;
nodes = (
(260,316,l),
(260,490,l),
(95,370,l),
(160,370,l),
(160,311,l)
);
},
{
closed = 1;
nodes = (
(160,269,l),
(86,269,l),
(21,199,l),
(160,199,l),
(160,-30,l),
(260,30,l),
(260,199,l),
(333,199,l),
(398,269,l),
(260,269,l)
);
}
);
width = 690;
},
{
anchors = (
{
name = top;
pos = (486,390);
}
);
annotations = (
{
pos = (632,40);
type = Arrow;
},
{
pos = (531,114);
type = Arrow;
},
{
pos = (642.909,101.548);
text = "";
type = Text;
}
);
backgroundImage = {
imagePath = "../reference/@Celes/lowercase/n.png";
locked = 1;
pos = (37,-438);
scale = (14,14);
};
layerId = m002;
shapes = (
{
closed = 1;
nodes = (
(759,-10,l),
(759,-10,l),
(759,290,l),
(689,380,l),
(738,380,l),
(830,480,l),
(552,480,l),
(460,380,l),
(561,380,l),
(599,294,l),
(599,90,l),
(599,90,l),
(454,90,l),
(368,-10,l)
);
},
{
closed = 1;
nodes = (
(360,331,l),
(360,490,l),
(119,340,l),
(200,340,l),
(200,322,l)
);
},
{
closed = 1;
nodes = (
(200,284,l),
(118,284,l),
(26,184,l),
(200,184,l),
(200,-30,l),
(360,66,l),
(360,184,l),
(451,184,l),
(543,284,l),
(360,284,l)
);
}
);
width = 860;
},
{
anchors = (
{
name = top;
pos = (476,380);
}
);
annotations = (
{
pos = (632,40);
type = Arrow;
},
{
pos = (531,114);
type = Arrow;
},
{
pos = (642.909,101.548);
text = "";
type = Text;
}
);
backgroundImage = {
imagePath = "../reference/@Celes/lowercase/n.png";
locked = 1;
pos = (87,-438);
scale = (14,14);
};
layerId = m004;
shapes = (
{
closed = 1;
nodes = (
(641,-10,l),
(809,81,l),
(809,264,l),
(663,410,l),
(840,410,l),
(905,480,l),
(550,480,l),
(485,410,l),
(595,410,l),
(709,259,l),
(709,133,l),
(602,60,l),
(442,60,l),
(382,-10,l)
);
},
{
closed = 1;
nodes = (
(330,312,l),
(330,490,l),
(125,370,l),
(230,370,l),
(230,310,l)
);
},
{
closed = 1;
nodes = (
(230,269,l),
(86,269,l),
(21,199,l),
(230,199,l),
(230,-30,l),
(330,30,l),
(330,199,l),
(473,199,l),
(538,269,l),
(330,269,l)
);
}
);
width = 930;
},
{
anchors = (
{
name = top;
pos = (356,380);
}
);
annotations = (
{
pos = (632,40);
type = Arrow;
},
{
pos = (531,114);
type = Arrow;
},
{
pos = (642.909,101.548);
text = "";
type = Text;
}
);
backgroundImage = {
imagePath = "../reference/@Celes/lowercase/n.png";
locked = 1;
pos = (-33,-438);
scale = (14,14);
};
layerId = m005;
shapes = (
{
closed = 1;
nodes = (
(451,-10,l),
(559,48,l),
(559,332,l),
(484,450,l),
(584,450,l),
(612,480,l),
(426,480,l),
(398,450,l),
(448,450,l),
(519,332,l),
(519,66,l),
(431,20,l),
(309,20,l),
(283,-10,l)
);
},
{
closed = 1;
nodes = (
(210,289,l),
(210,490,l),
(119,410,l),
(170,410,l),
(170,291,l)
);
},
{
closed = 1;
nodes = (
(170,249,l),
(52,249,l),
(24,219,l),
(170,219,l),
(170,-30,l),
(210,0,l),
(210,219,l),
(317,219,l),
(345,249,l),
(210,249,l)
);
}
);
width = 640;
},
{
anchors = (
{
name = top;
pos = (476,380);
}
);
annotations = (
{
pos = (632,40);
type = Arrow;
},
{
pos = (531,114);
type = Arrow;
},
{
pos = (642.909,101.548);
text = "";
type = Text;
}
);
backgroundImage = {
imagePath = "../reference/@Celes/lowercase/n.png";
locked = 1;
pos = (87,-438);
scale = (14,14);
};
layerId = m006;
shapes = (
{
closed = 1;
nodes = (
(621,-10,l),
(749,68,l),
(749,332,l),
(623,450,l),
(814,450,l),
(842,480,l),
(516,480,l),
(488,450,l),
(576,450,l),
(709,323,l),
(709,86,l),
(601,20,l),
(409,20,l),
(383,-10,l)
);
},
{
closed = 1;
nodes = (
(270,287,l),
(270,490,l),
(129,410,l),
(230,410,l),
(230,290,l)
);
},
{
closed = 1;
nodes = (
(230,249,l),
(52,249,l),
(24,219,l),
(230,219,l),
(230,-30,l),
(270,0,l),
(270,219,l),
(437,219,l),
(465,249,l),
(270,249,l)
);
}
);
width = 870;
}
);
unicode = 110;
},
{
color = 1;
glyphname = o;
kernLeft = o;
kernRight = o;
lastChange = "2024-10-06 00:34:28 +0000";
layers = (
{
anchors = (
{
name = top;
pos = (276,390);
}
);
backgroundImage = {
imagePath = "../reference/@Celes/lowercase/o.png";
locked = 1;
pos = (-13,-395);
scale = (14,14);
};
layerId = m01;
shapes = (
{
closed = 1;
nodes = (
(404,40,l),
(255,40,l),
(125,181,l),
(125,399,l),
(35,336,l),
(35,116,l),
(153,-10,l),
(346,-10,l)
);
},
{
closed = 1;
nodes = (
(494,137,l),
(494,385,l),
(399,490,l),
(198,490,l),
(128,440,l),
(301,440,l),
(404,329,l),
(404,71,l)
);
}
);
width = 530;
},
{
anchors = (
{
name = top;
pos = (326,400);
}
);
backgroundImage = {
imagePath = "../reference/@Celes/lowercase/o.png";
locked = 1;
pos = (17,-395);
scale = (14,14);
};
layerId = m002;
shapes = (
{
closed = 1;
nodes = (
(444,70,l),
(303,70,l),
(175,183,l),
(175,390,l),
(35,321,l),
(35,114,l),
(166,-10,l),
(380,-10,l)
);
},
{
closed = 1;
nodes = (
(594,148,l),
(594,374,l),
(487,490,l),
(245,490,l),
(175,410,l),
(346,410,l),
(454,287,l),
(454,80,l)
);
}
);
width = 630;
},
{
anchors = (
{
name = top;
pos = (376,390);
}
);
backgroundImage = {
imagePath = "../reference/@Celes/lowercase/o.png";
locked = 1;
pos = (87,-395);
scale = (14,14);
};
layerId = m004;
shapes = (
{
closed = 1;
nodes = (
(586,40,l),
(255,40,l),
(125,181,l),
(125,420,l),
(35,343,l),
(35,116,l),
(153,-10,l),
(535,-10,l)
);
},
{
closed = 1;
nodes = (
(704,141,l),
(704,385,l),
(609,490,l),
(255,490,l),
(185,440,l),
(504,440,l),
(614,318,l),
(614,72,l)
);
}
);
width = 740;
},
{
anchors = (
{
name = top;
pos = (246,390);
}
);
backgroundImage = {
imagePath = "../reference/@Celes/lowercase/o.png";
locked = 1;
pos = (-43,-395);
scale = (14,14);
};
layerId = m005;
shapes = (
{
closed = 1;
nodes = (
(386,20,l),
(205,20,l),
(75,166,l),
(75,440,l),
(35,408,l),
(35,141,l),
(169,-10,l),
(358,-10,l)
);
},
{
closed = 1;
nodes = (
(434,70,l),
(434,343,l),
(315,490,l),
(130,490,l),
(97,460,l),
(283,460,l),
(394,321,l),
(394,38,l)
);
}
);
width = 470;
},
{
anchors = (
{
name = top;
pos = (346,390);
}
);
backgroundImage = {
imagePath = "../reference/@Celes/lowercase/o.png";
locked = 1;
pos = (57,-395);
scale = (14,14);
};
layerId = m006;
shapes = (
{
closed = 1;
nodes = (
(582,20,l),
(195,20,l),
(75,156,l),
(75,442,l),
(35,410,l),
(35,141,l),
(169,-10,l),
(549,-10,l)
);
},
{
closed = 1;
nodes = (
(634,71,l),
(634,353,l),
(495,490,l),
(137,490,l),
(101,460,l),
(473,460,l),
(594,341,l),
(594,42,l)
);
}
);
width = 670;
}
);
unicode = 111;
},
{
color = 0;
glyphname = oslash;
kernLeft = o;
kernRight = o;
lastChange = "2024-08-28 12:59:07 +0000";
layers = (
{
layerId = m01;
shapes = (
{
ref = o;
},
{
closed = 1;
nodes = (
(135,-40,l),
(518,520,l),
(418,520,l),
(35,-40,l)
);
}
);
width = 530;
},
{
layerId = m002;
shapes = (
{
pos = (30,0);
ref = o;
},
{
closed = 1;
nodes = (
(191,-35,l),
(683,520,l),
(522,520,l),
(30,-35,l)
);
}
);
width = 700;
},
{
layerId = m004;
shapes = (
{
ref = o;
},
{
closed = 1;
nodes = (
(120,-20,l),
(747,502,l),
(647,502,l),
(20,-20,l)
);
}
);
width = 760;
},
{
layerId = m005;
shapes = (
{
ref = o;
},
{
closed = 1;
nodes = (
(81,-20,l),
(466,510,l),
(431,510,l),
(46,-20,l)
);
}
);
width = 470;
},
{
layerId = m006;
shapes = (
{
ref = o;
},
{
closed = 1;
nodes = (
(66,-20,l),
(651,510,l),
(606,510,l),
(21,-20,l)
);
}
);
width = 670;
}
);
unicode = 248;
},
{
color = 3;
glyphname = oe;
kernLeft = o;
kernRight = e;
lastChange = "2024-08-28 13:00:25 +0000";
layers = (
{
layerId = m01;
shapes = (
{
ref = o;
},
{
closed = 1;
nodes = (
(782,-10,l),
(890,105,l),
(890,408,l),
(825,490,l),
(541,490,l),
(414,288,l),
(464,288,l),
(561,420,l),
(790,420,l),
(790,60,l),
(574,60,l),
(509,-10,l)
);
},
{
closed = 1;
nodes = (
(929,193,l),
(994,263,l),
(602,263,l),
(537,193,l)
);
}
);
width = 1008;
},
{
layerId = m002;
shapes = (
{
ref = o;
},
{
closed = 1;
nodes = (
(909,-10,l),
(1030,103,l),
(1030,409,l),
(954,490,l),
(631,490,l),
(463,273,l),
(573,273,l),
(690,390,l),
(870,390,l),
(870,90,l),
(666,90,l),
(574,-10,l)
);
},
{
closed = 1;
nodes = (
(1057,178,l),
(1149,278,l),
(734,278,l),
(642,178,l)
);
}
);
width = 1168;
},
{
layerId = m004;
shapes = (
{
ref = o;
},
{
closed = 1;
nodes = (
(1162,-10,l),
(1270,105,l),
(1270,408,l),
(1205,490,l),
(771,490,l),
(624,288,l),
(674,288,l),
(791,420,l),
(1170,420,l),
(1170,60,l),
(804,60,l),
(739,-10,l)
);
},
{
closed = 1;
nodes = (
(1369,193,l),
(1434,263,l),
(872,263,l),
(807,193,l)
);
}
);
width = 1448;
},
{
layerId = m005;
shapes = (
{
ref = o;
},
{
closed = 1;
nodes = (
(817,10,l),
(860,51,l),
(860,457,l),
(817,490,l),
(535,490,l),
(402,308,l),
(427,308,l),
(551,460,l),
(820,460,l),
(820,40,l),
(540,40,l),
(512,10,l)
);
},
{
closed = 1;
nodes = (
(943,223,l),
(971,253,l),
(588,253,l),
(560,223,l)
);
}
);
width = 998;
},
{
layerId = m006;
shapes = (
{
ref = o;
},
{
closed = 1;
nodes = (
(1157,10,l),
(1200,51,l),
(1200,457,l),
(1157,490,l),
(775,490,l),
(602,338,l),
(627,338,l),
(791,460,l),
(1160,460,l),
(1160,40,l),
(750,40,l),
(722,10,l)
);
},
{
closed = 1;
nodes = (
(1333,223,l),
(1361,253,l),
(818,253,l),
(790,223,l)
);
}
);
width = 1388;
}
);
metricLeft = o;
metricRight = e;
unicode = 339;
},
{
color = 1;
glyphname = p;
kernLeft = p;
kernRight = p;
lastChange = "2024-10-06 00:39:30 +0000";
layers = (
{
backgroundImage = {
imagePath = "../reference/@Celes/lowercase/p.png";
locked = 1;
pos = (-30,0);
scale = (14,14);
};
layerId = m01;
shapes = (
{
closed = 1;
nodes = (
(101,392,l),
(201,446,l),
(201,489,l),
(23,392,l)
);
},
{
closed = 1;
nodes = (
(262,-10,l),
(262,60,l),
(262,60,l),
(201,143,l),
(201,369,l),
(101,323,l),
(101,103,l),
(262,-10,l)
);
},
{
closed = 1;
nodes = (
(392,-72,l),
(392,-10,l),
(462,-10,l),
(565,150,l),
(565,279,l),
(518,351,l),
(372,351,l),
(292,257,l),
(292,-63,l),
(201,-145,l),
(201,-215,l)
);
},
{
closed = 1;
nodes = (
(392,281,l),
(439,281,l),
(465,252,l),
(465,60,l),
(392,60,l)
);
}
);
width = 590;
},
{
backgroundImage = {
imagePath = "../reference/@Celes/lowercase/p.png";
locked = 1;
pos = (30,0);
scale = (14,14);
};
layerId = m002;
shapes = (
{
closed = 1;
nodes = (
(131,363,l),
(291,444,l),
(291,490,l),
(29,363,l)
);
},
{
closed = 1;
nodes = (
(325,-10,l),
(326,97,l),
(326,97,l),
(291,144,l),
(291,382,l),
(131,318,l),
(131,101,l),
(281,-10,l)
);
},
{
closed = 1;
nodes = (
(522,-68,l),
(522,-10,l),
(633,-10,l),
(745,149,l),
(745,300,l),
(625,386,l),
(454,386,l),
(362,278,l),
(362,-54,l),
(261,-157,l),
(261,-230,l)
);
},
{
closed = 1;
nodes = (
(522,253,l),
(522,253,l),
(585,206,l),
(585,90,l),
(522,90,l)
);
}
);
width = 770;
},
{
backgroundImage = {
imagePath = "../reference/@Celes/lowercase/p.png";
locked = 1;
pos = (110,0);
scale = (14,14);
};
layerId = m004;
shapes = (
{
closed = 1;
nodes = (
(141,392,l),
(241,437,l),
(241,489,l),
(23,392,l)
);
},
{
closed = 1;
nodes = (
(382,-10,l),
(381,60,l),
(352,60,l),
(241,143,l),
(241,374,l),
(141,339,l),
(141,103,l),
(300,-10,l)
);
},
{
closed = 1;
nodes = (
(532,-115,l),
(532,-10,l),
(712,-10,l),
(815,150,l),
(815,279,l),
(728,371,l),
(512,371,l),
(432,277,l),
(432,-82,l),
(281,-145,l),
(281,-215,l)
);
},
{
closed = 1;
nodes = (
(532,301,l),
(654,301,l),
(715,226,l),
(715,60,l),
(532,60,l)
);
}
);
width = 840;
},
{
backgroundImage = {
imagePath = "../reference/@Celes/lowercase/p.png";
locked = 1;
pos = (-80,0);
scale = (14,14);
};
layerId = m005;
shapes = (
{
closed = 1;
nodes = (
(81,433,l),
(121,456,l),
(121,490,l),
(29,433,l)
);
},
{
closed = 1;
nodes = (
(244,-10,l),
(244,20,l),
(199,20,l),
(121,124,l),
(121,400,l),
(81,390,l),
(81,108,l),
(176,-10,l)
);
},
{
closed = 1;
nodes = (
(322,-86,l),
(322,-10,l),
(442,-10,l),
(485,30,l),
(485,228,l),
(396,291,l),
(322,291,l),
(282,245,l),
(282,-70,l),
(152,-185,l),
(152,-210,l)
);
},
{
closed = 1;
nodes = (
(322,261,l),
(373,261,l),
(445,211,l),
(445,20,l),
(322,20,l)
);
}
);
width = 520;
},
{
backgroundImage = {
imagePath = "../reference/@Celes/lowercase/p.png";
locked = 1;
pos = (40,0);
scale = (14,14);
};
layerId = m006;
shapes = (
{
closed = 1;
nodes = (
(131,433,l),
(171,451,l),
(171,490,l),
(29,433,l)
);
},
{
closed = 1;
nodes = (
(384,-10,l),
(385,20,l),
(309,20,l),
(171,124,l),
(171,383,l),
(131,372,l),
(131,108,l),
(286,-10,l)
);
},
{
closed = 1;
nodes = (
(472,-94,l),
(472,-10,l),
(702,-10,l),
(745,30,l),
(745,258,l),
(656,351,l),
(472,351,l),
(432,318,l),
(432,-71,l),
(262,-185,l),
(262,-210,l)
);
},
{
closed = 1;
nodes = (
(472,321,l),
(633,321,l),
(705,241,l),
(705,20,l),
(472,20,l)
);
}
);
width = 780;
}
);
unicode = 112;
},
{
color = 3;
glyphname = q;
kernLeft = q;
kernRight = RxH;
lastChange = "2024-10-06 01:36:56 +0000";
layers = (
{
layerId = m01;
shapes = (
{
closed = 1;
nodes = (
(145,-200,l),
(276,-60,l),
(275,4,l),
(211,70,l),
(120,70,l),
(120,250,l),
(279,250,l),
(402,150,l),
(402,220,l),
(286,320,l),
(129,320,l),
(20,199,l),
(20,67,l),
(90,0,l),
(175,0,l),
(176,-70,l),
(95,-200,l)
);
},
{
closed = 1;
nodes = (
(463,30,l),
(463,490,l),
(413,490,l),
(298,370,l),
(363,370,l),
(363,-30,l)
);
}
);
width = 500;
},
{
layerId = m002;
shapes = (
{
closed = 1;
nodes = (
(242,-200,l),
(386,-62,l),
(385,21,l),
(308,100,l),
(180,100,l),
(180,215,l),
(354,215,l),
(522,90,l),
(522,186,l),
(363,315,l),
(161,315,l),
(20,223,l),
(20,103,l),
(109,0,l),
(225,0,l),
(226,-69,l),
(135,-200,l)
);
},
{
closed = 1;
nodes = (
(603,66,l),
(603,490,l),
(506,490,l),
(386,340,l),
(443,340,l),
(443,-30,l)
);
}
);
width = 640;
},
{
layerId = m004;
shapes = (
{
closed = 1;
nodes = (
(235,-200,l),
(406,-112,l),
(405,18,l),
(341,70,l),
(120,70,l),
(120,250,l),
(379,250,l),
(602,130,l),
(602,200,l),
(416,320,l),
(104,320,l),
(20,250,l),
(20,67,l),
(90,0,l),
(305,0,l),
(306,-84,l),
(185,-200,l)
);
},
{
closed = 1;
nodes = (
(663,30,l),
(663,490,l),
(613,490,l),
(458,370,l),
(563,370,l),
(563,-30,l)
);
}
);
width = 700;
},
{
layerId = m005;
shapes = (
{
closed = 1;
nodes = (
(113,-200,l),
(235,-89,l),
(235,0,l),
(201,30,l),
(80,30,l),
(80,260,l),
(274,260,l),
(395,163,l),
(395,193,l),
(289,290,l),
(83,290,l),
(40,254,l),
(40,31,l),
(73,0,l),
(195,0,l),
(195,-73,l),
(86,-200,l)
);
},
{
closed = 1;
nodes = (
(413,0,l),
(413,490,l),
(409,490,l),
(332,410,l),
(373,410,l),
(373,-30,l)
);
}
);
width = 460;
},
{
layerId = m006;
shapes = (
{
closed = 1;
nodes = (
(203,-200,l),
(355,-89,l),
(355,0,l),
(321,30,l),
(80,30,l),
(80,310,l),
(374,310,l),
(605,123,l),
(605,153,l),
(389,340,l),
(73,340,l),
(40,304,l),
(40,31,l),
(73,0,l),
(315,0,l),
(315,-73,l),
(176,-200,l)
);
},
{
closed = 1;
nodes = (
(623,0,l),
(623,490,l),
(619,490,l),
(492,410,l),
(583,410,l),
(583,-30,l)
);
}
);
width = 670;
}
);
unicode = 113;
},
{
color = 1;
glyphname = r;
kernLeft = LxH;
kernRight = r;
lastChange = "2024-10-06 00:43:37 +0000";
layers = (
{
backgroundImage = {
imagePath = "../reference/@Celes/lowercase/r.png";
locked = 1;
pos = (-10,0);
scale = (14,14);
};
layerId = m01;
shapes = (
{
closed = 1;
nodes = (
(180,319,l),
(180,490,l),
(15,370,l),
(80,370,l),
(80,268,l)
);
},
{
closed = 1;
nodes = (
(415,0,l),
(506,77,l),
(506,230,l),
(433,325,l),
(242,325,l),
(80,211,l),
(80,-30,l),
(180,30,l),
(180,168,l),
(281,255,l),
(406,255,l),
(406,70,l),
(320,70,l),
(245,0,l)
);
},
{
closed = 1;
nodes = (
(245,-37,l),
(245,-153,l),
(301,-200,l),
(453,-200,l),
(518,-130,l),
(345,-130,l),
(345,-35,l)
);
}
);
width = 540;
},
{
backgroundImage = {
imagePath = "../reference/@Celes/lowercase/r.png";
locked = 1;
pos = (-10,0);
scale = (14,14);
};
layerId = m002;
shapes = (
{
closed = 1;
nodes = (
(260,325,l),
(260,490,l),
(19,340,l),
(100,340,l),
(100,247,l)
);
},
{
closed = 1;
nodes = (
(580,0,l),
(686,75,l),
(686,231,l),
(602,340,l),
(302,340,l),
(100,165,l),
(100,-30,l),
(260,66,l),
(260,144,l),
(349,240,l),
(526,240,l),
(526,100,l),
(393,100,l),
(305,0,l)
);
},
{
closed = 1;
nodes = (
(305,-33,l),
(305,-140,l),
(376,-200,l),
(561,-200,l),
(653,-100,l),
(465,-100,l),
(465,-36,l)
);
}
);
width = 710;
},
{
backgroundImage = {
imagePath = "../reference/@Celes/lowercase/r.png";
locked = 1;
pos = (-10,0);
scale = (14,14);
};
layerId = m004;
shapes = (
{
closed = 1;
nodes = (
(220,317,l),
(220,490,l),
(15,370,l),
(120,370,l),
(120,284,l)
);
},
{
closed = 1;
nodes = (
(665,0,l),
(756,77,l),
(756,256,l),
(683,325,l),
(342,325,l),
(120,203,l),
(120,-30,l),
(220,30,l),
(220,156,l),
(381,255,l),
(656,255,l),
(656,70,l),
(440,70,l),
(365,0,l)
);
},
{
closed = 1;
nodes = (
(365,-57,l),
(365,-153,l),
(421,-200,l),
(713,-200,l),
(778,-130,l),
(465,-130,l),
(465,-57,l)
);
}
);
width = 800;
},
{
backgroundImage = {
imagePath = "../reference/@Celes/lowercase/r.png";
locked = 1;
pos = (-50,0);
scale = (14,14);
};
layerId = m005;
shapes = (
{
closed = 1;
nodes = (
(110,244,l),
(110,490,l),
(29,410,l),
(70,410,l),
(70,228,l)
);
},
{
closed = 1;
nodes = (
(396,0,l),
(436,42,l),
(436,245,l),
(396,285,l),
(191,285,l),
(70,190,l),
(70,-30,l),
(110,0,l),
(110,178,l),
(206,255,l),
(396,255,l),
(396,30,l),
(278,30,l),
(235,0,l)
);
},
{
closed = 1;
nodes = (
(235,-35,l),
(235,-167,l),
(275,-200,l),
(397,-200,l),
(425,-170,l),
(275,-170,l),
(275,-34,l)
);
}
);
width = 470;
},
{
backgroundImage = {
imagePath = "../reference/@Celes/lowercase/r.png";
locked = 1;
pos = (80,0);
scale = (14,14);
};
layerId = m006;
shapes = (
{
closed = 1;
nodes = (
(160,234,l),
(160,490,l),
(29,410,l),
(120,410,l),
(120,210,l)
);
},
{
closed = 1;
nodes = (
(646,0,l),
(686,42,l),
(686,285,l),
(646,325,l),
(301,325,l),
(120,171,l),
(120,-30,l),
(160,0,l),
(160,160,l),
(316,295,l),
(646,295,l),
(646,30,l),
(408,30,l),
(365,0,l)
);
},
{
closed = 1;
nodes = (
(365,-33,l),
(365,-167,l),
(405,-200,l),
(677,-200,l),
(705,-170,l),
(405,-170,l),
(405,-35,l)
);
}
);
width = 730;
}
);
unicode = 114;
},
{
color = 1;
glyphname = s;
kernLeft = LxH;
kernRight = s;
lastChange = "2024-10-06 00:45:04 +0000";
layers = (
{
anchors = (
{
name = top;
pos = (284,390);
}
);
backgroundImage = {
imagePath = "../reference/@Celes/lowercase/s.png";
locked = 1;
pos = (-10,0);
scale = (14,14);
};
layerId = m01;
shapes = (
{
closed = 1;
nodes = (
(180,278,l),
(180,490,l),
(15,370,l),
(80,370,l),
(80,232,l)
);
},
{
closed = 1;
nodes = (
(80,161,l),
(80,-30,l),
(180,30,l),
(180,150,l),
(284,255,l),
(397,255,l),
(397,60,l),
(320,60,l),
(255,-10,l),
(426,-10,l),
(497,60,l),
(497,248,l),
(433,325,l),
(284,325,l)
);
}
);
width = 530;
},
{
anchors = (
{
name = top;
pos = (386,390);
}
);
backgroundImage = {
imagePath = "../reference/@Celes/lowercase/s.png";
locked = 1;
pos = (-10,0);
scale = (14,14);
};
layerId = m002;
shapes = (
{
closed = 1;
nodes = (
(260,318,l),
(260,490,l),
(19,340,l),
(100,340,l),
(100,233,l)
);
},
{
closed = 1;
nodes = (
(100,185,l),
(100,-30,l),
(260,66,l),
(260,169,l),
(351,250,l),
(497,250,l),
(497,90,l),
(422,90,l),
(330,-10,l),
(573,-10,l),
(657,73,l),
(657,249,l),
(582,350,l),
(323,350,l)
);
}
);
width = 690;
},
{
anchors = (
{
name = top;
pos = (442,390);
}
);
backgroundImage = {
imagePath = "../reference/@Celes/lowercase/s.png";
locked = 1;
pos = (-10,0);
scale = (14,14);
};
layerId = m004;
shapes = (
{
closed = 1;
nodes = (
(220,268,l),
(220,490,l),
(15,370,l),
(120,370,l),
(120,208,l)
);
},
{
closed = 1;
nodes = (
(120,159,l),
(120,-30,l),
(220,30,l),
(220,155,l),
(378,255,l),
(637,255,l),
(637,60,l),
(460,60,l),
(395,-10,l),
(666,-10,l),
(737,60,l),
(737,248,l),
(673,325,l),
(364,325,l)
);
}
);
width = 770;
},
{
anchors = (
{
name = top;
pos = (244,390);
}
);
backgroundImage = {
imagePath = "../reference/@Celes/lowercase/s.png";
locked = 1;
pos = (-50,0);
scale = (14,14);
};
layerId = m005;
shapes = (
{
closed = 1;
nodes = (
(110,235,l),
(110,490,l),
(29,410,l),
(70,410,l),
(70,216,l)
);
},
{
closed = 1;
nodes = (
(70,169,l),
(70,-30,l),
(110,0,l),
(110,163,l),
(222,255,l),
(387,255,l),
(387,20,l),
(266,20,l),
(238,-10,l),
(387,-10,l),
(427,30,l),
(427,249,l),
(390,285,l),
(211,285,l)
);
}
);
width = 470;
},
{
anchors = (
{
name = top;
pos = (364,390);
}
);
backgroundImage = {
imagePath = "../reference/@Celes/lowercase/s.png";
locked = 1;
pos = (70,0);
scale = (14,14);
};
layerId = m006;
shapes = (
{
closed = 1;
nodes = (
(160,222,l),
(160,490,l),
(29,410,l),
(120,410,l),
(120,205,l)
);
},
{
closed = 1;
nodes = (
(120,155,l),
(120,-30,l),
(160,0,l),
(160,150,l),
(352,285,l),
(627,285,l),
(627,20,l),
(406,20,l),
(378,-10,l),
(627,-10,l),
(667,30,l),
(667,279,l),
(630,315,l),
(331,315,l)
);
}
);
width = 710;
}
);
unicode = 115;
},
{
color = 3;
glyphname = germandbls;
kernLeft = LxH;
kernRight = y;
lastChange = "2024-08-28 13:01:44 +0000";
layers = (
{
layerId = m01;
shapes = (
{
closed = 1;
nodes = (
(436,-10,l),
(507,60,l),
(507,273,l),
(459,305,l),
(459,451,l),
(380,490,l),
(130,490,l),
(15,370,l),
(80,370,l),
(80,-30,l),
(180,30,l),
(180,420,l),
(359,420,l),
(359,305,l),
(294,235,l),
(407,235,l),
(407,60,l),
(310,60,l),
(245,-10,l)
);
}
);
width = 540;
},
{
layerId = m002;
shapes = (
{
closed = 1;
nodes = (
(563,-10,l),
(647,73,l),
(647,277,l),
(599,309,l),
(599,441,l),
(500,490,l),
(163,490,l),
(19,340,l),
(100,340,l),
(100,-30,l),
(260,66,l),
(260,390,l),
(439,390,l),
(439,307,l),
(359,220,l),
(487,220,l),
(487,90,l),
(392,90,l),
(300,-10,l)
);
}
);
width = 680;
},
{
layerId = m004;
shapes = (
{
closed = 1;
nodes = (
(656,-10,l),
(727,60,l),
(727,273,l),
(639,305,l),
(639,451,l),
(560,490,l),
(170,490,l),
(15,370,l),
(120,370,l),
(120,-30,l),
(220,30,l),
(220,420,l),
(539,420,l),
(539,305,l),
(444,235,l),
(627,235,l),
(627,60,l),
(410,60,l),
(345,-10,l)
);
}
);
width = 760;
},
{
layerId = m005;
shapes = (
{
closed = 1;
nodes = (
(413,-10,l),
(447,28,l),
(447,263,l),
(389,285,l),
(389,461,l),
(349,490,l),
(106,490,l),
(29,410,l),
(70,410,l),
(70,-30,l),
(110,0,l),
(110,460,l),
(349,460,l),
(349,276,l),
(307,245,l),
(407,245,l),
(407,20,l),
(246,20,l),
(218,-10,l)
);
}
);
width = 480;
},
{
layerId = m006;
shapes = (
{
closed = 1;
nodes = (
(623,-10,l),
(657,18,l),
(657,275,l),
(579,275,l),
(579,461,l),
(539,490,l),
(156,490,l),
(29,410,l),
(120,410,l),
(120,-30,l),
(160,0,l),
(160,460,l),
(539,460,l),
(539,276,l),
(497,245,l),
(617,245,l),
(617,20,l),
(366,20,l),
(338,-10,l)
);
}
);
width = 690;
}
);
unicode = 223;
},
{
color = 1;
glyphname = t;
kernLeft = t;
kernRight = RxH;
lastChange = "2024-10-06 00:47:30 +0000";
layers = (
{
backgroundImage = {
imagePath = "../reference/@Celes/lowercase/t.png";
locked = 1;
pos = (-352,-387);
scale = (14,14);
};
layerId = m01;
shapes = (
{
closed = 1;
nodes = (
(121,218,l),
(265,218,l),
(266,288,l),
(132,288,l),
(29,229,l),
(29,179,l)
);
},
{
closed = 1;
nodes = (
(320,370,l),
(420,433,l),
(420,490,l),
(234,370,l)
);
},
{
closed = 1;
nodes = (
(420,-170,l),
(420,371,l),
(320,320,l),
(320,-230,l)
);
}
);
width = 460;
},
{
backgroundImage = {
imagePath = "../reference/@Celes/lowercase/t.png";
locked = 1;
pos = (-322,-387);
scale = (14,14);
};
layerId = m002;
shapes = (
{
closed = 1;
nodes = (
(160,193,l),
(325,193,l),
(325,293,l),
(151,293,l),
(29,213,l),
(29,128,l)
);
},
{
closed = 1;
nodes = (
(400,340,l),
(560,403,l),
(560,490,l),
(294,340,l)
);
},
{
closed = 1;
nodes = (
(560,-134,l),
(560,332,l),
(400,276,l),
(400,-230,l)
);
}
);
width = 600;
},
{
backgroundImage = {
imagePath = "../reference/@Celes/lowercase/t.png";
locked = 1;
pos = (-252,-387);
scale = (14,14);
};
layerId = m004;
shapes = (
{
closed = 1;
nodes = (
(161,218,l),
(421,218,l),
(426,288,l),
(172,288,l),
(29,229,l),
(29,179,l)
);
},
{
closed = 1;
nodes = (
(520,370,l),
(620,409,l),
(620,490,l),
(394,370,l)
);
},
{
closed = 1;
nodes = (
(620,-170,l),
(620,326,l),
(520,301,l),
(520,-230,l)
);
}
);
width = 660;
},
{
backgroundImage = {
imagePath = "../reference/@Celes/lowercase/t.png";
locked = 1;
pos = (-352,-387);
scale = (14,14);
};
layerId = m005;
shapes = (
{
closed = 1;
nodes = (
(134,238,l),
(274,238,l),
(273,268,l),
(122,268,l),
(29,211,l),
(29,185,l)
);
},
{
closed = 1;
nodes = (
(350,410,l),
(390,446,l),
(390,490,l),
(294,410,l)
);
},
{
closed = 1;
nodes = (
(390,-200,l),
(390,386,l),
(350,358,l),
(350,-230,l)
);
}
);
width = 430;
},
{
backgroundImage = {
imagePath = "../reference/@Celes/lowercase/t.png";
locked = 1;
pos = (-252,-387);
scale = (14,14);
};
layerId = m006;
shapes = (
{
closed = 1;
nodes = (
(204,258,l),
(422,258,l),
(422,288,l),
(192,288,l),
(29,231,l),
(29,205,l)
);
},
{
closed = 1;
nodes = (
(550,410,l),
(590,437,l),
(590,490,l),
(444,410,l)
);
},
{
closed = 1;
nodes = (
(590,-200,l),
(590,368,l),
(550,342,l),
(550,-230,l)
);
}
);
width = 630;
}
);
unicode = 116;
},
{
color = 1;
glyphname = u;
kernLeft = o;
kernRight = o;
lastChange = "2024-10-06 05:56:40 +0000";
layers = (
{
anchors = (
{
name = top;
pos = (327,390);
}
);
backgroundImage = {
imagePath = "../reference/@Celes/lowercase/u.png";
locked = 1;
pos = (-235,-438);
scale = (14,14);
};
layerId = m01;
shapes = (
{
closed = 1;
nodes = (
(102,420,l),
(102,490,l),
(20,490,l),
(102,420,l)
);
},
{
closed = 1;
nodes = (
(232,60,l),
(144,163,l),
(144,262,l),
(205,399,l),
(205,490,l),
(140,490,l),
(140,420,l),
(44,274,l),
(44,107,l),
(152,-10,l)
);
},
{
closed = 1;
nodes = (
(426,-10,l),
(590,144,l),
(590,436,l),
(541,480,l),
(391,480,l),
(266,352,l),
(266,135,l),
(366,195,l),
(366,352,l),
(414,410,l),
(490,410,l),
(490,302,l),
(414,302,l),
(414,232,l),
(490,232,l),
(490,162,l),
(380,60,l),
(297,60,l),
(238,-10,l)
);
}
);
width = 620;
},
{
anchors = (
{
name = top;
pos = (417,400);
}
);
backgroundImage = {
imagePath = "../reference/@Celes/lowercase/u.png";
locked = 1;
pos = (-185,-438);
scale = (14,14);
};
layerId = m002;
shapes = (
{
closed = 1;
nodes = (
(134,390,l),
(134,490,l),
(25,490,l),
(134,390,l)
);
},
{
closed = 1;
nodes = (
(272,90,l),
(224,164,l),
(224,299,l),
(285,386,l),
(285,490,l),
(188,490,l),
(188,390,l),
(64,275,l),
(64,79,l),
(188,-10,l)
);
},
{
closed = 1;
nodes = (
(618,-10,l),
(760,106,l),
(760,438,l),
(697,480,l),
(464,480,l),
(326,354,l),
(326,139,l),
(486,234,l),
(486,351,l),
(512,380,l),
(600,380,l),
(600,297,l),
(532,297,l),
(532,197,l),
(600,197,l),
(600,164,l),
(523,90,l),
(344,90,l),
(259,-10,l)
);
}
);
width = 800;
},
{
anchors = (
{
name = top;
pos = (467,390);
}
);
backgroundImage = {
imagePath = "../reference/@Celes/lowercase/u.png";
locked = 1;
pos = (-95,-438);
scale = (14,14);
};
layerId = m004;
shapes = (
{
closed = 1;
nodes = (
(148,420,l),
(148,490,l),
(20,490,l),
(102,420,l)
);
},
{
closed = 1;
nodes = (
(322,60,l),
(184,143,l),
(184,262,l),
(295,379,l),
(295,490,l),
(225,490,l),
(225,420,l),
(84,274,l),
(84,87,l),
(266,-10,l)
);
},
{
closed = 1;
nodes = (
(642,-10,l),
(830,93,l),
(830,406,l),
(751,480,l),
(531,480,l),
(406,352,l),
(406,115,l),
(506,175,l),
(506,352,l),
(574,410,l),
(730,410,l),
(730,282,l),
(562,282,l),
(562,212,l),
(730,212,l),
(730,142,l),
(570,60,l),
(406,60,l),
(347,-10,l)
);
}
);
width = 860;
},
{
anchors = (
{
name = top;
pos = (317,390);
}
);
backgroundImage = {
imagePath = "../reference/@Celes/lowercase/u.png";
locked = 1;
pos = (-245,-438);
scale = (14,14);
};
layerId = m005;
shapes = (
{
closed = 1;
nodes = (
(118,460,l),
(118,490,l),
(22,490,l),
(48,460,l)
);
},
{
closed = 1;
nodes = (
(205,20,l),
(104,138,l),
(104,314,l),
(195,430,l),
(195,490,l),
(156,490,l),
(156,430,l),
(64,320,l),
(64,112,l),
(168,-10,l)
);
},
{
closed = 1;
nodes = (
(420,-10,l),
(550,138,l),
(550,450,l),
(517,480,l),
(367,480,l),
(286,342,l),
(286,159,l),
(326,183,l),
(326,338,l),
(386,450,l),
(510,450,l),
(510,273,l),
(369,273,l),
(369,243,l),
(510,243,l),
(510,156,l),
(388,20,l),
(259,20,l),
(231,-10,l)
);
}
);
width = 580;
},
{
anchors = (
{
name = top;
pos = (457,390);
}
);
backgroundImage = {
imagePath = "../reference/@Celes/lowercase/u.png";
locked = 1;
pos = (-105,-438);
scale = (14,14);
};
layerId = m006;
shapes = (
{
closed = 1;
nodes = (
(177,460,l),
(177,490,l),
(22,490,l),
(48,460,l)
);
},
{
closed = 1;
nodes = (
(305,20,l),
(144,118,l),
(144,309,l),
(275,439,l),
(275,490,l),
(230,490,l),
(230,448,l),
(104,315,l),
(104,102,l),
(278,-10,l)
);
},
{
closed = 1;
nodes = (
(600,-10,l),
(790,108,l),
(790,440,l),
(757,470,l),
(507,470,l),
(426,392,l),
(426,139,l),
(466,163,l),
(466,388,l),
(526,440,l),
(750,440,l),
(750,293,l),
(531,293,l),
(531,263,l),
(750,263,l),
(750,126,l),
(578,20,l),
(373,20,l),
(341,-10,l)
);
}
);
width = 820;
}
);
unicode = 117;
},
{
color = 1;
glyphname = v;
kernLeft = n;
kernRight = v;
lastChange = "2024-10-06 05:57:02 +0000";
layers = (
{
backgroundImage = {
imagePath = "../reference/@Celes/lowercase/v.png";
locked = 1;
pos = (-220,-432);
scale = (14,14);
};
layerId = m01;
shapes = (
{
closed = 1;
nodes = (
(264,490,l),
(99,370,l),
(164,370,l),
(164,249,l),
(90,249,l),
(25,179,l),
(164,179,l),
(164,-30,l),
(264,30,l),
(264,179,l),
(288,179,l),
(353,249,l),
(264,249,l)
);
},
{
closed = 1;
nodes = (
(610,-10,l),
(610,203,l),
(319,379,l),
(317,309,l),
(510,189,l),
(510,-10,l)
);
},
{
closed = 1;
nodes = (
(481,60,l),
(386,60,l),
(481,-10,l),
(481,-10,l)
);
}
);
width = 650;
},
{
backgroundImage = {
imagePath = "../reference/@Celes/lowercase/v.png";
locked = 1;
pos = (-160,-432);
scale = (14,14);
};
layerId = m002;
shapes = (
{
closed = 1;
nodes = (
(334,490,l),
(93,340,l),
(174,340,l),
(174,264,l),
(112,264,l),
(20,164,l),
(174,164,l),
(174,-30,l),
(334,66,l),
(334,164,l),
(334,164,l),
(438,264,l),
(334,264,l)
);
},
{
closed = 1;
nodes = (
(790,-10,l),
(790,207,l),
(393,407,l),
(395,306,l),
(630,182,l),
(630,-10,l)
);
},
{
closed = 1;
nodes = (
(603,90,l),
(491,90,l),
(603,-10,l),
(603,-10,l)
);
}
);
width = 830;
},
{
backgroundImage = {
imagePath = "../reference/@Celes/lowercase/v.png";
locked = 1;
pos = (-90,-432);
scale = (14,14);
};
layerId = m004;
shapes = (
{
closed = 1;
nodes = (
(294,490,l),
(79,370,l),
(194,370,l),
(194,249,l),
(90,249,l),
(25,179,l),
(194,179,l),
(194,-30,l),
(294,30,l),
(294,179,l),
(378,179,l),
(443,249,l),
(294,249,l)
);
},
{
closed = 1;
nodes = (
(850,-10,l),
(850,245,l),
(383,394,l),
(381,314,l),
(750,201,l),
(750,-10,l)
);
},
{
closed = 1;
nodes = (
(708,60,l),
(586,60,l),
(651,-10,l),
(708,-10,l)
);
}
);
width = 890;
},
{
backgroundImage = {
imagePath = "../reference/@Celes/lowercase/v.png";
locked = 1;
pos = (-270,-432);
scale = (14,14);
};
layerId = m005;
shapes = (
{
closed = 1;
nodes = (
(184,490,l),
(103,410,l),
(144,410,l),
(144,209,l),
(56,209,l),
(28,179,l),
(144,179,l),
(144,-30,l),
(184,0,l),
(184,179,l),
(262,179,l),
(290,209,l),
(184,209,l)
);
},
{
closed = 1;
nodes = (
(530,-10,l),
(530,179,l),
(234,375,l),
(233,340,l),
(490,161,l),
(490,-10,l)
);
},
{
closed = 1;
nodes = (
(453,20,l),
(349,20,l),
(377,-10,l),
(453,-10,l)
);
}
);
width = 570;
},
{
backgroundImage = {
imagePath = "../reference/@Celes/lowercase/v.png";
locked = 1;
pos = (-140,-432);
scale = (14,14);
};
layerId = m006;
shapes = (
{
closed = 1;
nodes = (
(234,490,l),
(103,410,l),
(194,410,l),
(194,229,l),
(56,229,l),
(28,199,l),
(194,199,l),
(194,-30,l),
(234,0,l),
(234,199,l),
(392,199,l),
(420,229,l),
(234,229,l)
);
},
{
closed = 1;
nodes = (
(790,-10,l),
(790,229,l),
(308,390,l),
(304,357,l),
(750,211,l),
(750,-10,l)
);
},
{
closed = 1;
nodes = (
(711,20,l),
(559,20,l),
(587,-10,l),
(711,-10,l)
);
}
);
width = 830;
}
);
unicode = 118;
},
{
color = 1;
glyphname = w;
kernLeft = LxH;
kernRight = RxH;
lastChange = "2024-10-06 01:05:09 +0000";
layers = (
{
anchors = (
{
name = top;
pos = (390,390);
}
);
backgroundImage = {
imagePath = "../reference/@Celes/lowercase/w.png";
locked = 1;
pos = (20,0);
scale = (14,14);
};
layerId = m01;
shapes = (
{
closed = 1;
nodes = (
(90,370,l),
(190,430,l),
(190,490,l),
(25,370,l)
);
},
{
closed = 1;
nodes = (
(190,30,l),
(190,368,l),
(90,323,l),
(90,-30,l)
);
},
{
closed = 1;
nodes = (
(437,45,l),
(437,490,l),
(387,490,l),
(272,370,l),
(337,370,l),
(337,-15,l)
);
},
{
closed = 1;
nodes = (
(320,-15,l),
(320,55,l),
(249,55,l),
(314,-15,l)
);
},
{
closed = 1;
nodes = (
(682,45,l),
(682,490,l),
(632,490,l),
(517,370,l),
(582,370,l),
(582,-15,l)
);
},
{
closed = 1;
nodes = (
(571,-15,l),
(561,55,l),
(494,55,l),
(559,-15,l)
);
}
);
width = 730;
},
{
anchors = (
{
name = top;
pos = (470,400);
}
);
backgroundImage = {
imagePath = "../reference/@Celes/lowercase/w.png";
locked = 1;
pos = (70,0);
scale = (14,14);
};
layerId = m002;
shapes = (
{
closed = 1;
nodes = (
(110,340,l),
(270,410,l),
(270,490,l),
(29,340,l)
);
},
{
closed = 1;
nodes = (
(270,66,l),
(270,346,l),
(110,274,l),
(110,-30,l)
);
},
{
closed = 1;
nodes = (
(537,53,l),
(537,490,l),
(440,490,l),
(296,340,l),
(377,340,l),
(377,-20,l)
);
},
{
closed = 1;
nodes = (
(366,-20,l),
(366,80,l),
(274,80,l),
(366,-20,l)
);
},
{
closed = 1;
nodes = (
(812,53,l),
(812,490,l),
(715,490,l),
(571,340,l),
(652,340,l),
(652,-20,l)
);
},
{
closed = 1;
nodes = (
(641,-20,l),
(641,80,l),
(549,80,l),
(641,-20,l)
);
}
);
width = 870;
},
{
anchors = (
{
name = top;
pos = (510,390);
}
);
backgroundImage = {
imagePath = "../reference/@Celes/lowercase/w.png";
locked = 1;
pos = (140,0);
scale = (14,14);
};
layerId = m004;
shapes = (
{
closed = 1;
nodes = (
(130,370,l),
(230,416,l),
(230,490,l),
(25,370,l)
);
},
{
closed = 1;
nodes = (
(230,30,l),
(230,337,l),
(130,290,l),
(130,-30,l)
);
},
{
closed = 1;
nodes = (
(557,45,l),
(557,490,l),
(507,490,l),
(352,370,l),
(457,370,l),
(457,-15,l)
);
},
{
closed = 1;
nodes = (
(426,-15,l),
(426,55,l),
(329,55,l),
(394,-15,l)
);
},
{
closed = 1;
nodes = (
(892,45,l),
(892,490,l),
(842,490,l),
(687,370,l),
(792,370,l),
(792,-15,l)
);
},
{
closed = 1;
nodes = (
(760,-15,l),
(757,55,l),
(664,55,l),
(729,-15,l)
);
}
);
width = 930;
},
{
anchors = (
{
name = top;
pos = (350,390);
}
);
backgroundImage = {
imagePath = "../reference/@Celes/lowercase/w.png";
locked = 1;
pos = (-20,0);
scale = (14,14);
};
layerId = m005;
shapes = (
{
closed = 1;
nodes = (
(80,410,l),
(120,443,l),
(120,490,l),
(29,410,l)
);
},
{
closed = 1;
nodes = (
(120,0,l),
(120,378,l),
(80,346,l),
(80,-30,l)
);
},
{
closed = 1;
nodes = (
(367,21,l),
(367,490,l),
(363,490,l),
(276,410,l),
(327,410,l),
(327,-15,l)
);
},
{
closed = 1;
nodes = (
(299,-15,l),
(299,15,l),
(242,15,l),
(270,-15,l)
);
},
{
closed = 1;
nodes = (
(612,21,l),
(612,490,l),
(608,490,l),
(521,410,l),
(572,410,l),
(572,-15,l)
);
},
{
closed = 1;
nodes = (
(542,-15,l),
(542,15,l),
(477,15,l),
(505,-15,l)
);
}
);
width = 670;
},
{
anchors = (
{
name = top;
pos = (450,390);
}
);
backgroundImage = {
imagePath = "../reference/@Celes/lowercase/w.png";
locked = 1;
pos = (80,0);
scale = (14,14);
};
layerId = m006;
shapes = (
{
closed = 1;
nodes = (
(130,410,l),
(170,426,l),
(170,490,l),
(29,410,l)
);
},
{
closed = 1;
nodes = (
(170,0,l),
(170,352,l),
(130,334,l),
(130,-30,l)
);
},
{
closed = 1;
nodes = (
(497,21,l),
(497,490,l),
(493,490,l),
(336,410,l),
(457,410,l),
(457,-15,l)
);
},
{
closed = 1;
nodes = (
(408,-15,l),
(408,15,l),
(312,15,l),
(340,-15,l)
);
},
{
closed = 1;
nodes = (
(827,21,l),
(827,490,l),
(823,490,l),
(666,410,l),
(787,410,l),
(787,-15,l)
);
},
{
closed = 1;
nodes = (
(735,-15,l),
(735,15,l),
(632,15,l),
(660,-15,l)
);
}
);
width = 880;
}
);
unicode = 119;
},
{
color = 3;
glyphname = x;
kernLeft = x;
kernRight = x;
lastChange = "2024-10-06 01:36:56 +0000";
layers = (
{
backgroundImage = {
imagePath = "../reference/@Celes/lowercase/x.png";
locked = 1;
pos = (-324,-423);
scale = (14,14);
};
layerId = m01;
shapes = (
{
closed = 1;
nodes = (
(441,-10,l),
(500,60,l),
(399,60,l),
(156,490,l),
(41,490,l),
(321,-10,l)
);
},
{
closed = 1;
nodes = (
(86,-13,l),
(206,87,l),
(36,87,l),
(36,-13,l)
);
}
);
width = 520;
},
{
backgroundImage = {
imagePath = "../reference/@Celes/lowercase/x.png";
locked = 1;
pos = (-294,-423);
scale = (14,14);
};
layerId = m002;
shapes = (
{
closed = 1;
nodes = (
(539,-10,l),
(624,90,l),
(501,90,l),
(218,490,l),
(42,490,l),
(379,-10,l)
);
},
{
closed = 1;
nodes = (
(171,-13,l),
(327,117,l),
(36,117,l),
(36,-13,l)
);
}
);
width = 650;
},
{
backgroundImage = {
imagePath = "../reference/@Celes/lowercase/x.png";
locked = 1;
pos = (-224,-423);
scale = (14,14);
};
layerId = m004;
shapes = (
{
closed = 1;
nodes = (
(641,-10,l),
(700,60,l),
(599,60,l),
(156,490,l),
(41,490,l),
(521,-10,l)
);
},
{
closed = 1;
nodes = (
(146,-13,l),
(286,87,l),
(36,87,l),
(36,-13,l)
);
}
);
width = 720;
},
{
backgroundImage = {
imagePath = "../reference/@Celes/lowercase/x.png";
locked = 1;
pos = (-324,-423);
scale = (14,14);
};
layerId = m005;
shapes = (
{
closed = 1;
nodes = (
(454,-10,l),
(486,30,l),
(367,30,l),
(112,490,l),
(64,490,l),
(341,-10,l)
);
},
{
closed = 1;
nodes = (
(64,-13,l),
(194,47,l),
(36,47,l),
(36,-13,l)
);
}
);
width = 520;
},
{
backgroundImage = {
imagePath = "../reference/@Celes/lowercase/x.png";
locked = 1;
pos = (-234,-423);
scale = (14,14);
};
layerId = m006;
shapes = (
{
closed = 1;
nodes = (
(684,-10,l),
(716,30,l),
(557,30,l),
(92,490,l),
(44,490,l),
(531,-10,l)
);
},
{
closed = 1;
nodes = (
(94,-13,l),
(294,37,l),
(36,37,l),
(36,-13,l)
);
}
);
width = 750;
}
);
unicode = 120;
},
{
color = 1;
glyphname = y;
kernLeft = LxD;
kernRight = y;
lastChange = "2024-10-06 01:20:15 +0000";
layers = (
{
anchors = (
{
name = top;
pos = (295,390);
}
);
backgroundImage = {
imagePath = "../reference/@Celes/lowercase/y.png";
locked = 1;
pos = (10,0);
scale = (14,14);
};
layerId = m01;
shapes = (
{
closed = 1;
nodes = (
(101,370,l),
(201,425,l),
(201,490,l),
(15,370,l)
);
},
{
closed = 1;
nodes = (
(201,-170,l),
(201,351,l),
(101,293,l),
(101,-230,l)
);
},
{
closed = 1;
nodes = (
(525,326,l),
(525,451,l),
(446,490,l),
(373,490,l),
(296,420,l),
(425,420,l),
(425,283,l)
);
},
{
closed = 1;
nodes = (
(430,-10,l),
(530,57,l),
(530,208,l),
(269,352,l),
(269,300,l),
(430,206,l),
(430,108,l),
(368,60,l),
(262,97,l),
(262,47,l),
(386,-10,l)
);
}
);
width = 560;
},
{
anchors = (
{
name = top;
pos = (385,400);
}
);
backgroundImage = {
imagePath = "../reference/@Celes/lowercase/y.png";
locked = 1;
pos = (60,0);
scale = (14,14);
};
layerId = m002;
shapes = (
{
closed = 1;
nodes = (
(121,340,l),
(281,414,l),
(281,490,l),
(15,340,l)
);
},
{
closed = 1;
nodes = (
(281,-134,l),
(281,316,l),
(121,277,l),
(121,-230,l)
);
},
{
closed = 1;
nodes = (
(695,350,l),
(695,442,l),
(596,491,l),
(497,491,l),
(387,391,l),
(535,391,l),
(535,305,l)
);
},
{
closed = 1;
nodes = (
(604,-10,l),
(700,57,l),
(700,212,l),
(327,373,l),
(327,288,l),
(540,202,l),
(540,95,l),
(540,95,l),
(352,155,l),
(352,71,l),
(516,-10,l)
);
}
);
width = 730;
},
{
anchors = (
{
name = top;
pos = (435,390);
}
);
backgroundImage = {
imagePath = "../reference/@Celes/lowercase/y.png";
locked = 1;
pos = (150,0);
scale = (14,14);
};
layerId = m004;
shapes = (
{
closed = 1;
nodes = (
(141,370,l),
(241,418,l),
(241,490,l),
(15,370,l)
);
},
{
closed = 1;
nodes = (
(241,-170,l),
(241,345,l),
(141,311,l),
(141,-230,l)
);
},
{
closed = 1;
nodes = (
(765,334,l),
(765,451,l),
(686,490,l),
(513,490,l),
(436,420,l),
(665,420,l),
(665,271,l)
);
},
{
closed = 1;
nodes = (
(670,-10,l),
(770,57,l),
(770,187,l),
(350,341,l),
(350,280,l),
(670,161,l),
(670,60,l),
(521,60,l),
(372,120,l),
(372,70,l),
(498,-10,l)
);
}
);
width = 800;
},
{
anchors = (
{
name = top;
pos = (245,390);
}
);
backgroundImage = {
imagePath = "../reference/@Celes/lowercase/y.png";
locked = 1;
pos = (10,0);
scale = (14,14);
};
layerId = m005;
shapes = (
{
closed = 1;
nodes = (
(81,410,l),
(121,437,l),
(121,490,l),
(25,410,l)
);
},
{
closed = 1;
nodes = (
(121,-200,l),
(121,391,l),
(81,376,l),
(81,-230,l)
);
},
{
closed = 1;
nodes = (
(455,312,l),
(455,461,l),
(412,490,l),
(287,490,l),
(254,460,l),
(415,460,l),
(415,275,l)
);
},
{
closed = 1;
nodes = (
(377,-10,l),
(470,55,l),
(470,189,l),
(213,343,l),
(213,312,l),
(430,178,l),
(430,76,l),
(342,16,l),
(213,83,l),
(213,58,l),
(319,-10,l)
);
}
);
width = 500;
},
{
anchors = (
{
name = top;
pos = (365,390);
}
);
backgroundImage = {
imagePath = "../reference/@Celes/lowercase/y.png";
locked = 1;
pos = (130,0);
scale = (14,14);
};
layerId = m006;
shapes = (
{
closed = 1;
nodes = (
(131,410,l),
(171,433,l),
(171,490,l),
(25,410,l)
);
},
{
closed = 1;
nodes = (
(171,-200,l),
(171,368,l),
(131,343,l),
(131,-230,l)
);
},
{
closed = 1;
nodes = (
(685,288,l),
(685,461,l),
(642,490,l),
(437,490,l),
(404,460,l),
(645,460,l),
(645,255,l)
);
},
{
closed = 1;
nodes = (
(668,-10,l),
(710,20,l),
(710,179,l),
(308,336,l),
(308,303,l),
(670,158,l),
(670,20,l),
(482,20,l),
(333,103,l),
(333,78,l),
(459,-10,l)
);
}
);
width = 740;
}
);
unicode = 121;
},
{
color = 3;
glyphname = z;
kernLeft = z;
kernRight = z;
lastChange = "2024-10-06 01:36:56 +0000";
layers = (
{
anchors = (
{
name = top;
pos = (317,390);
}
);
layerId = m01;
shapes = (
{
closed = 1;
nodes = (
(566,480,l),
(144,480,l),
(79,410,l),
(444,410,l),
(191,60,l),
(127,60,l),
(127,216,l),
(182,259,l),
(403,259,l),
(403,31,l),
(503,31,l),
(503,259,l),
(402,329,l),
(181,329,l),
(27,216,l),
(27,51,l),
(100,-10,l),
(212,-10,l)
);
},
{
closed = 1;
nodes = (
(538,0,l),
(603,70,l),
(355,70,l),
(290,0,l)
);
}
);
width = 620;
},
{
anchors = (
{
name = top;
pos = (390,390);
}
);
layerId = m002;
shapes = (
{
closed = 1;
nodes = (
(678,480,l),
(156,480,l),
(64,380,l),
(472,380,l),
(241,90,l),
(187,90,l),
(187,244,l),
(210,244,l),
(493,244,l),
(493,31,l),
(653,31,l),
(653,262,l),
(535,344,l),
(197,344,l),
(27,219,l),
(27,48,l),
(115,-10,l),
(315,-10,l)
);
},
{
closed = 1;
nodes = (
(676,0,l),
(768,100,l),
(497,100,l),
(405,0,l)
);
}
);
width = 790;
},
{
anchors = (
{
name = top;
pos = (434,390);
}
);
layerId = m004;
shapes = (
{
closed = 1;
nodes = (
(776,480,l),
(144,480,l),
(79,410,l),
(624,410,l),
(271,60,l),
(127,60,l),
(127,216,l),
(182,259,l),
(583,259,l),
(583,31,l),
(683,31,l),
(683,259,l),
(582,329,l),
(167,329,l),
(27,232,l),
(27,51,l),
(100,-10,l),
(292,-10,l)
);
},
{
closed = 1;
nodes = (
(748,0,l),
(813,70,l),
(475,70,l),
(410,0,l)
);
}
);
width = 830;
},
{
anchors = (
{
name = top;
pos = (297,390);
}
);
layerId = m005;
shapes = (
{
closed = 1;
nodes = (
(557,460,l),
(90,460,l),
(62,430,l),
(499,430,l),
(189,20,l),
(77,20,l),
(77,210,l),
(141,259,l),
(413,259,l),
(413,20,l),
(453,20,l),
(453,256,l),
(420,289,l),
(127,289,l),
(37,218,l),
(37,22,l),
(70,-10,l),
(204,-10,l)
);
},
{
closed = 1;
nodes = (
(542,0,l),
(570,30,l),
(321,30,l),
(293,0,l)
);
}
);
width = 600;
},
{
anchors = (
{
name = top;
pos = (397,390);
}
);
layerId = m006;
shapes = (
{
closed = 1;
nodes = (
(727,460,l),
(130,460,l),
(102,430,l),
(659,430,l),
(249,20,l),
(77,20,l),
(77,210,l),
(132,259,l),
(583,259,l),
(583,20,l),
(623,20,l),
(623,256,l),
(590,289,l),
(110,289,l),
(37,218,l),
(37,22,l),
(70,-10,l),
(264,-10,l)
);
},
{
closed = 1;
nodes = (
(772,0,l),
(800,30,l),
(421,30,l),
(393,0,l)
);
}
);
width = 830;
}
);
unicode = 122;
},
{
glyphname = zero;
lastChange = "2024-08-28 13:09:40 +0000";
layers = (
{
layerId = m01;
shapes = (
{
closed = 1;
nodes = (
(237,313,l),
(302,383,l),
(74,383,l),
(74,313,l)
);
},
{
alignment = -1;
ref = O;
}
);
width = 490;
},
{
layerId = m002;
shapes = (
{
closed = 1;
nodes = (
(275,298,l),
(367,398,l),
(64,398,l),
(64,298,l)
);
},
{
alignment = -1;
ref = O;
}
);
width = 590;
},
{
layerId = m004;
shapes = (
{
closed = 1;
nodes = (
(337,313,l),
(402,383,l),
(74,383,l),
(74,313,l)
);
},
{
alignment = -1;
ref = O;
}
);
width = 670;
},
{
layerId = m005;
shapes = (
{
closed = 1;
nodes = (
(221,333,l),
(249,363,l),
(44,363,l),
(44,333,l)
);
},
{
alignment = -1;
pos = (-20,0);
ref = O;
}
);
width = 390;
},
{
layerId = m006;
shapes = (
{
closed = 1;
nodes = (
(371,343,l),
(399,373,l),
(44,373,l),
(44,343,l)
);
},
{
alignment = -1;
pos = (-20,0);
ref = O;
}
);
width = 580;
}
);
unicode = 48;
},
{
glyphname = one;
lastChange = "2024-08-28 13:10:21 +0000";
layers = (
{
layerId = m01;
shapes = (
{
closed = 1;
nodes = (
(55,-200,l),
(201,28,l),
(201,699,l),
(151,699,l),
(15,579,l),
(101,579,l),
(101,0,l),
(0,-200,l)
);
},
{
closed = 1;
nodes = (
(503,366,l),
(394,480,l),
(183,480,l),
(183,410,l),
(376,410,l),
(503,316,l)
);
}
);
width = 530;
},
{
layerId = m002;
shapes = (
{
closed = 1;
nodes = (
(111,-200,l),
(271,0,l),
(271,700,l),
(175,700,l),
(5,550,l),
(111,550,l),
(111,0,l),
(2,-200,l)
);
},
{
closed = 1;
nodes = (
(613,388,l),
(491,495,l),
(193,495,l),
(193,395,l),
(442,395,l),
(613,289,l)
);
}
);
width = 640;
},
{
layerId = m004;
shapes = (
{
closed = 1;
nodes = (
(95,-200,l),
(231,28,l),
(231,699,l),
(181,699,l),
(5,579,l),
(131,579,l),
(131,0,l),
(30,-200,l)
);
},
{
closed = 1;
nodes = (
(733,366,l),
(564,480,l),
(183,480,l),
(183,410,l),
(546,410,l),
(733,316,l)
);
}
);
width = 760;
},
{
layerId = m005;
shapes = (
{
closed = 1;
nodes = (
(28,-200,l),
(161,-11,l),
(161,700,l),
(155,700,l),
(65,620,l),
(121,620,l),
(121,0,l),
(3,-200,l)
);
},
{
closed = 1;
nodes = (
(493,392,l),
(395,460,l),
(134,460,l),
(134,430,l),
(379,430,l),
(493,367,l)
);
}
);
width = 520;
},
{
layerId = m006;
shapes = (
{
closed = 1;
nodes = (
(28,-200,l),
(161,-11,l),
(161,700,l),
(155,700,l),
(15,620,l),
(121,620,l),
(121,0,l),
(3,-200,l)
);
},
{
closed = 1;
nodes = (
(683,392,l),
(525,460,l),
(134,460,l),
(134,430,l),
(509,430,l),
(683,367,l)
);
}
);
width = 710;
}
);
unicode = 49;
},
{
glyphname = two;
lastChange = "2024-08-28 13:18:18 +0000";
layers = (
{
layerId = m01;
shapes = (
{
closed = 1;
nodes = (
(320,243,l),
(385,313,l),
(157,313,l),
(157,243,l)
);
},
{
alignment = -1;
ref = one;
}
);
width = 530;
},
{
layerId = m002;
shapes = (
{
closed = 1;
nodes = (
(378,228,l),
(470,328,l),
(167,328,l),
(167,228,l)
);
},
{
alignment = -1;
ref = one;
}
);
width = 640;
},
{
layerId = m004;
shapes = (
{
closed = 1;
nodes = (
(440,243,l),
(505,313,l),
(157,313,l),
(157,243,l)
);
},
{
alignment = -1;
ref = one;
}
);
width = 760;
},
{
layerId = m005;
shapes = (
{
closed = 1;
nodes = (
(344,263,l),
(372,293,l),
(147,293,l),
(147,263,l)
);
},
{
alignment = -1;
ref = one;
}
);
width = 520;
},
{
layerId = m006;
shapes = (
{
closed = 1;
nodes = (
(444,263,l),
(472,293,l),
(147,293,l),
(147,263,l)
);
},
{
alignment = -1;
ref = one;
}
);
width = 710;
}
);
metricLeft = one;
metricRight = one;
unicode = 50;
},
{
glyphname = three;
lastChange = "2024-08-28 13:18:23 +0000";
layers = (
{
layerId = m01;
shapes = (
{
closed = 1;
nodes = (
(320,253,l),
(385,323,l),
(157,323,l),
(157,253,l)
);
},
{
alignment = -1;
ref = one;
},
{
closed = 1;
nodes = (
(320,103,l),
(385,173,l),
(157,173,l),
(157,103,l)
);
}
);
width = 530;
},
{
layerId = m002;
shapes = (
{
closed = 1;
nodes = (
(378,228,l),
(470,328,l),
(167,328,l),
(167,228,l)
);
},
{
alignment = -1;
ref = one;
},
{
closed = 1;
nodes = (
(378,78,l),
(470,178,l),
(167,178,l),
(167,78,l)
);
}
);
width = 640;
},
{
layerId = m004;
shapes = (
{
closed = 1;
nodes = (
(440,253,l),
(505,323,l),
(157,323,l),
(157,253,l)
);
},
{
alignment = -1;
ref = one;
},
{
closed = 1;
nodes = (
(440,103,l),
(505,173,l),
(157,173,l),
(157,103,l)
);
}
);
width = 760;
},
{
layerId = m005;
shapes = (
{
closed = 1;
nodes = (
(344,273,l),
(372,303,l),
(147,303,l),
(147,273,l)
);
},
{
alignment = -1;
ref = one;
},
{
closed = 1;
nodes = (
(344,123,l),
(372,153,l),
(147,153,l),
(147,123,l)
);
}
);
width = 520;
},
{
layerId = m006;
shapes = (
{
closed = 1;
nodes = (
(444,283,l),
(472,313,l),
(147,313,l),
(147,283,l)
);
},
{
alignment = -1;
ref = one;
},
{
closed = 1;
nodes = (
(444,133,l),
(472,163,l),
(147,163,l),
(147,133,l)
);
}
);
width = 710;
}
);
metricLeft = one;
metricRight = one;
unicode = 51;
},
{
glyphname = four;
lastChange = "2024-08-28 13:11:49 +0000";
layers = (
{
layerId = m01;
shapes = (
{
closed = 1;
nodes = (
(456,0,l),
(521,70,l),
(316,700,l),
(126,700,l),
(26,554,l),
(26,408,l),
(126,468,l),
(126,630,l),
(244,630,l),
(413,70,l),
(113,70,l),
(48,0,l)
);
},
{
closed = 1;
nodes = (
(484,299,l),
(549,369,l),
(245,369,l),
(180,299,l)
);
}
);
width = 570;
},
{
layerId = m002;
shapes = (
{
closed = 1;
nodes = (
(544,0,l),
(621,84,l),
(411,700,l),
(136,700,l),
(26,540,l),
(26,353,l),
(186,464,l),
(186,600,l),
(288,600,l),
(448,100,l),
(125,100,l),
(33,0,l)
);
},
{
closed = 1;
nodes = (
(572,284,l),
(664,384,l),
(297,384,l),
(205,284,l)
);
}
);
width = 690;
},
{
layerId = m004;
shapes = (
{
closed = 1;
nodes = (
(656,0,l),
(721,70,l),
(376,700,l),
(166,700,l),
(66,596,l),
(66,362,l),
(166,422,l),
(166,630,l),
(304,630,l),
(613,70,l),
(123,70,l),
(58,0,l)
);
},
{
closed = 1;
nodes = (
(704,299,l),
(769,369,l),
(325,369,l),
(260,299,l)
);
}
);
width = 790;
},
{
layerId = m005;
shapes = (
{
closed = 1;
nodes = (
(426,0,l),
(465,34,l),
(242,700,l),
(71,700,l),
(26,650,l),
(26,483,l),
(66,507,l),
(66,670,l),
(209,670,l),
(420,30,l),
(99,30,l),
(71,0,l)
);
},
{
closed = 1;
nodes = (
(468,319,l),
(496,349,l),
(181,349,l),
(153,319,l)
);
}
);
width = 530;
},
{
layerId = m006;
shapes = (
{
closed = 1;
nodes = (
(596,0,l),
(635,34,l),
(272,700,l),
(71,700,l),
(26,650,l),
(26,483,l),
(66,507,l),
(66,670,l),
(239,670,l),
(590,30,l),
(69,30,l),
(41,0,l)
);
},
{
closed = 1;
nodes = (
(668,319,l),
(696,349,l),
(241,349,l),
(213,319,l)
);
}
);
width = 730;
}
);
unicode = 52;
},
{
glyphname = five;
lastChange = "2024-08-28 13:13:45 +0000";
layers = (
{
layerId = m01;
shapes = (
{
closed = 1;
nodes = (
(75,-10,l),
(407,358,l),
(357,358,l),
(25,110,l),
(25,-10,l)
);
},
{
closed = 1;
nodes = (
(440,30,l),
(440,700,l),
(390,700,l),
(250,580,l),
(340,580,l),
(340,-30,l)
);
}
);
width = 480;
},
{
layerId = m002;
shapes = (
{
closed = 1;
nodes = (
(123,-10,l),
(542,373,l),
(433,373,l),
(25,128,l),
(25,-10,l)
);
},
{
closed = 1;
nodes = (
(560,66,l),
(560,700,l),
(465,700,l),
(290,550,l),
(400,550,l),
(400,-30,l)
);
}
);
width = 600;
},
{
layerId = m004;
shapes = (
{
closed = 1;
nodes = (
(125,-10,l),
(617,368,l),
(567,398,l),
(25,80,l),
(25,-10,l)
);
},
{
closed = 1;
nodes = (
(640,30,l),
(640,700,l),
(590,700,l),
(410,580,l),
(540,580,l),
(540,-30,l)
);
}
);
width = 680;
},
{
layerId = m005;
shapes = (
{
closed = 1;
nodes = (
(48,-10,l),
(395,338,l),
(364,338,l),
(25,47,l),
(25,-10,l)
);
},
{
closed = 1;
nodes = (
(400,0,l),
(400,700,l),
(394,700,l),
(301,620,l),
(360,620,l),
(360,-30,l)
);
}
);
width = 440;
},
{
layerId = m006;
shapes = (
{
closed = 1;
nodes = (
(58,-10,l),
(605,378,l),
(574,395,l),
(25,24,l),
(25,-10,l)
);
},
{
closed = 1;
nodes = (
(610,0,l),
(610,700,l),
(604,700,l),
(461,620,l),
(570,620,l),
(570,-30,l)
);
}
);
width = 650;
}
);
unicode = 53;
},
{
glyphname = six;
lastChange = "2024-08-28 13:14:37 +0000";
layers = (
{
layerId = m01;
shapes = (
{
closed = 1;
nodes = (
(481,0,l),
(546,70,l),
(164,70,l),
(355,630,l),
(433,630,l),
(433,438,l),
(533,498,l),
(533,640,l),
(475,700,l),
(283,700,l),
(33,-1,l)
);
},
{
closed = 1;
nodes = (
(326,299,l),
(391,369,l),
(87,369,l),
(22,299,l)
);
}
);
width = 580;
},
{
layerId = m002;
shapes = (
{
closed = 1;
nodes = (
(589,0,l),
(681,100,l),
(249,100,l),
(430,600,l),
(513,600,l),
(513,398,l),
(673,494,l),
(673,627,l),
(602,700,l),
(308,700,l),
(48,-1,l)
);
},
{
closed = 1;
nodes = (
(404,284,l),
(496,384,l),
(119,384,l),
(27,284,l)
);
}
);
width = 720;
},
{
layerId = m004;
shapes = (
{
closed = 1;
nodes = (
(701,0,l),
(766,70,l),
(194,70,l),
(485,630,l),
(603,630,l),
(603,438,l),
(703,498,l),
(703,640,l),
(645,700,l),
(413,700,l),
(63,-1,l)
);
},
{
closed = 1;
nodes = (
(516,299,l),
(581,369,l),
(137,369,l),
(72,299,l)
);
}
);
width = 800;
},
{
layerId = m005;
shapes = (
{
closed = 1;
nodes = (
(425,0,l),
(453,30,l),
(87,30,l),
(301,670,l),
(423,670,l),
(423,482,l),
(463,506,l),
(463,668,l),
(429,700,l),
(277,700,l),
(31,-1,l)
);
},
{
closed = 1;
nodes = (
(320,319,l),
(348,349,l),
(63,349,l),
(35,319,l)
);
}
);
width = 500;
},
{
layerId = m006;
shapes = (
{
closed = 1;
nodes = (
(595,0,l),
(623,30,l),
(87,30,l),
(441,670,l),
(583,670,l),
(583,482,l),
(623,506,l),
(623,668,l),
(589,700,l),
(417,700,l),
(31,-1,l)
);
},
{
closed = 1;
nodes = (
(490,319,l),
(518,349,l),
(73,349,l),
(45,319,l)
);
}
);
width = 660;
}
);
unicode = 54;
},
{
glyphname = seven;
lastChange = "2024-08-28 13:15:18 +0000";
layers = (
{
layerId = m01;
shapes = (
{
closed = 1;
nodes = (
(225,30,l),
(225,700,l),
(175,700,l),
(15,580,l),
(125,580,l),
(125,-30,l)
);
},
{
closed = 1;
nodes = (
(412,-10,l),
(548,82,l),
(548,326,l),
(466,378,l),
(353,378,l),
(288,308,l),
(448,308,l),
(448,60,l),
(352,60,l),
(218,251,l),
(168,251,l),
(168,201,l),
(310,-10,l)
);
}
);
width = 570;
},
{
layerId = m002;
shapes = (
{
closed = 1;
nodes = (
(315,66,l),
(315,700,l),
(221,700,l),
(21,550,l),
(155,550,l),
(155,-30,l)
);
},
{
closed = 1;
nodes = (
(545,-10,l),
(698,78,l),
(698,330,l),
(598,393,l),
(445,393,l),
(353,293,l),
(538,293,l),
(538,90,l),
(403,90,l),
(262,266,l),
(198,266,l),
(198,200,l),
(350,-10,l)
);
}
);
width = 720;
},
{
layerId = m004;
shapes = (
{
closed = 1;
nodes = (
(265,30,l),
(265,700,l),
(215,700,l),
(15,580,l),
(165,580,l),
(165,-30,l)
);
},
{
closed = 1;
nodes = (
(652,-10,l),
(788,82,l),
(788,326,l),
(706,378,l),
(443,378,l),
(378,308,l),
(688,308,l),
(688,60,l),
(432,60,l),
(258,251,l),
(208,251,l),
(208,201,l),
(390,-10,l)
);
}
);
width = 810;
},
{
layerId = m005;
shapes = (
{
closed = 1;
nodes = (
(135,0,l),
(135,700,l),
(128,700,l),
(21,620,l),
(95,620,l),
(95,-30,l)
);
},
{
closed = 1;
nodes = (
(419,-10,l),
(458,28,l),
(458,298,l),
(419,338,l),
(259,338,l),
(231,308,l),
(418,308,l),
(418,20,l),
(279,20,l),
(127,231,l),
(113,231,l),
(113,195,l),
(261,-10,l)
);
}
);
width = 490;
},
{
layerId = m006;
shapes = (
{
closed = 1;
nodes = (
(185,0,l),
(185,700,l),
(178,700,l),
(21,620,l),
(145,620,l),
(145,-30,l)
);
},
{
closed = 1;
nodes = (
(669,-10,l),
(708,28,l),
(708,298,l),
(669,338,l),
(369,338,l),
(341,308,l),
(668,308,l),
(668,20,l),
(369,20,l),
(177,251,l),
(163,251,l),
(163,215,l),
(351,-10,l)
);
}
);
width = 740;
}
);
unicode = 55;
},
{
glyphname = eight;
lastChange = "2024-08-28 13:23:59 +0000";
layers = (
{
layerId = m01;
shapes = (
{
closed = 1;
nodes = (
(243,359,l),
(243,429,l),
(82,429,l),
(17,359,l)
);
},
{
alignment = -1;
pos = (70,0);
ref = seven;
}
);
width = 640;
},
{
layerId = m002;
shapes = (
{
closed = 1;
nodes = (
(323,344,l),
(323,444,l),
(114,444,l),
(22,344,l)
);
},
{
alignment = -1;
pos = (120,0);
ref = seven;
}
);
width = 840;
},
{
layerId = m004;
shapes = (
{
closed = 1;
nodes = (
(303,359,l),
(303,429,l),
(82,429,l),
(17,359,l)
);
},
{
alignment = -1;
pos = (110,0);
ref = seven;
}
);
width = 920;
},
{
layerId = m005;
shapes = (
{
closed = 1;
nodes = (
(173,379,l),
(173,409,l),
(48,409,l),
(20,379,l)
);
},
{
alignment = -1;
pos = (60,0);
ref = seven;
}
);
width = 550;
},
{
layerId = m006;
shapes = (
{
closed = 1;
nodes = (
(253,379,l),
(253,409,l),
(48,409,l),
(20,379,l)
);
},
{
alignment = -1;
pos = (90,0);
ref = seven;
}
);
width = 830;
}
);
metricRight = seven;
unicode = 56;
},
{
glyphname = nine;
lastChange = "2024-08-28 13:24:02 +0000";
layers = (
{
layerId = m01;
shapes = (
{
closed = 1;
nodes = (
(253,359,l),
(253,429,l),
(92,429,l),
(27,359,l)
);
},
{
closed = 1;
nodes = (
(253,202,l),
(253,272,l),
(92,272,l),
(27,202,l)
);
},
{
alignment = -1;
pos = (80,0);
ref = seven;
}
);
width = 650;
},
{
layerId = m002;
shapes = (
{
closed = 1;
nodes = (
(323,344,l),
(323,444,l),
(114,444,l),
(22,344,l)
);
},
{
closed = 1;
nodes = (
(323,187,l),
(323,287,l),
(114,287,l),
(22,187,l)
);
},
{
alignment = -1;
pos = (120,0);
ref = seven;
}
);
width = 840;
},
{
layerId = m004;
shapes = (
{
closed = 1;
nodes = (
(303,359,l),
(303,429,l),
(82,429,l),
(17,359,l)
);
},
{
closed = 1;
nodes = (
(303,202,l),
(303,272,l),
(82,272,l),
(17,202,l)
);
},
{
alignment = -1;
pos = (110,0);
ref = seven;
}
);
width = 920;
},
{
layerId = m005;
shapes = (
{
closed = 1;
nodes = (
(173,379,l),
(173,409,l),
(48,409,l),
(20,379,l)
);
},
{
closed = 1;
nodes = (
(173,222,l),
(173,252,l),
(48,252,l),
(20,222,l)
);
},
{
alignment = -1;
pos = (60,0);
ref = seven;
}
);
width = 550;
},
{
layerId = m006;
shapes = (
{
closed = 1;
nodes = (
(253,399,l),
(253,429,l),
(48,429,l),
(20,399,l)
);
},
{
closed = 1;
nodes = (
(253,242,l),
(253,272,l),
(48,272,l),
(20,242,l)
);
},
{
alignment = -1;
pos = (90,0);
ref = seven;
}
);
width = 830;
}
);
metricRight = seven;
unicode = 57;
},
{
glyphname = zero.osf;
lastChange = "2024-08-28 13:17:29 +0000";
layers = (
{
layerId = m01;
shapes = (
{
closed = 1;
nodes = (
(267,212,l),
(332,282,l),
(83,282,l),
(83,212,l)
);
},
{
ref = o;
}
);
width = 530;
},
{
layerId = m002;
shapes = (
{
closed = 1;
nodes = (
(295,177,l),
(387,277,l),
(84,277,l),
(84,177,l)
);
},
{
ref = o;
}
);
width = 630;
},
{
layerId = m004;
shapes = (
{
closed = 1;
nodes = (
(387,212,l),
(452,282,l),
(84,282,l),
(84,212,l)
);
},
{
ref = o;
}
);
width = 740;
},
{
layerId = m005;
shapes = (
{
closed = 1;
nodes = (
(271,232,l),
(299,262,l),
(54,262,l),
(54,232,l)
);
},
{
ref = o;
}
);
width = 470;
},
{
layerId = m006;
shapes = (
{
closed = 1;
nodes = (
(391,232,l),
(419,262,l),
(54,262,l),
(54,232,l)
);
},
{
ref = o;
}
);
width = 670;
}
);
},
{
glyphname = one.osf;
lastChange = "2024-08-28 13:17:59 +0000";
layers = (
{
layerId = m01;
shapes = (
{
closed = 1;
nodes = (
(50,-200,l),
(201,10,l),
(201,490,l),
(151,490,l),
(15,370,l),
(101,370,l),
(101,-20,l),
(0,-200,l)
);
},
{
closed = 1;
nodes = (
(463,263,l),
(364,365,l),
(163,365,l),
(163,295,l),
(346,295,l),
(463,213,l)
);
}
);
width = 490;
},
{
layerId = m002;
shapes = (
{
closed = 1;
nodes = (
(110,-200,l),
(271,19,l),
(271,490,l),
(175,490,l),
(5,340,l),
(111,340,l),
(111,-9,l),
(1,-200,l)
);
},
{
closed = 1;
nodes = (
(593,285,l),
(491,380,l),
(193,380,l),
(193,280,l),
(443,280,l),
(593,188,l)
);
}
);
width = 620;
},
{
layerId = m004;
shapes = (
{
closed = 1;
nodes = (
(100,-200,l),
(231,10,l),
(231,490,l),
(181,490,l),
(5,370,l),
(131,370,l),
(131,-20,l),
(30,-200,l)
);
},
{
closed = 1;
nodes = (
(693,243,l),
(524,365,l),
(183,365,l),
(183,295,l),
(506,295,l),
(693,193,l)
);
}
);
width = 720;
},
{
layerId = m005;
shapes = (
{
closed = 1;
nodes = (
(30,-200,l),
(171,0,l),
(171,490,l),
(165,490,l),
(75,410,l),
(131,410,l),
(131,10,l),
(5,-200,l)
);
},
{
closed = 1;
nodes = (
(463,260,l),
(373,345,l),
(153,345,l),
(153,315,l),
(358,315,l),
(463,235,l)
);
}
);
width = 490;
},
{
layerId = m006;
shapes = (
{
closed = 1;
nodes = (
(30,-200,l),
(171,0,l),
(171,490,l),
(165,490,l),
(25,410,l),
(131,410,l),
(131,10,l),
(5,-200,l)
);
},
{
closed = 1;
nodes = (
(643,260,l),
(483,345,l),
(153,345,l),
(153,315,l),
(468,315,l),
(643,235,l)
);
}
);
width = 670;
}
);
},
{
glyphname = two.osf;
lastChange = "2024-08-28 13:18:45 +0000";
layers = (
{
layerId = m01;
shapes = (
{
closed = 1;
nodes = (
(320,141,l),
(385,211,l),
(157,211,l),
(157,141,l)
);
},
{
alignment = -1;
ref = one.osf;
}
);
width = 490;
},
{
layerId = m002;
shapes = (
{
closed = 1;
nodes = (
(368,116,l),
(460,216,l),
(157,216,l),
(157,116,l)
);
},
{
alignment = -1;
ref = one.osf;
}
);
width = 620;
},
{
layerId = m004;
shapes = (
{
closed = 1;
nodes = (
(440,141,l),
(505,211,l),
(157,211,l),
(157,141,l)
);
},
{
alignment = -1;
ref = one.osf;
}
);
width = 720;
},
{
layerId = m005;
shapes = (
{
closed = 1;
nodes = (
(334,161,l),
(362,191,l),
(157,191,l),
(157,161,l)
);
},
{
alignment = -1;
ref = one.osf;
}
);
width = 490;
},
{
layerId = m006;
shapes = (
{
closed = 1;
nodes = (
(434,161,l),
(462,191,l),
(157,191,l),
(157,161,l)
);
},
{
alignment = -1;
ref = one.osf;
}
);
width = 670;
}
);
metricLeft = one.osf;
metricRight = one.osf;
},
{
glyphname = three.osf;
lastChange = "2024-08-28 13:18:51 +0000";
layers = (
{
layerId = m01;
shapes = (
{
closed = 1;
nodes = (
(320,148,l),
(385,218,l),
(157,218,l),
(157,148,l)
);
},
{
alignment = -1;
ref = one.osf;
},
{
closed = 1;
nodes = (
(320,0,l),
(385,70,l),
(157,70,l),
(157,0,l)
);
}
);
width = 490;
},
{
layerId = m002;
shapes = (
{
closed = 1;
nodes = (
(368,123,l),
(460,223,l),
(157,223,l),
(157,123,l)
);
},
{
alignment = -1;
ref = one.osf;
},
{
closed = 1;
nodes = (
(368,-25,l),
(460,75,l),
(157,75,l),
(157,-25,l)
);
}
);
width = 620;
},
{
layerId = m004;
shapes = (
{
closed = 1;
nodes = (
(440,148,l),
(505,218,l),
(157,218,l),
(157,148,l)
);
},
{
alignment = -1;
ref = one.osf;
},
{
closed = 1;
nodes = (
(440,0,l),
(505,70,l),
(157,70,l),
(157,0,l)
);
}
);
width = 720;
},
{
layerId = m005;
shapes = (
{
closed = 1;
nodes = (
(334,188,l),
(362,218,l),
(157,218,l),
(157,188,l)
);
},
{
alignment = -1;
ref = one.osf;
},
{
closed = 1;
nodes = (
(334,50,l),
(362,80,l),
(157,80,l),
(157,50,l)
);
}
);
width = 490;
},
{
layerId = m006;
shapes = (
{
closed = 1;
nodes = (
(434,188,l),
(462,218,l),
(157,218,l),
(157,188,l)
);
},
{
alignment = -1;
ref = one.osf;
},
{
closed = 1;
nodes = (
(434,50,l),
(462,80,l),
(157,80,l),
(157,50,l)
);
}
);
width = 670;
}
);
metricLeft = one.osf;
metricRight = one.osf;
},
{
glyphname = four.osf;
lastChange = "2024-08-28 13:19:46 +0000";
layers = (
{
layerId = m01;
shapes = (
{
closed = 1;
nodes = (
(436,0,l),
(501,70,l),
(296,490,l),
(136,490,l),
(26,349,l),
(126,289,l),
(126,420,l),
(229,420,l),
(398,70,l),
(113,70,l),
(48,0,l)
);
},
{
closed = 1;
nodes = (
(464,197,l),
(529,267,l),
(245,267,l),
(180,197,l)
);
}
);
width = 550;
},
{
layerId = m002;
shapes = (
{
closed = 1;
nodes = (
(544,0,l),
(622,84,l),
(409,490,l),
(147,490,l),
(23,347,l),
(186,249,l),
(186,390,l),
(296,390,l),
(451,100,l),
(125,100,l),
(33,0,l)
);
},
{
closed = 1;
nodes = (
(622,182,l),
(714,282,l),
(307,282,l),
(215,182,l)
);
}
);
width = 740;
},
{
layerId = m004;
shapes = (
{
closed = 1;
nodes = (
(596,0,l),
(661,70,l),
(346,490,l),
(156,490,l),
(46,349,l),
(146,289,l),
(146,420,l),
(289,420,l),
(558,70,l),
(93,70,l),
(28,0,l)
);
},
{
closed = 1;
nodes = (
(664,197,l),
(729,267,l),
(315,267,l),
(250,197,l)
);
}
);
width = 750;
},
{
layerId = m005;
shapes = (
{
closed = 1;
nodes = (
(409,0,l),
(438,30,l),
(255,490,l),
(81,490,l),
(29,435,l),
(76,397,l),
(76,460,l),
(231,460,l),
(399,30,l),
(89,30,l),
(61,0,l)
);
},
{
closed = 1;
nodes = (
(428,217,l),
(456,247,l),
(191,247,l),
(163,217,l)
);
}
);
width = 470;
},
{
layerId = m006;
shapes = (
{
closed = 1;
nodes = (
(559,0,l),
(588,30,l),
(245,490,l),
(81,490,l),
(29,435,l),
(76,397,l),
(76,460,l),
(221,460,l),
(549,30,l),
(79,30,l),
(51,0,l)
);
},
{
closed = 1;
nodes = (
(618,217,l),
(646,247,l),
(281,247,l),
(253,217,l)
);
}
);
width = 660;
}
);
},
{
glyphname = five.osf;
lastChange = "2024-08-28 13:21:24 +0000";
layers = (
{
layerId = m01;
shapes = (
{
closed = 1;
nodes = (
(380,30,l),
(380,490,l),
(330,490,l),
(190,370,l),
(280,370,l),
(280,-30,l)
);
},
{
closed = 1;
nodes = (
(75,-10,l),
(243,110,l),
(25,110,l),
(25,-10,l)
);
}
);
width = 420;
},
{
layerId = m002;
shapes = (
{
closed = 1;
nodes = (
(510,66,l),
(510,490,l),
(415,490,l),
(240,340,l),
(350,340,l),
(350,-30,l)
);
},
{
closed = 1;
nodes = (
(119,-25,l),
(319,105,l),
(25,105,l),
(25,-25,l)
);
}
);
width = 550;
},
{
layerId = m004;
shapes = (
{
closed = 1;
nodes = (
(560,30,l),
(560,490,l),
(510,490,l),
(330,370,l),
(460,370,l),
(460,-30,l)
);
},
{
closed = 1;
nodes = (
(115,-10,l),
(383,80,l),
(25,80,l),
(25,-10,l)
);
}
);
width = 600;
},
{
layerId = m005;
shapes = (
{
closed = 1;
nodes = (
(350,0,l),
(350,490,l),
(344,490,l),
(251,410,l),
(310,410,l),
(310,-30,l)
);
},
{
closed = 1;
nodes = (
(43,-10,l),
(235,50,l),
(25,50,l),
(25,-10,l)
);
}
);
width = 390;
},
{
layerId = m006;
shapes = (
{
closed = 1;
nodes = (
(530,0,l),
(530,490,l),
(524,490,l),
(381,410,l),
(490,410,l),
(490,-30,l)
);
},
{
closed = 1;
nodes = (
(63,-10,l),
(385,40,l),
(25,40,l),
(25,-10,l)
);
}
);
width = 570;
}
);
},
{
glyphname = six.osf;
lastChange = "2024-08-28 13:22:12 +0000";
layers = (
{
layerId = m01;
shapes = (
{
closed = 1;
nodes = (
(421,0,l),
(486,70,l),
(169,70,l),
(320,420,l),
(403,420,l),
(403,318,l),
(503,387,l),
(387,490,l),
(253,490,l),
(43,-1,l)
);
},
{
closed = 1;
nodes = (
(303,197,l),
(368,267,l),
(84,267,l),
(19,197,l)
);
}
);
width = 530;
},
{
layerId = m002;
shapes = (
{
closed = 1;
nodes = (
(529,0,l),
(621,100,l),
(256,100,l),
(394,390,l),
(493,390,l),
(493,304,l),
(637,386,l),
(523,490,l),
(279,490,l),
(56,-1,l)
);
},
{
closed = 1;
nodes = (
(391,182,l),
(483,282,l),
(116,282,l),
(24,182,l)
);
}
);
width = 670;
},
{
layerId = m004;
shapes = (
{
closed = 1;
nodes = (
(581,0,l),
(646,70,l),
(169,70,l),
(420,420,l),
(543,420,l),
(543,318,l),
(643,387,l),
(527,490,l),
(373,490,l),
(23,-1,l)
);
},
{
closed = 1;
nodes = (
(403,197,l),
(468,267,l),
(104,267,l),
(39,197,l)
);
}
);
width = 680;
},
{
layerId = m005;
shapes = (
{
closed = 1;
nodes = (
(365,0,l),
(393,30,l),
(89,30,l),
(258,460,l),
(337,460,l),
(337,409,l),
(390,447,l),
(336,490,l),
(235,490,l),
(43,-1,l)
);
},
{
closed = 1;
nodes = (
(287,217,l),
(315,247,l),
(50,247,l),
(22,217,l)
);
}
);
width = 420;
},
{
layerId = m006;
shapes = (
{
closed = 1;
nodes = (
(545,0,l),
(573,30,l),
(94,30,l),
(408,460,l),
(517,460,l),
(517,409,l),
(570,447,l),
(516,490,l),
(385,490,l),
(23,-1,l)
);
},
{
closed = 1;
nodes = (
(397,217,l),
(425,247,l),
(60,247,l),
(32,217,l)
);
}
);
width = 600;
}
);
},
{
glyphname = seven.osf;
lastChange = "2024-08-28 13:23:43 +0000";
layers = (
{
layerId = m01;
shapes = (
{
closed = 1;
nodes = (
(225,-170,l),
(225,490,l),
(175,490,l),
(15,370,l),
(125,370,l),
(125,-230,l)
);
},
{
closed = 1;
nodes = (
(352,-210,l),
(488,-118,l),
(488,138,l),
(438,138,l),
(298,18,l),
(388,18,l),
(388,-140,l),
(322,-140,l),
(218,71,l),
(168,71,l),
(168,31,l),
(280,-210,l)
);
}
);
width = 520;
},
{
layerId = m002;
shapes = (
{
closed = 1;
nodes = (
(315,-134,l),
(315,490,l),
(221,490,l),
(21,340,l),
(155,340,l),
(155,-230,l)
);
},
{
closed = 1;
nodes = (
(495,-210,l),
(648,-107,l),
(648,153,l),
(553,153,l),
(398,3,l),
(488,3,l),
(488,-110,l),
(435,-110,l),
(301,86,l),
(198,86,l),
(198,31,l),
(347,-210,l)
);
}
);
width = 680;
},
{
layerId = m004;
shapes = (
{
closed = 1;
nodes = (
(255,-170,l),
(255,490,l),
(205,490,l),
(15,370,l),
(155,370,l),
(155,-230,l)
);
},
{
closed = 1;
nodes = (
(583,-210,l),
(688,-118,l),
(688,138,l),
(608,138,l),
(458,18,l),
(588,18,l),
(588,-140,l),
(402,-140,l),
(248,111,l),
(198,111,l),
(198,71,l),
(360,-210,l)
);
}
);
width = 720;
},
{
layerId = m005;
shapes = (
{
closed = 1;
nodes = (
(135,-200,l),
(135,490,l),
(128,490,l),
(21,410,l),
(95,410,l),
(95,-230,l)
);
},
{
closed = 1;
nodes = (
(352,-210,l),
(392,-180,l),
(392,78,l),
(304,78,l),
(237,48,l),
(352,48,l),
(352,-180,l),
(275,-180,l),
(126,51,l),
(107,51,l),
(107,29,l),
(256,-210,l)
);
}
);
width = 430;
},
{
layerId = m006;
shapes = (
{
closed = 1;
nodes = (
(185,-200,l),
(185,490,l),
(178,490,l),
(21,410,l),
(145,410,l),
(145,-230,l)
);
},
{
closed = 1;
nodes = (
(582,-210,l),
(622,-180,l),
(622,78,l),
(374,78,l),
(337,48,l),
(582,48,l),
(582,-180,l),
(345,-180,l),
(176,81,l),
(157,81,l),
(157,49,l),
(316,-210,l)
);
}
);
width = 660;
}
);
},
{
glyphname = eight.osf;
lastChange = "2024-08-28 13:24:33 +0000";
layers = (
{
layerId = m01;
shapes = (
{
closed = 1;
nodes = (
(255,167,l),
(255,237,l),
(83,237,l),
(18,167,l)
);
},
{
alignment = -1;
pos = (80,0);
ref = seven.osf;
}
);
width = 600;
},
{
layerId = m002;
shapes = (
{
closed = 1;
nodes = (
(375,152,l),
(375,252,l),
(155,252,l),
(63,152,l)
);
},
{
alignment = -1;
pos = (110,0);
ref = seven.osf;
}
);
width = 790;
},
{
layerId = m004;
shapes = (
{
closed = 1;
nodes = (
(275,187,l),
(275,257,l),
(83,257,l),
(18,187,l)
);
},
{
alignment = -1;
pos = (80,0);
ref = seven.osf;
}
);
width = 800;
},
{
layerId = m005;
shapes = (
{
closed = 1;
nodes = (
(175,207,l),
(175,237,l),
(49,237,l),
(21,207,l)
);
},
{
alignment = -1;
pos = (60,0);
ref = seven.osf;
}
);
width = 490;
},
{
layerId = m006;
shapes = (
{
closed = 1;
nodes = (
(275,207,l),
(275,237,l),
(49,237,l),
(21,207,l)
);
},
{
alignment = -1;
pos = (110,0);
ref = seven.osf;
}
);
width = 770;
}
);
metricRight = seven.osf;
},
{
glyphname = nine.osf;
lastChange = "2024-08-28 13:24:37 +0000";
layers = (
{
layerId = m01;
shapes = (
{
closed = 1;
nodes = (
(255,167,l),
(255,237,l),
(83,237,l),
(18,167,l)
);
},
{
closed = 1;
nodes = (
(255,0,l),
(255,70,l),
(83,70,l),
(18,0,l)
);
},
{
alignment = -1;
pos = (80,0);
ref = seven.osf;
}
);
width = 600;
},
{
layerId = m002;
shapes = (
{
closed = 1;
nodes = (
(365,152,l),
(365,252,l),
(145,252,l),
(53,152,l)
);
},
{
closed = 1;
nodes = (
(365,-15,l),
(365,85,l),
(145,85,l),
(53,-15,l)
);
},
{
alignment = -1;
pos = (100,0);
ref = seven.osf;
}
);
width = 780;
},
{
layerId = m004;
shapes = (
{
closed = 1;
nodes = (
(275,187,l),
(275,257,l),
(83,257,l),
(18,187,l)
);
},
{
closed = 1;
nodes = (
(275,20,l),
(275,90,l),
(83,90,l),
(18,20,l)
);
},
{
alignment = -1;
pos = (80,0);
ref = seven.osf;
}
);
width = 800;
},
{
layerId = m005;
shapes = (
{
closed = 1;
nodes = (
(175,207,l),
(175,237,l),
(49,237,l),
(21,207,l)
);
},
{
closed = 1;
nodes = (
(175,40,l),
(175,70,l),
(49,70,l),
(21,40,l)
);
},
{
alignment = -1;
pos = (60,0);
ref = seven.osf;
}
);
width = 490;
},
{
layerId = m006;
shapes = (
{
closed = 1;
nodes = (
(275,207,l),
(275,237,l),
(49,237,l),
(21,207,l)
);
},
{
closed = 1;
nodes = (
(275,40,l),
(275,70,l),
(49,70,l),
(21,40,l)
);
},
{
alignment = -1;
pos = (110,0);
ref = seven.osf;
}
);
width = 770;
}
);
metricRight = seven.osf;
},
{
glyphname = eight.tf;
lastChange = "2024-08-28 13:29:35 +0000";
layers = (
{
layerId = m01;
shapes = (
{
closed = 1;
nodes = (
(232,359,l),
(232,429,l),
(71,429,l),
(6,359,l)
);
},
{
pos = (40,0);
ref = seven;
}
);
width = 600;
},
{
layerId = m002;
shapes = (
{
closed = 1;
nodes = (
(262,344,l),
(262,444,l),
(83,444,l),
(11,344,l)
);
},
{
pos = (-10,0);
ref = seven;
}
);
width = 700;
},
{
layerId = m004;
shapes = (
{
closed = 1;
nodes = (
(302,359,l),
(302,429,l),
(81,429,l),
(16,359,l)
);
},
{
pos = (60,0);
ref = seven;
}
);
width = 900;
},
{
layerId = m005;
shapes = (
{
closed = 1;
nodes = (
(148,379,l),
(148,409,l),
(33,409,l),
(5,379,l)
);
},
{
pos = (36,0);
ref = seven;
}
);
width = 500;
},
{
layerId = m006;
shapes = (
{
closed = 1;
nodes = (
(198,379,l),
(198,409,l),
(33,409,l),
(5,379,l)
);
},
{
pos = (36,0);
ref = seven;
}
);
width = 750;
}
);
},
{
glyphname = nine.tf;
lastChange = "2024-08-28 13:29:49 +0000";
layers = (
{
layerId = m01;
shapes = (
{
closed = 1;
nodes = (
(232,202,l),
(232,272,l),
(71,272,l),
(6,202,l)
);
},
{
closed = 1;
nodes = (
(232,359,l),
(232,429,l),
(71,429,l),
(6,359,l)
);
},
{
pos = (40,0);
ref = seven;
}
);
width = 600;
},
{
layerId = m002;
shapes = (
{
closed = 1;
nodes = (
(262,187,l),
(262,287,l),
(83,287,l),
(11,187,l)
);
},
{
closed = 1;
nodes = (
(262,344,l),
(262,444,l),
(83,444,l),
(11,344,l)
);
},
{
pos = (-10,0);
ref = seven;
}
);
width = 700;
},
{
layerId = m004;
shapes = (
{
closed = 1;
nodes = (
(302,200,l),
(302,270,l),
(81,270,l),
(16,200,l)
);
},
{
closed = 1;
nodes = (
(302,359,l),
(302,429,l),
(81,429,l),
(16,359,l)
);
},
{
pos = (60,0);
ref = seven;
}
);
width = 900;
},
{
layerId = m005;
shapes = (
{
closed = 1;
nodes = (
(148,222,l),
(148,252,l),
(33,252,l),
(5,222,l)
);
},
{
closed = 1;
nodes = (
(148,379,l),
(148,409,l),
(33,409,l),
(5,379,l)
);
},
{
pos = (36,0);
ref = seven;
}
);
width = 500;
},
{
layerId = m006;
shapes = (
{
closed = 1;
nodes = (
(198,222,l),
(198,252,l),
(33,252,l),
(5,222,l)
);
},
{
closed = 1;
nodes = (
(198,379,l),
(198,409,l),
(33,409,l),
(5,379,l)
);
},
{
pos = (36,0);
ref = seven;
}
);
width = 750;
}
);
metricRight = eight.tf;
},
{
glyphname = fraction;
lastChange = "2024-08-28 13:42:32 +0000";
layers = (
{
layerId = m01;
shapes = (
{
closed = 1;
nodes = (
(20,-30,l),
(120,-30,l),
(560,710,l),
(460,710,l)
);
}
);
width = 580;
},
{
layerId = m004;
shapes = (
{
closed = 1;
nodes = (
(20,-30,l),
(120,-30,l),
(760,710,l),
(660,710,l)
);
}
);
width = 780;
},
{
layerId = m002;
shapes = (
{
closed = 1;
nodes = (
(20,-50,l),
(180,-50,l),
(630,720,l),
(470,720,l)
);
}
);
width = 650;
},
{
layerId = m005;
shapes = (
{
closed = 1;
nodes = (
(25,-30,l),
(60,-30,l),
(496,710,l),
(461,710,l)
);
}
);
width = 520;
},
{
layerId = m006;
shapes = (
{
closed = 1;
nodes = (
(25,-30,l),
(70,-30,l),
(646,710,l),
(601,710,l)
);
}
);
width = 670;
}
);
unicode = 8260;
},
